<?xml version="1.0" encoding="UTF-8" standalone="no"?>
<!-- Created with Inkscape (http://www.inkscape.org/) -->

<svg
   width="125mm"
   height="125mm"
   viewBox="0 0 125 125"
   version="1.1"
   id="svg1"
   inkscape:version="1.4.2 (f4327f4, 2025-05-13)"
   sodipodi:docname="boton.svg"
   xmlns:inkscape="http://www.inkscape.org/namespaces/inkscape"
   xmlns:sodipodi="http://sodipodi.sourceforge.net/DTD/sodipodi-0.dtd"
   xmlns="http://www.w3.org/2000/svg"
   xmlns:svg="http://www.w3.org/2000/svg">
  <sodipodi:namedview
     id="namedview1"
     pagecolor="#505050"
     bordercolor="#eeeeee"
     borderopacity="1"
     inkscape:showpageshadow="0"
     inkscape:pageopacity="0"
     inkscape:pagecheckerboard="0"
     inkscape:deskcolor="#505050"
     inkscape:document-units="mm"
     inkscape:lockguides="true"
     inkscape:zoom="1.0167041"
     inkscape:cx="234.08975"
     inkscape:cy="149.01091"
     inkscape:window-width="1920"
     inkscape:window-height="1009"
     inkscape:window-x="-8"
     inkscape:window-y="-8"
     inkscape:window-maximized="1"
     inkscape:current-layer="layer1" />
  <defs
     id="defs1" />
  <g
     inkscape:label="Capa 1"
     inkscape:groupmode="layer"
     id="layer1">
    <g
       id="g6"
       transform="translate(159.0044,34.090958)"
       style="fill:#ffffff">
      <g
         id="g433"
         transform="matrix(0.26458333,0,0,0.26458333,-311.23993,-375.40181)"
         style="fill:#ffffff">
        <path
           fill-rule="nonzero"
           fill="#100e0c"
           fill-opacity="1"
           d="m 787.22656,1545.2813 c 9.79688,0 21.97656,-6.0821 31.78125,-15.8907 7.54297,-7.539 12.85547,-16.332 14.95703,-24.7304 1.38672,-5.5508 1.21094,-10.3594 -0.41797,-14.0196 L 780.25,1543.9297 c 2.39844,1.0586 4.94922,1.3516 6.97656,1.3516"
           id="path362"
           style="fill:#ffffff" />
        <path
           fill-rule="nonzero"
           fill="#100e0c"
           fill-opacity="1"
           d="m 939.80078,1397.6211 c 11.80078,0 21.40625,-9.6094 21.40625,-21.4102 0,-11.8125 -9.60156,-21.4101 -21.40625,-21.4101 -11.80078,0 -21.40625,9.5976 -21.40625,21.4101 0,11.8008 9.60547,21.4102 21.40625,21.4102"
           id="path363"
           style="fill:#ffffff" />
        <path
           fill-rule="nonzero"
           fill="#100e0c"
           fill-opacity="1"
           d="m 837.16406,1480.9609 h 0.004 c 5.95703,5.961 7.76953,15.1094 5.10156,25.7774 -5.96875,23.8711 -32.46484,47.1133 -55.04297,47.1133 -6.77734,0 -12.53906,-2.1797 -16.65625,-6.293 -11.8789,-11.8789 -6.55859,-35.8203 12.11328,-54.4883 11.51563,-11.5195 25.66016,-18.3984 37.83203,-18.3984 6.77735,0 12.53516,2.1679 16.64844,6.289 z m -98.5664,32.2383 c 0,35.4024 28.80859,64.211 64.21484,64.211 35.41016,0 64.21484,-28.8086 64.21484,-64.211 0,-35.4101 -28.80468,-64.2187 -64.21484,-64.2187 -35.40625,0 -64.21484,28.8086 -64.21484,64.2187"
           id="path364"
           style="fill:#ffffff" />
        <path
           fill-rule="nonzero"
           fill="#100e0c"
           fill-opacity="1"
           d="m 665.82422,1423.3008 c 7.07812,0 12.84375,-5.7617 12.84375,-12.8516 0,-7.0703 -5.76563,-12.8281 -12.84375,-12.8281 -7.08203,0 -12.84375,5.7578 -12.84375,12.8281 0,7.0899 5.76172,12.8516 12.84375,12.8516"
           id="path365"
           style="fill:#ffffff" />
        <path
           fill-rule="nonzero"
           fill="#100e0c"
           fill-opacity="1"
           d="m 750.96875,1623.8203 c -1.4375,-1.3398 -3.10938,-2.3398 -5.00391,-2.9922 -1.89062,-0.6562 -3.99609,-0.8164 -6.30078,-0.5 -2.41406,0.3438 -4.43359,1.1016 -6.07031,2.3008 -1.64063,1.1914 -2.95313,2.6524 -3.94531,4.3516 -3.83594,6.5976 -2.625,17.0195 3.23437,22.6914 1.41797,1.3672 3.09375,2.3867 5.01563,3.0586 1.92578,0.6797 4.03906,0.8476 6.35156,0.5312 2.40625,-0.3398 4.44531,-1.1211 6.10156,-2.3398 1.66016,-1.2305 2.97266,-2.7031 3.9336,-4.4336 1.95312,-3.5078 2.51953,-7.8086 1.95703,-11.8399 -0.28907,-2.0976 -2.26953,-8.039 -5.27344,-10.8281"
           id="path366"
           style="fill:#ffffff" />
        <path
           fill-rule="nonzero"
           fill="#100e0c"
           fill-opacity="1"
           d="m 774.17578,1537.8984 53.32031,-53.3203 c -2.40625,-1.0586 -4.95703,-1.3476 -6.98047,-1.3476 -9.80078,0 -21.98046,6.0898 -31.78125,15.8906 -12.91015,12.9102 -18.76562,29.3594 -14.55859,38.7773"
           id="path367"
           style="fill:#ffffff" />
        <path
           fill-rule="nonzero"
           fill="#100e0c"
           fill-opacity="1"
           d="m 802.60547,1615.8789 c -0.46094,-0.8789 -1.01563,-1.5781 -1.66406,-2.1172 -0.65625,-0.5312 -1.35547,-0.9023 -2.11329,-1.082 -0.75781,-0.1797 -1.49609,-0.2188 -2.21484,-0.1211 l -9.84375,1.3711 2.07422,14.9297 10.3125,-1.4375 c 1.48437,-0.211 2.67969,-1.0313 3.57812,-2.461 0.89454,-1.4296 1.17579,-3.3828 0.83204,-5.8398 -0.17579,-1.2813 -0.5,-2.3711 -0.96094,-3.2422"
           id="path368"
           style="fill:#ffffff" />
        <path
           fill-rule="nonzero"
           fill="#100e0c"
           fill-opacity="1"
           d="m 982.60937,1419.0195 c 4.73047,0 8.5625,3.8321 8.5625,8.5586 0,4.7305 -3.83203,8.5625 -8.5625,8.5625 -4.72656,0 -8.55859,-3.832 -8.55859,-8.5625 0,-4.7265 3.83203,-8.5586 8.55859,-8.5586"
           id="path369"
           style="fill:#ffffff" />
        <path
           fill-rule="nonzero"
           fill="#100e0c"
           fill-opacity="1"
           d="m 879.86719,1367.6484 c 4.73047,0 8.5625,3.8321 8.5625,8.5625 0,4.7305 -3.83203,8.5586 -8.5625,8.5586 -4.72657,0 -8.5586,-3.8281 -8.5586,-8.5586 0,-4.7304 3.83203,-8.5625 8.5586,-8.5625"
           id="path370"
           style="fill:#ffffff" />
        <path
           fill-rule="nonzero"
           fill="#100e0c"
           fill-opacity="1"
           d="m 725.75391,1350.5195 c 4.72656,0 8.5625,3.8399 8.5625,8.5703 0,4.7188 -3.83594,8.5586 -8.5625,8.5586 -4.73047,0 -8.5625,-3.8398 -8.5625,-8.5586 0,-4.7304 3.83203,-8.5703 8.5625,-8.5703"
           id="path371"
           style="fill:#ffffff" />
        <path
           fill-rule="nonzero"
           fill="#100e0c"
           fill-opacity="1"
           d="m 948.36328,1693 c 4.72656,0 8.5625,3.8281 8.5625,8.5586 0,4.7305 -3.83594,8.5625 -8.5625,8.5625 -4.73047,0 -8.5625,-3.832 -8.5625,-8.5625 0,-4.7305 3.83203,-8.5586 8.5625,-8.5586"
           id="path372"
           style="fill:#ffffff" />
        <path
           fill-rule="nonzero"
           fill="#100e0c"
           fill-opacity="1"
           d="m 640.13672,1444.6992 c 4.72656,0 8.5625,3.8399 8.5625,8.5703 0,4.7188 -3.83594,8.5586 -8.5625,8.5586 -4.73047,0 -8.5625,-3.8398 -8.5625,-8.5586 0,-4.7304 3.83203,-8.5703 8.5625,-8.5703"
           id="path373"
           style="fill:#ffffff" />
        <path
           fill-rule="nonzero"
           fill="#100e0c"
           fill-opacity="1"
           d="m 770.61719,1402.1211 c 9.39843,6.7891 22.27343,4.8398 29.33593,-4.1914 -5.10937,-6 -3.70703,-15.5 3.59375,-19.5313 -2.72265,-8.6992 -10.85546,-15.0273 -20.4375,-15.0273 -11.66796,0 -21.16406,9.3789 -21.3789,21 8.11719,1.8477 12.12109,10.5391 8.88672,17.75"
           id="path374"
           style="fill:#ffffff" />
        <path
           fill-rule="nonzero"
           fill="#100e0c"
           fill-opacity="1"
           d="m 941.70312,1539.9102 -11.79687,3.9296 c -4.32422,1.4415 -7.22656,5.4688 -7.22656,10.0313 0,2.3594 -1.91797,4.2773 -4.28125,4.2773 -2.36719,0 -4.28125,-1.9179 -4.28125,-4.2773 0,-8.25 5.2539,-15.543 13.07812,-18.1523 l 11.80078,-3.9297 c 4.32422,-1.4375 7.22657,-5.4688 7.22657,-10.0274 0,-2.3633 1.91796,-4.2812 4.28125,-4.2812 2.36328,0 4.28125,1.9179 4.28125,4.2812 0,8.25 -5.26172,15.5391 -13.08204,18.1485 z m -29.69921,100.9687 -29.51172,-27.7305 4.35547,31.2305 -12.6211,1.7617 -7.60156,-54.6211 9.84375,-1.3711 29.9375,28.5313 -4.47266,-32.0781 12.6211,-1.75 7.60547,54.6172 z m -83.85938,11.6797 -7.60547,-54.6289 37.69922,-5.25 1.53906,11.082 -25.07812,3.5 1.47656,10.6094 21.54688,-3 1.41796,10.2305 -21.53906,3 1.61719,11.6172 25.77344,-3.5782 1.54297,11.0703 z m -14.82812,-21.6992 c -1.26563,1.9492 -2.91016,3.6015 -4.92188,4.9219 -2.01172,1.3203 -4.32031,2.1679 -6.9375,2.5273 l -11.08203,1.5508 2.45703,17.6211 -12.61719,1.75 -7.60937,-54.6211 23.3125,-3.2383 c 2.61719,-0.3711 5.08594,-0.1719 7.41797,0.6094 4.64062,1.5312 8.29687,4.6679 10.72656,8.8593 1.20312,2.0821 1.96484,4.2383 2.27734,6.5 0.6836,4.9219 -0.53125,9.6915 -3.02343,13.5196 z m -49.21094,22.5 c -2.0586,2.8711 -4.64844,5.3125 -7.76563,7.3125 -6.44531,4.1484 -15.08593,5.1875 -22.01562,2.9883 -3.55469,-1.1211 -6.69141,-2.8204 -9.41406,-5.0821 -5.23047,-4.3398 -9.11329,-10.7968 -10.13672,-18.1484 -1.41797,-10.1992 2.88281,-21.2305 12.86718,-27.5586 6.1836,-3.9102 14.79688,-5.2422 22.02344,-2.9492 3.55469,1.1289 6.69141,2.8281 9.41406,5.1172 5.64063,4.7422 9.1211,11.4101 10.04688,18.0625 0.5,3.5781 -0.92969,14.539 -5.01953,20.2578 z m -67.51172,-68.8477 c -4.32422,1.4375 -7.23047,5.4688 -7.23047,10.0274 0,2.3593 -1.91406,4.2812 -4.28125,4.2812 -2.35937,0 -4.27344,-1.9219 -4.27344,-4.2812 0,-8.25 5.25391,-15.5391 13.07813,-18.1485 l 11.80078,-3.9297 c 4.32031,-1.4492 7.22266,-5.4726 7.22266,-10.0312 0,-2.3594 1.91796,-4.2813 4.28125,-4.2813 2.36718,0 4.28125,1.9219 4.28125,4.2813 0,8.25 -5.25391,15.5391 -13.08204,18.1484 z m -26.48828,-13.5234 c 0,2.3633 -1.92188,4.2812 -4.28125,4.2812 -2.36328,0 -4.28125,-1.9179 -4.28125,-4.2812 0,-8.2383 5.2539,-15.5391 13.07812,-18.1485 l 11.80078,-3.9296 c 4.32813,-1.4414 7.22657,-5.4688 7.22657,-10.0313 0,-2.3594 1.91406,-4.2773 4.28125,-4.2773 2.36328,0 4.28125,1.9179 4.28125,4.2773 0,8.25 -5.25782,15.5508 -13.08203,18.1524 l -11.80079,3.9375 c -4.32031,1.4414 -7.22265,5.4609 -7.22265,10.0195 z m 237.82812,-58.8086 11.79297,-3.9414 c 4.32813,-1.4375 7.23047,-5.4688 7.23047,-10.0195 0,-2.3672 1.91797,-4.2774 4.28125,-4.2774 2.36719,0 4.28125,1.9102 4.28125,4.2774 0,8.25 -5.25781,15.5312 -13.08203,18.1523 l -11.79688,3.9297 c -4.32421,1.4375 -7.22656,5.4687 -7.22656,10.0195 0,2.3711 -1.91797,4.2813 -4.28125,4.2813 -2.36328,0 -4.28125,-1.9102 -4.28125,-4.2813 0,-8.2422 5.25391,-15.539 13.08203,-18.1406 z m 75.8086,-24.3086 c -21.44922,1 -40.7461,-13.4805 -45.77344,-34.3594 l -22.125,3.1602 8.96875,7.0469 c 2.69922,2.121 4.41016,5.1601 4.81641,8.5703 0.91796,7.6523 -5.04688,14.3711 -12.75391,14.3711 -2.86328,0 -5.68359,-0.9805 -7.93359,-2.75 l -28.28907,-22.2305 -23.36718,3.332 c 11.3789,12.8477 18.30468,29.7188 18.30468,48.1875 0,40.1289 -32.64453,72.7813 -72.77734,72.7813 -40.125,0 -72.77344,-32.6524 -72.77344,-72.7813 0,-11.0976 2.50391,-21.6289 6.97266,-31.0508 l -13.51563,1.9297 -15.86718,27.5508 c -2.28907,3.9727 -6.55079,6.4414 -11.13282,6.4414 -5.60937,0 -10.83593,-3.7109 -12.39843,-9.5117 -0.89063,-3.3086 -0.44141,-6.7695 1.26953,-9.75 l 5.83593,-10.1289 -37.58203,5.3516 c 1.00391,21.4492 -13.47656,40.75 -34.35547,45.7773 l 17.57422,123.3008 c 21.44922,-1.0196 40.74219,13.4804 45.76563,34.3515 l 284.35156,-40.5117 c -1.02734,-21.4687 13.4375,-40.7695 34.35157,-45.7773 l -17.56641,-123.3008"
           id="path375"
           style="fill:#ffffff" />
        <path
           fill-rule="nonzero"
           fill="#100e0c"
           fill-opacity="1"
           d="m 807.10547,1392.9883 107.1289,84.1914 c 1.85547,1.4609 4.54688,1.1406 6.00391,-0.7188 1.46484,-1.8593 1.14063,-4.5507 -0.71875,-6.0117 l -107.125,-84.1875 c -1.85937,-1.4609 -4.55078,-1.1406 -6.01562,0.7188 -1.45704,1.8593 -1.13282,4.5508 0.72656,6.0078"
           id="path376"
           style="fill:#ffffff" />
        <path
           fill-rule="nonzero"
           fill="#100e0c"
           fill-opacity="1"
           d="m 696.49219,1509.5117 c 1.48047,0 2.92578,-0.7812 3.71484,-2.1523 l 62.39453,-108.3477 c 1.17969,-2.0508 0.47266,-4.6601 -1.57422,-5.8515 -2.04687,-1.1797 -4.66406,-0.4688 -5.84375,1.5781 l -62.39453,108.3398 c -1.65625,2.8828 0.45313,6.4336 3.70313,6.4336"
           id="path377"
           style="fill:#ffffff" />
      </g>
    </g>
  </g>
</svg>
