<?xml version="1.0" encoding="UTF-8" standalone="no"?>
<!-- Created with Inkscape (http://www.inkscape.org/) -->

<svg
   width="125mm"
   height="125mm"
   viewBox="0 0 125 125"
   version="1.1"
   id="svg1"
   inkscape:version="1.4.2 (f4327f4, 2025-05-13)"
   sodipodi:docname="brindis.svg"
   xmlns:inkscape="http://www.inkscape.org/namespaces/inkscape"
   xmlns:sodipodi="http://sodipodi.sourceforge.net/DTD/sodipodi-0.dtd"
   xmlns="http://www.w3.org/2000/svg"
   xmlns:svg="http://www.w3.org/2000/svg">
  <sodipodi:namedview
     id="namedview1"
     pagecolor="#505050"
     bordercolor="#eeeeee"
     borderopacity="1"
     inkscape:showpageshadow="0"
     inkscape:pageopacity="0"
     inkscape:pagecheckerboard="0"
     inkscape:deskcolor="#505050"
     inkscape:document-units="mm"
     inkscape:lockguides="true"
     inkscape:zoom="1.0167041"
     inkscape:cx="234.08975"
     inkscape:cy="149.01091"
     inkscape:window-width="1920"
     inkscape:window-height="1009"
     inkscape:window-x="-8"
     inkscape:window-y="-8"
     inkscape:window-maximized="1"
     inkscape:current-layer="g2" />
  <defs
     id="defs1" />
  <g
     inkscape:label="Capa 1"
     inkscape:groupmode="layer"
     id="layer1">
    <g
       id="g2">
      <path
         fill-rule="nonzero"
         fill="#171110"
         fill-opacity="1"
         d="m 8.3344836,96.773066 c -4.196811,-7.67292 -6.191947,-14.610945 -7.394167,-23.344269 -0.87585,-8.689461 -0.33993,-15.468196 1.815765,-23.931415 2.384812,-8.370108 5.329681,-14.441651 10.4234344,-21.43739 1.747919,-2.308571 3.471719,-4.307793 5.491726,-6.370885 4.106374,-4.077707 7.812497,-6.934178 12.763808,-9.885302 7.737861,-4.3570412 14.188351,-6.5478762 22.948304,-7.7437152 8.444121,-0.896495 15.010675,-0.397843 23.224158,1.770673 8.13736,2.405532 14.04967,5.3589642 20.84388,10.5063072 4.397288,3.502871 7.633098,6.757186 11.079168,11.217346 C 134.318,60.439238 118.5709,114.43209 80.648842,125.74409 119.67436,116.21508 135.21494,68.172951 116.3112,33.60595 111.632,25.609828 106.99123,20.26087 99.782484,14.536385 92.706382,9.2466788 86.589802,6.2347628 78.142672,3.7938358 c -0.59471,-0.161601 -1.18865,-0.314736 -1.78938,-0.458637 -7.89767,-1.780677 -14.180076,-2.153128 -22.205113,-1.223543 -9.034299,1.314347 -15.658143,3.581362 -23.588978,8.1438692 -7.820775,4.822604 -13.053224,9.485917 -18.60527,16.859493 -4.2216854,5.901476 -6.8145424,10.962634 -9.1805224,17.863721 -0.455262,1.394376 -0.856998,2.767977 -1.223307,4.187747 -2.068265,8.654064 -2.510715,15.543607 -1.441155,24.366967 1.07257,7.156568 2.662205,12.619417 5.720861,19.106501 0.02715,0.05541 3.489064,6.426292 2.504676,4.133112 z m -6.09925,-15.166542 c -0.006,-0.02539 -0.01196,-0.05155 -0.01959,-0.07695 l 0.01959,0.07695"
         id="path162"
         style="fill:#000000;stroke-width:0.194967" />
      <path
         fill-rule="evenodd"
         fill="#171110"
         fill-opacity="1"
         d="m 53.245401,110.12498 c 0,0 5.427665,7.87222 21.113708,2.62023 15.683014,-5.252 24.461051,0.31474 24.461051,0.31474 0,0 -6.111296,-5.98613 -18.699475,-3.77607 -12.586673,2.21009 -14.91572,7.40283 -26.875284,0.8411"
         id="path177"
         style="stroke-width:0.194967;fill:#000000" />
      <g
         id="g1"
         transform="translate(-5.5204465,-12.697026)"
         style="fill:#000000">
        <path
           fill-rule="evenodd"
           fill="#171110"
           fill-opacity="1"
           d="m 76.14304,126.3042 c 0,0 -5.427665,-7.87222 -21.111451,-2.62022 -15.685272,5.252 -24.461048,-0.31551 -24.461048,-0.31551 0,0 6.111311,5.98691 18.697966,3.77683 12.586674,-2.21085 14.91572,-7.40359 26.874533,-0.8411"
           id="path163"
           style="stroke-width:0.194967;fill:#000000" />
        <path
           fill-rule="evenodd"
           fill="#171110"
           fill-opacity="1"
           d="m 32.83628,124.69821 c -0.144718,0.18315 -2.99309,-0.37629 -5.040246,-2.08233 -2.047158,-1.70603 -2.604917,-3.84915 -2.604917,-3.84915 0,0 3.610395,1.90687 5.019136,3.27201 1.407987,1.36513 2.626027,2.65947 2.626027,2.65947"
           id="path164"
           style="stroke-width:0.194967;fill:#000000" />
        <path
           fill-rule="evenodd"
           fill="#171110"
           fill-opacity="1"
           d="m 38.099622,126.45196 c 0.02187,0.23008 -2.492597,1.05963 -5.227162,0.48633 -2.733814,-0.57329 -4.670908,-2.23623 -4.670908,-2.23623 0,0 4.03851,0.0215 6.054774,0.58945 2.018503,0.56714 3.843296,1.16045 3.843296,1.16045"
           id="path165"
           style="stroke-width:0.194967;fill:#000000" />
        <path
           fill-rule="evenodd"
           fill="#171110"
           fill-opacity="1"
           d="m 38.85638,126.19955 c -0.140955,0.18314 -2.99309,-0.34475 -5.065119,-2.03154 -2.072027,-1.68372 -2.664464,-3.8253 -2.664464,-3.8253 0,0 3.635289,1.86917 5.062861,3.22122 1.429829,1.35129 2.666722,2.63562 2.666722,2.63562"
           id="path166"
           style="stroke-width:0.194967;fill:#000000" />
        <path
           fill-rule="evenodd"
           fill="#171110"
           fill-opacity="1"
           d="m 42.71928,126.92598 c 0.137192,0.21546 -1.595657,1.86225 -4.229209,2.2247 -2.63583,0.36244 -5.144269,-0.59716 -5.144269,-0.59716 0,0 3.473224,-1.33359 5.490974,-1.46132 2.017016,-0.12851 3.882504,-0.16622 3.882504,-0.16622"
           id="path167"
           style="stroke-width:0.194967;fill:#000000" />
        <path
           fill-rule="evenodd"
           fill="#171110"
           fill-opacity="1"
           d="m 47.205527,126.67204 c 0.204265,0.18161 -0.76955,2.24394 -3.046596,3.24508 -2.277044,1.00269 -4.924182,0.65948 -4.924182,0.65948 0,0 2.684069,-2.17313 4.480227,-2.79106 1.798416,-0.6187 3.490551,-1.1135 3.490551,-1.1135"
           id="path168"
           style="stroke-width:0.194967;fill:#000000" />
        <path
           fill-rule="evenodd"
           fill="#171110"
           fill-opacity="1"
           d="m 50.709663,125.73476 c 0.247216,0.13774 -0.0019,2.40707 -1.802198,3.89071 -1.798416,1.48287 -4.376184,1.69603 -4.376184,1.69603 0,0 1.804436,-2.74027 3.282524,-3.73681 1.475812,-0.99884 2.895858,-1.84993 2.895858,-1.84993"
           id="path169"
           style="stroke-width:0.194967;fill:#000000" />
        <path
           fill-rule="evenodd"
           fill="#171110"
           fill-opacity="1"
           d="m 54.730846,124.84981 c 0.260801,0.12005 0.289436,2.42707 -1.300182,4.06617 -1.588132,1.63677 -4.095066,2.05847 -4.095066,2.05847 0,0 1.443414,-2.90572 2.773003,-4.03 1.331093,-1.1235 2.622245,-2.09464 2.622245,-2.09464"
           id="path170"
           style="stroke-width:0.194967;fill:#000000" />
        <path
           fill-rule="evenodd"
           fill="#171110"
           fill-opacity="1"
           d="m 57.895803,124.00103 c 0.275869,0.0823 0.806501,2.40552 -0.3633,4.2847 -1.169048,1.88149 -3.484531,2.66332 -3.484531,2.66332 0,0 0.752223,-3.13657 1.78485,-4.46016 1.034115,-1.32358 2.062981,-2.48786 2.062981,-2.48786"
           id="path171"
           style="stroke-width:0.194967;fill:#000000" />
        <path
           fill-rule="evenodd"
           fill="#171110"
           fill-opacity="1"
           d="m 42.977823,126.6528 c -0.140955,0.18314 -2.992337,-0.34475 -5.065117,-2.03154 -2.072029,-1.68603 -2.664465,-3.82761 -2.664465,-3.82761 0,0 3.635269,1.87148 5.06286,3.22276 1.42983,1.35205 2.666722,2.63639 2.666722,2.63639"
           id="path172"
           style="stroke-width:0.194967;fill:#000000" />
        <path
           fill-rule="evenodd"
           fill="#171110"
           fill-opacity="1"
           d="m 46.383956,126.53199 c -0.140935,0.18545 -2.99309,-0.34475 -5.065119,-2.02846 -2.07278,-1.68681 -2.665216,-3.82763 -2.665216,-3.82763 0,0 3.635289,1.86919 5.063613,3.22278 1.427572,1.35128 2.666722,2.63331 2.666722,2.63331"
           id="path173"
           style="stroke-width:0.194967;fill:#000000" />
        <path
           fill-rule="evenodd"
           fill="#171110"
           fill-opacity="1"
           d="m 49.39364,125.8879 c -0.140956,0.18314 -2.992338,-0.34475 -5.065119,-2.03078 -2.070524,-1.68602 -2.664464,-3.82761 -2.664464,-3.82761 0,0 3.635269,1.87148 5.065118,3.22277 1.427572,1.35128 2.664465,2.63562 2.664465,2.63562"
           id="path174"
           style="stroke-width:0.194967;fill:#000000" />
        <path
           fill-rule="evenodd"
           fill="#171110"
           fill-opacity="1"
           d="m 53.830142,124.58048 c -0.0701,0.21238 -2.89059,0.30857 -5.371899,-0.92266 -2.483568,-1.23124 -3.745313,-3.24201 -3.745313,-3.24201 0,0 3.994053,1.0735 5.769101,2.11157 1.773545,1.04041 3.348111,2.0531 3.348111,2.0531"
           id="path175"
           style="stroke-width:0.194967;fill:#000000" />
        <path
           fill-rule="evenodd"
           fill="#171110"
           fill-opacity="1"
           d="m 57.549831,123.65782 c -0.06934,0.21315 -2.890591,0.30935 -5.371881,-0.92189 -2.482815,-1.23125 -3.745332,-3.24201 -3.745332,-3.24201 0,0 3.994053,1.07349 5.769873,2.11158 1.772792,1.04039 3.34734,2.05232 3.34734,2.05232"
           id="path176"
           style="stroke-width:0.194967;fill:#000000" />
        <path
           fill-rule="evenodd"
           fill="#171110"
           fill-opacity="1"
           d="m 102.99343,124.60971 c 0.14472,-0.1816 2.99234,0.37784 5.04025,2.08387 2.04716,1.70449 2.60492,3.84993 2.60492,3.84993 0,0 -3.6104,-1.90687 -5.01914,-3.27279 -1.40874,-1.36512 -2.62603,-2.66101 -2.62603,-2.66101"
           id="path178"
           style="stroke-width:0.194967;fill:#000000" />
        <path
           fill-rule="evenodd"
           fill="#171110"
           fill-opacity="1"
           d="m 97.731595,122.85827 c -0.02337,-0.23008 2.492615,-1.06193 5.224905,-0.48864 2.73457,0.5733 4.67394,2.23778 4.67394,2.23778 0,0 -4.04079,-0.0231 -6.05704,-0.58869 -2.017012,-0.56714 -3.841805,-1.16045 -3.841805,-1.16045"
           id="path179"
           style="stroke-width:0.194967;fill:#000000" />
        <path
           fill-rule="evenodd"
           fill="#171110"
           fill-opacity="1"
           d="m 96.973332,123.11068 c 0.140955,-0.18314 2.992338,0.34475 5.065118,2.02924 2.07203,1.68603 2.66446,3.82761 2.66446,3.82761 0,0 -3.63526,-1.86994 -5.062856,-3.22123 -1.429829,-1.35359 -2.666722,-2.63562 -2.666722,-2.63562"
           id="path180"
           style="stroke-width:0.194967;fill:#000000" />
        <path
           fill-rule="evenodd"
           fill="#171110"
           fill-opacity="1"
           d="m 93.110432,122.38349 c -0.137192,-0.2147 1.595657,-1.86149 4.231487,-2.22393 2.633552,-0.36245 5.141991,0.59716 5.141991,0.59716 0,0 -3.473223,1.33126 -5.491725,1.45977 -2.016265,0.12929 -3.881753,0.167 -3.881753,0.167"
           id="path181"
           style="stroke-width:0.194967;fill:#000000" />
        <path
           fill-rule="evenodd"
           fill="#171110"
           fill-opacity="1"
           d="m 88.624185,122.63588 c -0.205017,-0.1816 0.771827,-2.24162 3.046596,-3.24508 2.277046,-1.00037 4.925688,-0.65793 4.925688,-0.65793 0,0 -2.684069,2.17313 -4.481733,2.79182 -1.798416,0.6187 -3.490551,1.11119 -3.490551,1.11119"
           id="path182"
           style="stroke-width:0.194967;fill:#000000" />
        <path
           fill-rule="evenodd"
           fill="#171110"
           fill-opacity="1"
           d="m 85.121554,123.57547 c -0.248721,-0.14005 0,-2.40706 1.800693,-3.89071 1.799921,-1.48364 4.377709,-1.69603 4.377709,-1.69603 0,0 -1.80596,2.73797 -3.284049,3.73681 -1.475812,0.99885 -2.894353,1.84993 -2.894353,1.84993"
           id="path183"
           style="stroke-width:0.194967;fill:#000000" />
        <path
           fill-rule="evenodd"
           fill="#171110"
           fill-opacity="1"
           d="m 81.098866,124.45965 c -0.2608,-0.12003 -0.28793,-2.42861 1.300202,-4.06539 1.589617,-1.63907 4.096552,-2.05924 4.096552,-2.05924 0,0 -1.445672,2.90572 -2.774507,4.03076 -1.32959,1.12274 -2.622247,2.09387 -2.622247,2.09387"
           id="path184"
           style="stroke-width:0.194967;fill:#000000" />
        <path
           fill-rule="evenodd"
           fill="#171110"
           fill-opacity="1"
           d="m 77.933911,125.30921 c -0.27587,-0.0846 -0.806503,-2.40553 0.362546,-4.2847 1.169801,-1.88148 3.486808,-2.66333 3.486808,-2.66333 0,0 -0.7545,3.13581 -1.786375,4.45939 -1.032609,1.32435 -2.062979,2.48864 -2.062979,2.48864"
           id="path185"
           style="stroke-width:0.194967;fill:#000000" />
        <path
           fill-rule="evenodd"
           fill="#171110"
           fill-opacity="1"
           d="m 92.851136,122.65744 c 0.140955,-0.18315 2.99309,0.34474 5.065119,2.03076 2.072781,1.68449 2.665215,3.82762 2.665215,3.82762 0,0 -3.635267,-1.87148 -5.063611,-3.22277 -1.42983,-1.35128 -2.666723,-2.63561 -2.666723,-2.63561"
           id="path186"
           style="stroke-width:0.194967;fill:#000000" />
        <path
           fill-rule="evenodd"
           fill="#171110"
           fill-opacity="1"
           d="m 89.448014,122.77595 c 0.138697,-0.18392 2.990832,0.34474 5.062861,2.03076 2.07278,1.68604 2.666721,3.82762 2.666721,3.82762 0,0 -3.635268,-1.86917 -5.065117,-3.22277 -1.427573,-1.35129 -2.664465,-2.63561 -2.664465,-2.63561"
           id="path187"
           style="stroke-width:0.194967;fill:#000000" />
        <path
           fill-rule="evenodd"
           fill="#171110"
           fill-opacity="1"
           d="m 86.43532,123.42156 c 0.140955,-0.18314 2.99309,0.34476 5.065119,2.03156 2.072781,1.68371 2.665217,3.8253 2.665217,3.8253 0,0 -3.63527,-1.86918 -5.063614,-3.22046 -1.429829,-1.35205 -2.666722,-2.6364 -2.666722,-2.6364"
           id="path188"
           style="stroke-width:0.194967;fill:#000000" />
        <path
           fill-rule="evenodd"
           fill="#171110"
           fill-opacity="1"
           d="m 81.99957,124.72976 c 0.06934,-0.21469 2.890591,-0.30935 5.374158,0.92189 2.481309,1.23124 3.743054,3.24277 3.743054,3.24277 0,0 -3.994052,-1.07348 -5.767596,-2.11388 -1.77505,-1.03808 -3.349616,-2.05078 -3.349616,-2.05078"
           id="path189"
           style="stroke-width:0.194967;fill:#000000" />
        <path
           fill-rule="evenodd"
           fill="#171110"
           fill-opacity="1"
           d="m 78.27913,125.65165 c 0.0701,-0.21239 2.89059,-0.30935 5.374157,0.92189 2.481291,1.23123 3.743055,3.24278 3.743055,3.24278 0,0 -3.994053,-1.07349 -5.766844,-2.11388 -1.775802,-1.03809 -3.350368,-2.05079 -3.350368,-2.05079"
           id="path190"
           style="stroke-width:0.194967;fill:#000000" />
      </g>
      <g
         id="g6"
         transform="translate(-36.953558,-12.751579)"
         style="fill:#000000">
        <g
           id="g4"
           transform="translate(16.849316,-1.8940454)"
           style="fill:#000000">
          <g
             id="g2199"
             transform="matrix(0.71794098,0,0,0.65032649,-604.15113,-61.713875)"
             style="fill:#000000">
			<g
   id="g5"
   style="fill:#000000">
  <g
     id="g2194"
     style="fill:#000000">
				<path
   class="st348"
   d="m 979.1,259 c -5.7,-0.4 -8.7,-5.4 -11.2,-9.9 -3,-5.3 -5.9,-10.6 -8,-16.3 0,-0.1 -0.1,-0.2 -0.2,-0.3 0.5,-0.8 1,-1.7 1.4,-2.5 3.8,0.7 7.1,0.3 10.5,-2.1 4.4,-3.1 6.8,-8.5 9.2,-13.2 3,-6 5.9,-12.1 8.6,-18.3 2.9,-7 7.1,-14.7 8.5,-22.2 0.1,-0.4 -0.4,-0.7 -0.7,-0.5 -0.1,-0.7 -0.6,-1.6 -1.6,-2.7 0,0 -0.1,-0.1 -0.1,-0.1 -2.5,-3.3 -6.3,-5.5 -10,-7.2 -4.2,-1.9 -11.7,-4.6 -16.4,-2.4 -0.2,-0.2 -0.6,-0.2 -0.8,0.1 -4.1,6.6 -6.6,14.6 -9.6,21.7 -0.8,1.9 -1.5,3.9 -2.3,5.8 -0.8,-4 -2.9,-7.8 -4.4,-11.5 -2,-4.9 -3.6,-10 -5.6,-14.9 0.3,-0.3 0.2,-0.7 -0.1,-1 0,-0.1 -0.1,-0.2 -0.2,-0.2 -5.7,-5.2 -13.5,-3.3 -19.9,-0.6 -4.8,2 -12,5.6 -11.9,11.7 0,0.1 0,0.1 0,0.2 0.5,3.5 2.4,6.6 3.6,9.9 1.5,4.4 3.1,8.7 4.8,13.1 3,7.7 6.1,15.4 9.1,23.2 2.7,7.2 8.3,19.9 18.1,16.5 -2.2,4.2 -4.2,8.5 -6.7,12.5 -2.5,3.9 -4.8,7.8 -9.9,7.8 -2.6,0 -5.3,-0.8 -7.9,-0.3 -8.6,1.5 2.9,11.1 5.4,13.1 5.4,4.3 11.5,8.5 18.5,9.7 1.9,0.3 5.3,0.2 6.7,-1.5 0.1,0.1 0.1,0.2 0.3,0.2 6.9,2.5 15.2,-2.4 21.6,-4.8 3.4,-1.3 13.2,-5.3 11.6,-10.5 -1.3,-2.9 -8.2,-2.4 -10.4,-2.5 z m -9.7,-96.8 c 4.4,0.7 8.7,0.6 13.1,2.1 5.1,1.7 10,4.8 13.1,9.3 -0.9,1.6 -5.7,1.2 -7.3,1 -2.3,-0.2 -4.5,-1.4 -6.6,-2.3 -2.9,-1.4 -13.3,-5.8 -12.3,-10.1 z m -43.8,0.3 c 6,-2.8 13.1,-4.5 18.8,-0.4 -4,3.2 -7.3,7 -12.2,9 -5.6,2.3 -11.2,1.9 -17,1 0.8,-4.9 6.4,-7.7 10.4,-9.6 z m 5.3,50.7 c -5.2,-13.4 -10.6,-26.8 -15.9,-40.1 10.6,5.8 22.3,-2 30,-9.3 3.1,8.9 6,18.4 10.6,26.7 -0.6,1.4 -1.1,2.9 -1.7,4.3 -1.1,-2.2 -1.8,-4.6 -2.9,-6.9 -0.6,-1.3 -1.2,-2.6 -1.8,-3.8 -0.3,-0.5 -0.8,-0.8 -1.1,-1.2 0,-0.1 -0.1,0 -0.1,0.1 0.1,0.5 0,1 0.2,1.6 0.5,1.2 1,2.4 1.5,3.6 1.1,2.6 2.5,5.1 3.9,7.5 0,0 0,0 0,0.1 -1.4,3.4 -2.7,6.7 -4,10.1 -3,7.5 -3.7,18.1 4.7,21.5 -1.6,2.4 -2.9,5 -4.3,7.6 -11.8,-0.6 -15.4,-12.4 -19.1,-21.8 z m 19.3,63.4 c -7,-0.2 -13.7,-5.3 -19,-9.5 -2.8,-2.2 -5.7,-4.7 -7.5,-7.8 -1.9,-3.4 6.1,-2.3 7.2,-2.2 2,0.2 3.9,0.2 5.9,-0.5 4.3,-1.4 6.9,-7.2 9,-10.7 3.5,-5.7 7.3,-12 9.1,-18.5 0.3,0.1 0.7,0.2 1,0.3 0.4,0.1 0.7,-0.5 0.3,-0.7 -5.2,-3.2 -7.8,-6.6 -7.3,-12.9 0.4,-4.9 2.5,-9.8 4.4,-14.2 2.7,-6.5 5.3,-13.1 8,-19.6 2.2,-5.3 4.8,-10.5 6.8,-15.8 2,4.1 13.2,9.5 14.8,10.2 2.4,1 10.2,2.2 13,0.7 -2.2,3.9 -3.5,8.5 -5.1,12.6 -2.5,6.3 -5,12.6 -7.9,18.8 -2.3,5 -4.9,10 -7.9,14.7 -1.9,2.9 -4.5,5.6 -7.8,6.9 -2.5,1 -5.6,0.2 -8.2,0.1 -0.6,0 -0.7,0.9 -0.1,1.1 0.1,0 0.2,0.1 0.3,0.1 -5.6,10.1 -13.8,19.1 -11.9,31.6 0.4,2.7 1.7,5.2 3.1,7.5 0.4,0.6 0.9,1.2 1.4,1.7 0.8,0.8 1.4,1.6 2,2.4 -0.3,2.8 -1.5,4 -3.6,3.7 z m 5.6,-4.2 c -0.7,-1.6 -2,-2.8 -3.2,-4.2 -3.8,-4.2 -4.2,-10.6 -3.1,-15.9 1,-5.1 3.6,-9.4 6.3,-13.7 1.9,5.5 4.4,10.8 6,16.5 1.9,7.1 -1.3,12.6 -6,17.3 z m 23.7,-2.9 c -6.5,3.1 -16,7.6 -23.3,6.3 0,0 0,0 -0.1,0 0.2,-0.5 0.2,-1 0.2,-1.6 4.5,-3.8 7.4,-9 7.6,-14.9 0.1,-3.6 -1.6,-7.5 -2.9,-10.9 -1.3,-3.6 -2.9,-7.2 -4.9,-10.5 1,-1.5 1.9,-3 2.8,-4.5 1.9,7.1 5.6,13.7 9.5,19.9 2.6,4.2 6.3,6.9 11.3,7.3 2,0.1 4.1,0.1 6.1,0.5 5.5,1.2 -4.9,7.7 -6.3,8.4 z"
   id="path2194"
   style="fill:#000000" />

			</g>
</g>

			<g
   id="g2195"
   style="fill:#000000">
				<path
   class="st348"
   d="m 955.4,202.2 c 2.8,-7.9 6.9,-15.1 10.1,-22.8 0.1,-0.2 -0.3,-0.4 -0.4,-0.2 -6,7.1 -8.8,17.2 -11.8,25.9 -2,5.7 -4.1,14.5 2.7,17.9 0.6,0.3 1.2,-0.4 0.7,-0.9 -6,-5.7 -3.7,-13 -1.3,-19.9 z"
   id="path2195"
   style="fill:#000000" />

			</g>

			<g
   id="g2196"
   style="fill:#000000">
				<path
   class="st348"
   d="m 985.8,189.6 c -2.5,5.2 -15,39.8 -23.3,34.2 -0.3,-0.2 -0.6,0.2 -0.4,0.5 8.3,8.2 22.9,-28.7 24.4,-34.3 0.3,-0.5 -0.5,-0.8 -0.7,-0.4 z"
   id="path2196"
   style="fill:#000000" />

			</g>

			<g
   id="g2197"
   style="fill:#000000">
				<path
   class="st348"
   d="m 968.6,182.7 c -1.1,-1.2 -2.2,-3.3 0.3,-3.4 1.9,-0.1 3.9,0.8 5.6,1.4 3.6,1.3 6.9,3.4 10,5.6 0.4,0.3 0.9,-0.4 0.5,-0.7 -3.5,-3.1 -7.8,-5.3 -12.2,-6.7 -1.9,-0.6 -6.2,-1.9 -7.1,0.9 -0.8,2.5 3.4,5.7 5,6.8 3.9,2.8 9.5,2.9 14.1,3.7 0.3,0 0.5,-0.3 0.2,-0.5 -5.4,-3.2 -11.6,-2.3 -16.4,-7.1 z"
   id="path2197"
   style="fill:#000000" />

			</g>

			<g
   id="g2198"
   style="fill:#000000">
				<path
   class="st348"
   d="m 950.2,230.3 c -7.6,-1.5 -10.9,-6.8 -14,-13.6 -1.9,-4.1 -3.7,-8.4 -5.3,-12.6 -1.7,-4.2 -2.3,-9 -4.6,-13 0.1,0 0.1,0 0.2,0 2.5,-1.8 5.1,-3.5 7.8,-5 2.6,-1.5 9,-5.1 11.9,-2.6 2.5,2 -7.1,5.9 -8,6.3 -2.7,1 -6.4,2.4 -9.3,2 -0.9,-0.1 -1.3,1.2 -0.4,1.4 4,1.2 9.2,-1.2 12.7,-2.8 2.3,-1 7.6,-3.5 6.6,-6.9 -2.1,-7.1 -19.5,4.2 -21.7,7.1 0,0 0,0.1 0,0.1 -0.3,-0.3 -1,-0.1 -0.8,0.4 2.1,5.4 3.2,11.1 5.4,16.5 1.7,4.2 3.6,8.5 5.7,12.6 2.3,4.5 7.6,13.5 13.9,10.7 0.3,-0.1 0.2,-0.6 -0.1,-0.6 z"
   id="path2198"
   style="fill:#000000" />

			</g>

		</g>
        </g>
      </g>
    </g>
    <path
       fill-rule="evenodd"
       fill="#171110"
       fill-opacity="1"
       d="m 44.893827,10.998786 c -0.14246,-1.4343916 -1.395175,-2.477865 -2.79938,-2.332425 -1.404976,0.143901 -2.427802,1.424389 -2.284589,2.85878 0.140954,1.433623 1.395173,2.477865 2.799379,2.332425 1.402719,-0.146207 2.427803,-1.424387 2.28459,-2.85878"
       id="path193"
       style="stroke-width:0.194967" />
    <path
       fill-rule="evenodd"
       fill="#171110"
       fill-opacity="1"
       d="m 37.198919,14.538595 c -0.125132,-1.260478 -1.22709,-2.18006 -2.462477,-2.052318 -1.234616,0.12774 -2.136091,1.252783 -2.010206,2.514032 0.125114,1.260481 1.227071,2.178522 2.461706,2.052319 1.235367,-0.127738 2.13609,-1.255091 2.010977,-2.514033"
       id="path194"
       style="stroke-width:0.194967" />
    <path
       fill-rule="evenodd"
       fill="#171110"
       fill-opacity="1"
       d="m 30.324078,18.839464 c -0.106278,-1.073485 -1.046193,-1.856092 -2.097654,-1.747588 -1.05148,0.108501 -1.81802,1.068099 -1.709483,2.141584 0.106279,1.073484 1.043918,1.855321 2.095397,1.747588 1.051461,-0.108502 1.817248,-1.0681 1.71174,-2.141584"
       id="path195"
       style="stroke-width:0.194967" />
    <path
       fill-rule="evenodd"
       fill="#171110"
       fill-opacity="1"
       d="m 78.773581,10.981088 c 0.140955,-1.4343918 1.392899,-2.4801741 2.797875,-2.3362731 1.402701,0.1438995 2.427031,1.4220791 2.288354,2.8564721 -0.140955,1.434392 -1.395175,2.480174 -2.797875,2.336272 -1.404978,-0.143901 -2.429309,-1.422079 -2.288354,-2.856471"
       id="path201"
       style="stroke-width:0.194967" />
    <path
       fill-rule="evenodd"
       fill="#171110"
       fill-opacity="1"
       d="m 86.472252,14.511663 c 0.123627,-1.26125 1.225585,-2.180831 2.4602,-2.054628 1.235388,0.127742 2.136091,1.250474 2.012483,2.511725 -0.125114,1.262787 -1.224813,2.180059 -2.4602,2.054628 -1.234615,-0.126202 -2.13609,-1.251246 -2.012483,-2.511725"
       id="path202"
       style="stroke-width:0.194967" />
    <path
       fill-rule="evenodd"
       fill="#171110"
       fill-opacity="1"
       d="m 93.351628,18.805604 c 0.10401,-1.073486 1.041658,-1.855322 2.095397,-1.749128 1.05146,0.108504 1.817248,1.065792 1.710967,2.139277 -0.103999,1.074254 -1.041658,1.85609 -2.093119,1.749896 -1.051461,-0.108503 -1.819526,-1.065789 -1.713245,-2.140045"
       id="path203"
       style="stroke-width:0.194967" />
    <path
       fill-rule="evenodd"
       fill="#171110"
       fill-opacity="1"
       d="m 100.21065,24.615508 c 0.0949,-0.951901 0.92482,-1.642934 1.85418,-1.548282 0.93011,0.09465 1.60999,0.941128 1.51728,1.893029 -0.0927,0.949591 -0.92485,1.642932 -1.85496,1.545971 -0.92935,-0.09388 -1.60922,-0.941126 -1.5165,-1.890718"
       id="path204"
       style="stroke-width:0.194967" />
    <path
       fill-rule="evenodd"
       fill="#171110"
       fill-opacity="1"
       d="m 106.19457,31.084892 c 0.0671,-0.685645 0.6678,-1.188144 1.34089,-1.118888 0.67385,0.06849 1.16377,0.6818 1.09594,1.368984 -0.0671,0.685646 -0.66782,1.188144 -1.33864,1.118887 -0.67384,-0.06849 -1.16604,-0.681798 -1.09819,-1.368983"
       id="path205"
       style="stroke-width:0.194967" />
    <path
       fill-rule="evenodd"
       fill="#171110"
       fill-opacity="1"
       d="m 110.71774,37.308032 c 0.0422,-0.429395 0.41832,-0.742593 0.83891,-0.701038 0.42059,0.04309 0.72737,0.427086 0.68515,0.85648 -0.0422,0.429395 -0.41681,0.742591 -0.83965,0.699498 -0.42059,-0.04309 -0.72737,-0.425548 -0.68441,-0.85494"
       id="path206"
       style="stroke-width:0.194967" />
  </g>
</svg>
