<?xml version="1.0" encoding="UTF-8" standalone="no"?>
<!-- Created with Inkscape (http://www.inkscape.org/) -->

<svg
   width="125mm"
   height="125mm"
   viewBox="0 0 125 125"
   version="1.1"
   id="svg1"
   inkscape:version="1.4.2 (f4327f4, 2025-05-13)"
   sodipodi:docname="ceremonia.svg"
   xmlns:inkscape="http://www.inkscape.org/namespaces/inkscape"
   xmlns:sodipodi="http://sodipodi.sourceforge.net/DTD/sodipodi-0.dtd"
   xmlns="http://www.w3.org/2000/svg"
   xmlns:svg="http://www.w3.org/2000/svg">
  <sodipodi:namedview
     id="namedview1"
     pagecolor="#505050"
     bordercolor="#eeeeee"
     borderopacity="1"
     inkscape:showpageshadow="0"
     inkscape:pageopacity="0"
     inkscape:pagecheckerboard="0"
     inkscape:deskcolor="#505050"
     inkscape:document-units="mm"
     inkscape:lockguides="true"
     inkscape:zoom="0.71891835"
     inkscape:cx="-215.60167"
     inkscape:cy="110.58279"
     inkscape:window-width="1920"
     inkscape:window-height="1009"
     inkscape:window-x="-8"
     inkscape:window-y="-8"
     inkscape:window-maximized="1"
     inkscape:current-layer="g2" />
  <defs
     id="defs1" />
  <g
     inkscape:label="Capa 1"
     inkscape:groupmode="layer"
     id="layer1">
    <g
       id="g2">
      <path
         fill-rule="nonzero"
         fill="#171110"
         fill-opacity="1"
         d="m 8.9705702,95.455249 c -4.196811,-7.67292 -6.191947,-14.610945 -7.394165,-23.344269 -0.87585,-8.689461 -0.339932,-15.468196 1.815763,-23.931415 2.384812,-8.370108 5.329681,-14.441651 10.4234338,-21.43739 1.747919,-2.308571 3.471719,-4.307793 5.491726,-6.370885 4.106374,-4.077707 7.812497,-6.934178 12.763808,-9.885302 7.737861,-4.3570418 14.188351,-6.5478768 22.948304,-7.7437158 8.444121,-0.896495 15.010675,-0.397843 23.224158,1.770673 8.13736,2.405532 14.04967,5.358964 20.84388,10.5063078 4.397292,3.502871 7.633102,6.757186 11.079172,11.217346 24.78744,32.884822 9.04034,86.877671 -28.881722,98.189671 39.025522,-9.52901 54.566102,-57.571136 35.662362,-92.138137 -4.6792,-7.996122 -9.31997,-13.34508 -16.52872,-19.069565 C 93.342468,7.9288612 87.225888,4.9169452 78.778758,2.4760182 78.184048,2.3144172 77.590108,2.1612822 76.989378,2.0173812 69.091708,0.23670418 62.809302,-0.13574682 54.784265,0.79383818 45.749966,2.1081852 39.126122,4.3752002 31.195287,8.9377072 23.374512,13.760312 18.142063,18.423625 12.590017,25.797201 8.3683322,31.698677 5.7754752,36.759835 3.4094952,43.660922 c -0.455262,1.394376 -0.856998,2.767977 -1.223307,4.187747 -2.068266,8.654064 -2.510717,15.543607 -1.441156,24.366967 1.07257,7.156568 2.662206,12.619417 5.720862,19.106501 0.02715,0.05541 3.489064,6.426292 2.504676,4.133112 z m -6.09925,-15.166542 c -0.006,-0.02539 -0.01196,-0.05155 -0.01959,-0.07695 l 0.01959,0.07695"
         id="path162"
         style="stroke-width:0.194967;fill:#000000" />
      <path
         fill-rule="evenodd"
         fill="#171110"
         fill-opacity="1"
         d="m 53.245401,110.12498 c 0,0 5.427665,7.87222 21.113708,2.62023 15.683014,-5.252 24.461051,0.31474 24.461051,0.31474 0,0 -6.111296,-5.98613 -18.699475,-3.77607 -12.586673,2.21009 -14.91572,7.40283 -26.875284,0.8411"
         id="path177"
         style="stroke-width:0.194967;fill:#000000" />
      <g
         id="g1"
         transform="translate(-5.5204465,-12.697026)"
         style="fill:#000000">
        <path
           fill-rule="evenodd"
           fill="#171110"
           fill-opacity="1"
           d="m 76.14304,126.3042 c 0,0 -5.427665,-7.87222 -21.111451,-2.62022 -15.685272,5.252 -24.461048,-0.31551 -24.461048,-0.31551 0,0 6.111311,5.98691 18.697966,3.77683 12.586674,-2.21085 14.91572,-7.40359 26.874533,-0.8411"
           id="path163"
           style="stroke-width:0.194967;fill:#000000" />
        <path
           fill-rule="evenodd"
           fill="#171110"
           fill-opacity="1"
           d="m 32.83628,124.69821 c -0.144718,0.18315 -2.99309,-0.37629 -5.040246,-2.08233 -2.047158,-1.70603 -2.604917,-3.84915 -2.604917,-3.84915 0,0 3.610395,1.90687 5.019136,3.27201 1.407987,1.36513 2.626027,2.65947 2.626027,2.65947"
           id="path164"
           style="stroke-width:0.194967;fill:#000000" />
        <path
           fill-rule="evenodd"
           fill="#171110"
           fill-opacity="1"
           d="m 38.099622,126.45196 c 0.02187,0.23008 -2.492597,1.05963 -5.227162,0.48633 -2.733814,-0.57329 -4.670908,-2.23623 -4.670908,-2.23623 0,0 4.03851,0.0215 6.054774,0.58945 2.018503,0.56714 3.843296,1.16045 3.843296,1.16045"
           id="path165"
           style="stroke-width:0.194967;fill:#000000" />
        <path
           fill-rule="evenodd"
           fill="#171110"
           fill-opacity="1"
           d="m 38.85638,126.19955 c -0.140955,0.18314 -2.99309,-0.34475 -5.065119,-2.03154 -2.072027,-1.68372 -2.664464,-3.8253 -2.664464,-3.8253 0,0 3.635289,1.86917 5.062861,3.22122 1.429829,1.35129 2.666722,2.63562 2.666722,2.63562"
           id="path166"
           style="stroke-width:0.194967;fill:#000000" />
        <path
           fill-rule="evenodd"
           fill="#171110"
           fill-opacity="1"
           d="m 42.71928,126.92598 c 0.137192,0.21546 -1.595657,1.86225 -4.229209,2.2247 -2.63583,0.36244 -5.144269,-0.59716 -5.144269,-0.59716 0,0 3.473224,-1.33359 5.490974,-1.46132 2.017016,-0.12851 3.882504,-0.16622 3.882504,-0.16622"
           id="path167"
           style="stroke-width:0.194967;fill:#000000" />
        <path
           fill-rule="evenodd"
           fill="#171110"
           fill-opacity="1"
           d="m 47.205527,126.67204 c 0.204265,0.18161 -0.76955,2.24394 -3.046596,3.24508 -2.277044,1.00269 -4.924182,0.65948 -4.924182,0.65948 0,0 2.684069,-2.17313 4.480227,-2.79106 1.798416,-0.6187 3.490551,-1.1135 3.490551,-1.1135"
           id="path168"
           style="stroke-width:0.194967;fill:#000000" />
        <path
           fill-rule="evenodd"
           fill="#171110"
           fill-opacity="1"
           d="m 50.709663,125.73476 c 0.247216,0.13774 -0.0019,2.40707 -1.802198,3.89071 -1.798416,1.48287 -4.376184,1.69603 -4.376184,1.69603 0,0 1.804436,-2.74027 3.282524,-3.73681 1.475812,-0.99884 2.895858,-1.84993 2.895858,-1.84993"
           id="path169"
           style="stroke-width:0.194967;fill:#000000" />
        <path
           fill-rule="evenodd"
           fill="#171110"
           fill-opacity="1"
           d="m 54.730846,124.84981 c 0.260801,0.12005 0.289436,2.42707 -1.300182,4.06617 -1.588132,1.63677 -4.095066,2.05847 -4.095066,2.05847 0,0 1.443414,-2.90572 2.773003,-4.03 1.331093,-1.1235 2.622245,-2.09464 2.622245,-2.09464"
           id="path170"
           style="stroke-width:0.194967;fill:#000000" />
        <path
           fill-rule="evenodd"
           fill="#171110"
           fill-opacity="1"
           d="m 57.895803,124.00103 c 0.275869,0.0823 0.806501,2.40552 -0.3633,4.2847 -1.169048,1.88149 -3.484531,2.66332 -3.484531,2.66332 0,0 0.752223,-3.13657 1.78485,-4.46016 1.034115,-1.32358 2.062981,-2.48786 2.062981,-2.48786"
           id="path171"
           style="stroke-width:0.194967;fill:#000000" />
        <path
           fill-rule="evenodd"
           fill="#171110"
           fill-opacity="1"
           d="m 42.977823,126.6528 c -0.140955,0.18314 -2.992337,-0.34475 -5.065117,-2.03154 -2.072029,-1.68603 -2.664465,-3.82761 -2.664465,-3.82761 0,0 3.635269,1.87148 5.06286,3.22276 1.42983,1.35205 2.666722,2.63639 2.666722,2.63639"
           id="path172"
           style="stroke-width:0.194967;fill:#000000" />
        <path
           fill-rule="evenodd"
           fill="#171110"
           fill-opacity="1"
           d="m 46.383956,126.53199 c -0.140935,0.18545 -2.99309,-0.34475 -5.065119,-2.02846 -2.07278,-1.68681 -2.665216,-3.82763 -2.665216,-3.82763 0,0 3.635289,1.86919 5.063613,3.22278 1.427572,1.35128 2.666722,2.63331 2.666722,2.63331"
           id="path173"
           style="stroke-width:0.194967;fill:#000000" />
        <path
           fill-rule="evenodd"
           fill="#171110"
           fill-opacity="1"
           d="m 49.39364,125.8879 c -0.140956,0.18314 -2.992338,-0.34475 -5.065119,-2.03078 -2.070524,-1.68602 -2.664464,-3.82761 -2.664464,-3.82761 0,0 3.635269,1.87148 5.065118,3.22277 1.427572,1.35128 2.664465,2.63562 2.664465,2.63562"
           id="path174"
           style="stroke-width:0.194967;fill:#000000" />
        <path
           fill-rule="evenodd"
           fill="#171110"
           fill-opacity="1"
           d="m 53.830142,124.58048 c -0.0701,0.21238 -2.89059,0.30857 -5.371899,-0.92266 -2.483568,-1.23124 -3.745313,-3.24201 -3.745313,-3.24201 0,0 3.994053,1.0735 5.769101,2.11157 1.773545,1.04041 3.348111,2.0531 3.348111,2.0531"
           id="path175"
           style="stroke-width:0.194967;fill:#000000" />
        <path
           fill-rule="evenodd"
           fill="#171110"
           fill-opacity="1"
           d="m 57.549831,123.65782 c -0.06934,0.21315 -2.890591,0.30935 -5.371881,-0.92189 -2.482815,-1.23125 -3.745332,-3.24201 -3.745332,-3.24201 0,0 3.994053,1.07349 5.769873,2.11158 1.772792,1.04039 3.34734,2.05232 3.34734,2.05232"
           id="path176"
           style="stroke-width:0.194967;fill:#000000" />
        <path
           fill-rule="evenodd"
           fill="#171110"
           fill-opacity="1"
           d="m 102.99343,124.60971 c 0.14472,-0.1816 2.99234,0.37784 5.04025,2.08387 2.04716,1.70449 2.60492,3.84993 2.60492,3.84993 0,0 -3.6104,-1.90687 -5.01914,-3.27279 -1.40874,-1.36512 -2.62603,-2.66101 -2.62603,-2.66101"
           id="path178"
           style="stroke-width:0.194967;fill:#000000" />
        <path
           fill-rule="evenodd"
           fill="#171110"
           fill-opacity="1"
           d="m 97.731595,122.85827 c -0.02337,-0.23008 2.492615,-1.06193 5.224905,-0.48864 2.73457,0.5733 4.67394,2.23778 4.67394,2.23778 0,0 -4.04079,-0.0231 -6.05704,-0.58869 -2.017012,-0.56714 -3.841805,-1.16045 -3.841805,-1.16045"
           id="path179"
           style="stroke-width:0.194967;fill:#000000" />
        <path
           fill-rule="evenodd"
           fill="#171110"
           fill-opacity="1"
           d="m 96.973332,123.11068 c 0.140955,-0.18314 2.992338,0.34475 5.065118,2.02924 2.07203,1.68603 2.66446,3.82761 2.66446,3.82761 0,0 -3.63526,-1.86994 -5.062856,-3.22123 -1.429829,-1.35359 -2.666722,-2.63562 -2.666722,-2.63562"
           id="path180"
           style="stroke-width:0.194967;fill:#000000" />
        <path
           fill-rule="evenodd"
           fill="#171110"
           fill-opacity="1"
           d="m 93.110432,122.38349 c -0.137192,-0.2147 1.595657,-1.86149 4.231487,-2.22393 2.633552,-0.36245 5.141991,0.59716 5.141991,0.59716 0,0 -3.473223,1.33126 -5.491725,1.45977 -2.016265,0.12929 -3.881753,0.167 -3.881753,0.167"
           id="path181"
           style="stroke-width:0.194967;fill:#000000" />
        <path
           fill-rule="evenodd"
           fill="#171110"
           fill-opacity="1"
           d="m 88.624185,122.63588 c -0.205017,-0.1816 0.771827,-2.24162 3.046596,-3.24508 2.277046,-1.00037 4.925688,-0.65793 4.925688,-0.65793 0,0 -2.684069,2.17313 -4.481733,2.79182 -1.798416,0.6187 -3.490551,1.11119 -3.490551,1.11119"
           id="path182"
           style="stroke-width:0.194967;fill:#000000" />
        <path
           fill-rule="evenodd"
           fill="#171110"
           fill-opacity="1"
           d="m 85.121554,123.57547 c -0.248721,-0.14005 0,-2.40706 1.800693,-3.89071 1.799921,-1.48364 4.377709,-1.69603 4.377709,-1.69603 0,0 -1.80596,2.73797 -3.284049,3.73681 -1.475812,0.99885 -2.894353,1.84993 -2.894353,1.84993"
           id="path183"
           style="stroke-width:0.194967;fill:#000000" />
        <path
           fill-rule="evenodd"
           fill="#171110"
           fill-opacity="1"
           d="m 81.098866,124.45965 c -0.2608,-0.12003 -0.28793,-2.42861 1.300202,-4.06539 1.589617,-1.63907 4.096552,-2.05924 4.096552,-2.05924 0,0 -1.445672,2.90572 -2.774507,4.03076 -1.32959,1.12274 -2.622247,2.09387 -2.622247,2.09387"
           id="path184"
           style="stroke-width:0.194967;fill:#000000" />
        <path
           fill-rule="evenodd"
           fill="#171110"
           fill-opacity="1"
           d="m 77.933911,125.30921 c -0.27587,-0.0846 -0.806503,-2.40553 0.362546,-4.2847 1.169801,-1.88148 3.486808,-2.66333 3.486808,-2.66333 0,0 -0.7545,3.13581 -1.786375,4.45939 -1.032609,1.32435 -2.062979,2.48864 -2.062979,2.48864"
           id="path185"
           style="stroke-width:0.194967;fill:#000000" />
        <path
           fill-rule="evenodd"
           fill="#171110"
           fill-opacity="1"
           d="m 92.851136,122.65744 c 0.140955,-0.18315 2.99309,0.34474 5.065119,2.03076 2.072781,1.68449 2.665215,3.82762 2.665215,3.82762 0,0 -3.635267,-1.87148 -5.063611,-3.22277 -1.42983,-1.35128 -2.666723,-2.63561 -2.666723,-2.63561"
           id="path186"
           style="stroke-width:0.194967;fill:#000000" />
        <path
           fill-rule="evenodd"
           fill="#171110"
           fill-opacity="1"
           d="m 89.448014,122.77595 c 0.138697,-0.18392 2.990832,0.34474 5.062861,2.03076 2.07278,1.68604 2.666721,3.82762 2.666721,3.82762 0,0 -3.635268,-1.86917 -5.065117,-3.22277 -1.427573,-1.35129 -2.664465,-2.63561 -2.664465,-2.63561"
           id="path187"
           style="stroke-width:0.194967;fill:#000000" />
        <path
           fill-rule="evenodd"
           fill="#171110"
           fill-opacity="1"
           d="m 86.43532,123.42156 c 0.140955,-0.18314 2.99309,0.34476 5.065119,2.03156 2.072781,1.68371 2.665217,3.8253 2.665217,3.8253 0,0 -3.63527,-1.86918 -5.063614,-3.22046 -1.429829,-1.35205 -2.666722,-2.6364 -2.666722,-2.6364"
           id="path188"
           style="stroke-width:0.194967;fill:#000000" />
        <path
           fill-rule="evenodd"
           fill="#171110"
           fill-opacity="1"
           d="m 81.99957,124.72976 c 0.06934,-0.21469 2.890591,-0.30935 5.374158,0.92189 2.481309,1.23124 3.743054,3.24277 3.743054,3.24277 0,0 -3.994052,-1.07348 -5.767596,-2.11388 -1.77505,-1.03808 -3.349616,-2.05078 -3.349616,-2.05078"
           id="path189"
           style="stroke-width:0.194967;fill:#000000" />
        <path
           fill-rule="evenodd"
           fill="#171110"
           fill-opacity="1"
           d="m 78.27913,125.65165 c 0.0701,-0.21239 2.89059,-0.30935 5.374157,0.92189 2.481291,1.23123 3.743055,3.24278 3.743055,3.24278 0,0 -3.994053,-1.07349 -5.766844,-2.11388 -1.775802,-1.03809 -3.350368,-2.05079 -3.350368,-2.05079"
           id="path190"
           style="stroke-width:0.194967;fill:#000000" />
      </g>
      <g
         id="g4"
         transform="translate(-2.4722451,0.13011813)">
        <g
           id="g3"
           transform="matrix(3.7487144,0,0,3.5859747,301.15525,-197.87917)">
          <path
             id="XMLID_542_"
             class="st1"
             d="m -51.439175,71.103941 -0.305005,-0.583488 -0.848709,-0.13261 c 0,0 -0.543704,0.755881 -0.928275,1.273063 -1.352631,-1.936117 -3.527448,-3.036787 -5.781831,-3.07657 -0.01326,0 -0.02652,0 -0.03978,0 -0.03978,0 -0.07957,0 -0.119349,0 -0.07957,0 -0.172394,0 -0.251961,0 -0.01326,0 -0.01326,0 -0.02652,0 -0.0663,0 -0.145872,0.01326 -0.212177,0.01326 -0.06631,0 -0.132611,0.01326 -0.185655,0.01326 0,0 -0.01326,0 -0.01326,0 -0.07957,0.01326 -0.145872,0.01326 -0.225439,0.02652 -0.0663,0.01326 -0.119349,0.01326 -0.185655,0.02652 0,0 0,0 -0.01326,0 l -0.159133,0.02652 c -0.689576,0.13261 -1.379152,0.358049 -2.028945,0.702837 -2.58591,1.35263 -4.018106,4.044628 -3.872234,6.776411 0.305004,0.05304 0.610009,0.07957 0.928275,0.07957 0.159133,0 0.318266,-0.01326 0.477399,-0.02652 -0.172394,-2.254383 0.994581,-4.495506 3.116353,-5.596175 0.517182,-0.265222 1.047625,-0.450877 1.604591,-0.556965 0.198916,-0.03978 0.397832,-0.06631 0.610009,-0.07957 0.02652,0 0.05304,0 0.07957,0 0.0663,0 0.119349,-0.01326 0.185655,-0.01326 0.03978,0 0.07957,0 0.119349,0 0.05305,0 0.106089,0 0.159133,0 0.03978,0 0.07957,0 0.11935,0 0.05304,0 0.106089,0 0.159133,0 0.03978,0 0.07957,0 0.106089,0.01326 0.05304,0 0.119349,0.01326 0.172394,0.01326 0.02652,0 0.0663,0 0.09283,0.01326 0.06631,0.01326 0.132611,0.01326 0.198916,0.02652 0.01326,0 0.03978,0 0.05304,0.01326 0.172394,0.02652 0.358049,0.0663 0.530443,0.119349 1.538285,0.397833 2.904176,1.432197 3.686579,2.94396 1.485242,2.851131 0.371311,6.378578 -2.479821,7.863819 -2.784827,1.445457 -6.192924,0.437615 -7.74447,-2.254383 -0.411093,0.06631 -0.822187,0.09283 -1.23328,0.09283 -0.09283,0 -0.185655,0 -0.278483,0 0.05304,0.106089 0.106089,0.225438 0.159133,0.331527 1.84329,3.540708 6.192924,4.906599 9.733632,3.063309 3.421359,-1.776984 4.813772,-5.914441 3.235704,-9.388843 0.636531,-0.01326 1.511763,-0.02652 1.511763,-0.02652 l 0.37131,-0.769143 -0.305005,-0.583487 z m -0.954798,-0.318266 -1.021103,0.941536 0.968059,-1.087408 0.623271,0.07957 z"
             style="fill:#000000;stroke-width:0.132611" />
          <path
             id="XMLID_539_"
             class="st1"
             d="m -67.851285,77.848075 c 0.37131,0.0663 0.76914,0.09283 1.15371,0.09283 0.53044,0 1.04763,-0.05305 1.55155,-0.172395 3.2357,-0.702836 5.662477,-3.593753 5.662477,-7.041634 0,-0.119348 0,-0.25196 -0.01326,-0.371308 -0.305003,-0.05305 -0.61001,-0.07957 -0.928274,-0.07957 -0.159134,0 -0.318268,0.01326 -0.464138,0.02652 0.01326,0.145872 0.01326,0.291745 0.01326,0.437615 0,2.837871 -2.028945,5.198343 -4.707685,5.715527 -0.35805,0.0663 -0.74262,0.106087 -1.11393,0.106087 -0.50392,0 -1.00784,-0.0663 -1.47198,-0.185655 -2.50634,-0.649793 -4.36289,-2.930697 -4.36289,-5.635959 0,-3.222441 2.61243,-5.821612 5.82161,-5.821612 2.16156,0 4.04463,1.180236 5.05247,2.917437 0.411094,-0.0663 0.822188,-0.106088 1.233281,-0.106088 0.09283,0 0.185656,0 0.278482,0 -1.087408,-2.373733 -3.434623,-4.05789 -6.179663,-4.203762 0.27848,-0.570226 0.67632,-1.35263 0.67632,-1.35263 l -0.51719,-0.689573 h -0.64979 -0.37131 -0.64979 l -0.51719,0.689576 c 0,0 0.4111,0.835448 0.70284,1.405674 -3.54071,0.464138 -6.28575,3.487664 -6.28575,7.160981 0.0398,3.580493 2.65222,6.550975 6.08684,7.107939 z m -0.18566,-15.701116 0.35805,-0.517182 -0.19892,0.543704 0.35805,1.339369 z"
             style="fill:#000000;stroke-width:0.132611" />
        </g>
      </g>
    </g>
    <path
       fill-rule="evenodd"
       fill="#171110"
       fill-opacity="1"
       d="m 44.893827,10.998786 c -0.14246,-1.4343916 -1.395175,-2.477865 -2.79938,-2.332425 -1.404976,0.143901 -2.427802,1.424389 -2.284589,2.85878 0.140954,1.433623 1.395173,2.477865 2.799379,2.332425 1.402719,-0.146207 2.427803,-1.424387 2.28459,-2.85878"
       id="path193"
       style="stroke-width:0.194967" />
    <path
       fill-rule="evenodd"
       fill="#171110"
       fill-opacity="1"
       d="m 37.198919,14.538595 c -0.125132,-1.260478 -1.22709,-2.18006 -2.462477,-2.052318 -1.234616,0.12774 -2.136091,1.252783 -2.010206,2.514032 0.125114,1.260481 1.227071,2.178522 2.461706,2.052319 1.235367,-0.127738 2.13609,-1.255091 2.010977,-2.514033"
       id="path194"
       style="stroke-width:0.194967" />
    <path
       fill-rule="evenodd"
       fill="#171110"
       fill-opacity="1"
       d="m 30.324078,18.839464 c -0.106278,-1.073485 -1.046193,-1.856092 -2.097654,-1.747588 -1.05148,0.108501 -1.81802,1.068099 -1.709483,2.141584 0.106279,1.073484 1.043918,1.855321 2.095397,1.747588 1.051461,-0.108502 1.817248,-1.0681 1.71174,-2.141584"
       id="path195"
       style="stroke-width:0.194967" />
    <path
       fill-rule="evenodd"
       fill="#171110"
       fill-opacity="1"
       d="m 78.773581,10.981088 c 0.140955,-1.4343918 1.392899,-2.4801741 2.797875,-2.3362731 1.402701,0.1438995 2.427031,1.4220791 2.288354,2.8564721 -0.140955,1.434392 -1.395175,2.480174 -2.797875,2.336272 -1.404978,-0.143901 -2.429309,-1.422079 -2.288354,-2.856471"
       id="path201"
       style="stroke-width:0.194967" />
    <path
       fill-rule="evenodd"
       fill="#171110"
       fill-opacity="1"
       d="m 86.472252,14.511663 c 0.123627,-1.26125 1.225585,-2.180831 2.4602,-2.054628 1.235388,0.127742 2.136091,1.250474 2.012483,2.511725 -0.125114,1.262787 -1.224813,2.180059 -2.4602,2.054628 -1.234615,-0.126202 -2.13609,-1.251246 -2.012483,-2.511725"
       id="path202"
       style="stroke-width:0.194967" />
    <path
       fill-rule="evenodd"
       fill="#171110"
       fill-opacity="1"
       d="m 93.351628,18.805604 c 0.10401,-1.073486 1.041658,-1.855322 2.095397,-1.749128 1.05146,0.108504 1.817248,1.065792 1.710967,2.139277 -0.103999,1.074254 -1.041658,1.85609 -2.093119,1.749896 -1.051461,-0.108503 -1.819526,-1.065789 -1.713245,-2.140045"
       id="path203"
       style="stroke-width:0.194967" />
    <path
       fill-rule="evenodd"
       fill="#171110"
       fill-opacity="1"
       d="m 100.21065,24.615508 c 0.0949,-0.951901 0.92482,-1.642934 1.85418,-1.548282 0.93011,0.09465 1.60999,0.941128 1.51728,1.893029 -0.0927,0.949591 -0.92485,1.642932 -1.85496,1.545971 -0.92935,-0.09388 -1.60922,-0.941126 -1.5165,-1.890718"
       id="path204"
       style="stroke-width:0.194967" />
    <path
       fill-rule="evenodd"
       fill="#171110"
       fill-opacity="1"
       d="m 106.19457,31.084892 c 0.0671,-0.685645 0.6678,-1.188144 1.34089,-1.118888 0.67385,0.06849 1.16377,0.6818 1.09594,1.368984 -0.0671,0.685646 -0.66782,1.188144 -1.33864,1.118887 -0.67384,-0.06849 -1.16604,-0.681798 -1.09819,-1.368983"
       id="path205"
       style="stroke-width:0.194967" />
    <path
       fill-rule="evenodd"
       fill="#171110"
       fill-opacity="1"
       d="m 110.71774,37.308032 c 0.0422,-0.429395 0.41832,-0.742593 0.83891,-0.701038 0.42059,0.04309 0.72737,0.427086 0.68515,0.85648 -0.0422,0.429395 -0.41681,0.742591 -0.83965,0.699498 -0.42059,-0.04309 -0.72737,-0.425548 -0.68441,-0.85494"
       id="path206"
       style="stroke-width:0.194967" />
  </g>
</svg>
