<?xml version="1.0" encoding="UTF-8" standalone="no"?>
<!-- Created with Inkscape (http://www.inkscape.org/) -->

<svg
   version="1.1"
   id="svg1"
   width="500"
   height="500"
   viewBox="0 0 500 500"
   sodipodi:docname="codigovestimenta2.svg"
   inkscape:version="1.4.2 (f4327f4, 2025-05-13)"
   xmlns:inkscape="http://www.inkscape.org/namespaces/inkscape"
   xmlns:sodipodi="http://sodipodi.sourceforge.net/DTD/sodipodi-0.dtd"
   xmlns="http://www.w3.org/2000/svg"
   xmlns:svg="http://www.w3.org/2000/svg">
  <defs
     id="defs1" />
  <sodipodi:namedview
     id="namedview1"
     pagecolor="#505050"
     bordercolor="#eeeeee"
     borderopacity="1"
     inkscape:showpageshadow="0"
     inkscape:pageopacity="0"
     inkscape:pagecheckerboard="0"
     inkscape:deskcolor="#505050"
     inkscape:zoom="1.0208143"
     inkscape:cx="227.26955"
     inkscape:cy="248.33117"
     inkscape:window-width="1920"
     inkscape:window-height="1009"
     inkscape:window-x="-8"
     inkscape:window-y="-8"
     inkscape:window-maximized="1"
     inkscape:current-layer="g1" />
  <g
     inkscape:groupmode="layer"
     inkscape:label="Image"
     id="g1">
    <path
       id="path1"
       style="stroke-width:0.325121"
       d="m 150.15039,55.509766 c -2.71687,0.08346 -4.07422,0.793634 -4.07422,2.130859 0,0.888589 0.26882,1.335939 0.80274,1.335937 l -1.60743,1.335938 c -0.53949,-1.782962 -2.41735,-2.671875 -5.63476,-2.671875 -10.19727,0 -15.29883,5.345477 -15.29883,16.035156 -0.001,9.354482 2.68324,18.711588 8.04883,28.068359 1.0734,2.22378 2.41864,4.45091 4.02734,6.68164 -0.001,2.67155 -0.53597,5.56624 -1.60937,8.68555 h -3.22266 c 0,1.33867 0.27078,3.11844 0.80469,5.3457 -11.84992,2.13858 -23.45765,4.89584 -34.814454,8.26563 -0.386914,0.22013 -0.785983,0.41959 -1.177735,0.63086 -0.452424,0.23458 -0.906295,0.46774 -1.367187,0.68554 -0.497662,0.22174 -1.015335,0.38759 -1.541016,0.52735 -0.173031,0.037 -0.346589,0.0754 -0.519531,0.11328 -2.060722,0.62205 -4.75411,2.11478 -8.078125,4.47851 -0.539488,0.89206 -2.149929,4.45278 -4.832031,10.69141 -1.608701,4.00675 -3.486577,10.02484 -5.634766,18.04297 -6.440383,24.9476 -9.662109,42.54173 -9.662109,52.78711 0,3.11932 0.404635,5.56823 1.208984,7.35351 0.804352,1.77718 2.277589,4.22755 4.425781,7.34571 2.148189,3.11933 5.102482,6.68508 8.859375,10.69531 5.906474,5.78857 11.80586,12.02765 17.710938,18.71289 0,1.33288 -0.270779,3.78554 -0.804688,7.3457 -0.533913,6.68524 -0.804687,13.58842 -0.804687,20.7168 0,9.79761 1.879769,14.69922 5.636721,14.69922 1.6087,-0.4443 4.02116,-0.89085 7.24414,-1.33399 0,8.01928 -10e-4,17.81669 0,29.39844 0.53391,13.81247 1.60782,32.96622 3.2207,57.4707 0.53531,9.80226 1.33928,19.82379 2.41406,30.07032 -8.58718,11.58175 -25.225082,33.18586 -49.916012,64.8164 0.535305,0 1.342889,0.44193 2.41211,1.33399 l 47.503902,-60.13672 v 0.66601 c 0.53531,7.57268 1.3415,16.25831 2.41211,26.06055 1.07479,3.56247 1.88467,7.35377 2.41992,11.35938 -1.60868,4.0102 -2.41992,6.23583 -2.41992,6.68359 0,5.3454 5.10156,8.02148 15.29883,8.02148 7.51518,0 11.27149,-2.67608 11.27149,-8.02148 0,-2.22612 -0.53403,-4.00971 -1.60743,-5.34375 1.6087,-1.78411 2.41211,-4.01054 2.41211,-6.68555 2.68768,-17.81808 5.37064,-55.90374 8.05274,-114.26367 0,0 -0.001,0.22173 0,0.66602 0.53391,8.91133 2.41374,26.06353 5.63672,51.45312 1.07339,11.13746 2.95266,27.61899 5.63476,49.44727 1.07479,4.01023 2.14786,7.57713 3.22266,10.69531 -1.0748,4.45334 -0.54021,9.12897 1.60937,14.03125 0.53391,2.67039 4.28966,5.57015 11.26953,8.68945 13.42026,5.78857 29.52083,10.24395 48.30664,13.36328 15.56291,2.66923 30.32486,4.00977 44.28321,4.00977 14.48528,0 26.96502,-1.67107 37.43555,-5.01367 10.46352,-3.34148 16.76783,-5.01367 18.91601,-5.01367 3.223,0 7.11647,1.44736 11.67773,4.3457 4.55985,2.89484 8.71831,5.00977 12.47657,6.34961 6.9757,2.67039 16.10124,4.00586 27.3789,4.00586 22.00045,0 43.20173,-4.89779 63.59766,-14.70117 2.14818,0.89205 6.17164,3.78637 12.07813,8.6875 l 2.41796,-2.00196 c -2.68348,-2.22725 -6.1774,-5.12505 -10.46679,-8.6875 14.48527,-7.57151 21.73629,-14.25681 21.73633,-20.04882 -10e-6,-6.68064 -9.66436,-25.16758 -28.98829,-55.4629 -24.68536,-38.7543 -53.67225,-80.63128 -86.94336,-125.62304 23.07523,0.4443 34.61719,-5.56837 34.61719,-18.04102 0,-8.01812 -4.03181,-15.81528 -12.07812,-23.39258 5.367,10.69545 8.04678,18.04251 8.05078,22.05274 0,10.24769 -8.31741,15.37109 -24.95508,15.37109 -9.12944,0 -19.59633,-1.33395 -31.40234,-4.00781 -16.63627,-3.56593 -24.96299,-7.79693 -24.95899,-12.69922 0,-4.00792 3.08789,-7.68312 9.25781,-11.02344 6.17413,-3.34492 11.409,-5.34722 15.70118,-6.01367 4.29083,-0.66644 7.51197,-1.00391 9.66015,-1.00391 4.82891,0 11.13961,1.89394 18.92383,5.67969 7.78283,3.78577 11.66797,7.68509 11.66797,11.69531 0,3.11931 -5.09626,4.67579 -15.29492,4.67579 -15.56427,0 -25.49271,-2.00036 -29.78907,-6.01172 0.5395,-0.89093 1.61173,-1.5581 3.22461,-2.00586 7.51517,-1.33519 13.15134,-2.00586 16.90821,-2.00586 h 3.21484 c 0.53812,0.44429 0.81055,0.66992 0.81055,0.66992 -0.53948,0.89089 -1.07516,1.78285 -1.61328,2.66797 2.14821,-0.88512 3.2207,-1.77708 3.2207,-2.66797 0,-1.78296 -2.68295,-2.67383 -8.05273,-2.67383 -14.48948,0 -21.73633,2.22524 -21.73633,6.68555 0,2.22378 3.75439,4.3371 11.26953,6.3457 7.51939,2.00279 15.83649,3.00586 24.95898,3.00586 12.87936,0 19.32227,-2.89351 19.32227,-8.68555 0,-6.68522 -5.90414,-12.69789 -17.71289,-18.04101 6.98126,-19.15789 10.46678,-31.18561 10.4668,-36.08789 0,-3.11816 -0.27162,-5.12082 -0.80274,-6.01172 -1.00402,-2.49887 -2.01083,-5.1881 -3.01172,-8.07422 -0.0856,-0.006 -0.18146,-0.072 -0.24804,-0.2168 -0.0761,-0.16551 -0.155,-0.32884 -0.2129,-0.50195 -0.0481,-0.13569 -0.0969,-0.27101 -0.14062,-0.4082 -0.0514,-0.15089 -0.10461,-0.30246 -0.16211,-0.45117 -0.0565,-0.13351 -0.11273,-0.26696 -0.17383,-0.39844 -0.0628,-0.12991 -0.12683,-0.25859 -0.20703,-0.37891 -0.0751,-0.13139 -0.1525,-0.26136 -0.2207,-0.39648 -0.0731,-0.14795 -0.13402,-0.30162 -0.19922,-0.45313 -0.0689,-0.14114 -0.14742,-0.27764 -0.22852,-0.41211 -0.0258,-0.04 -0.0524,-0.0792 -0.0781,-0.11914 -0.0645,-0.0455 -0.12735,-0.0932 -0.18945,-0.14257 -0.31563,-0.25069 -0.61984,-0.51484 -0.92579,-0.77735 -0.0696,-0.0594 -0.11908,-0.0856 -0.18945,-0.14648 -0.19827,-0.17141 -0.79551,-0.68098 -0.59375,-0.51367 0.2629,0.21798 0.52397,0.43772 0.7832,0.66015 0.38012,0.32477 0.72565,0.58585 1.0625,0.83399 -0.0657,-0.10203 -0.13237,-0.20328 -0.19921,-0.30469 -0.1502,-0.21704 -0.29813,-0.43587 -0.44336,-0.65625 -0.1439,-0.20341 -0.29033,-0.40478 -0.42969,-0.61133 -0.0599,-0.093 -0.12235,-0.18454 -0.18555,-0.27539 -0.0893,-0.0995 -0.18133,-0.19649 -0.26953,-0.29688 -0.0516,-0.0588 -0.0828,-0.11532 -0.0977,-0.16796 -7.44422,-11.03035 -11.96594,-17.65565 -13.57031,-19.8711 -6.43758,-8.01813 -13.41951,-12.91625 -20.92773,-14.69922 l -14.4961,-3.34179 c -2.6793,-0.4443 -6.70947,-2.22755 -12.07226,-5.34571 -1.07757,-3.11932 -2.69081,-7.57436 -4.83203,-13.36523 -0.54227,1.33519 -0.80664,3.34096 -0.80664,6.01367 0,8.46474 8.58653,14.92324 25.76367,19.37891 10.19866,2.22726 19.8591,10.02318 28.98437,23.38672 5.36696,8.01813 9.39269,14.70224 12.07617,20.04882 1.07339,2.22379 1.60938,5.56733 1.60938,10.01953 0,0 -2.14505,11.14033 -6.44141,33.41407 -4.28943,-1.33866 -8.04653,-2.45087 -11.26953,-3.3418 1.61009,-5.34655 3.75792,-13.14133 6.44141,-23.38672 1.07061,-3.11932 1.60547,-6.23616 1.60547,-9.35547 0,-4.01022 -2.41245,-8.01943 -7.24414,-12.02734 -6.43758,-5.79087 -10.19625,-9.80204 -11.26953,-12.0293 -0.5395,0.44429 -0.80274,1.33668 -0.80274,2.67188 -0.004,2.22726 1.6046,5.12389 4.82617,8.6875 4.2936,4.90228 6.71497,7.79659 7.2461,8.6875 0.5353,0.89206 1.07406,2.22679 1.60937,4.00976 -1.07479,4.4522 -2.14005,11.13841 -3.21484,20.04492 -1.07756,6.68525 -1.34586,10.91431 -0.81055,12.69727 -1.07061,-0.4443 -2.9479,-0.66602 -5.63281,-0.66601 -2.14818,-0.004 -5.90531,0.44192 -11.26953,1.33398 -3.43731,-4.07196 -5.28593,-8.14593 -5.58008,-12.22266 0.34808,2.25601 2.2091,-4.80294 5.58008,-21.1875 0.53113,-2.22726 0.80468,-6.01709 0.80468,-11.36132 0,-4.00677 -0.27355,-6.9049 -0.80468,-8.68555 0,-0.002 -0.27051,0 -0.8086,0 -0.5353,1.33635 -1.33928,4.90169 -2.41406,10.6914 -0.53531,2.22841 -2.01468,7.12966 -4.42773,14.70118 -2.41861,7.57383 -3.62696,12.47196 -3.62696,14.69921 0,5.3489 1.87845,10.46997 5.63672,15.3711 -15.02897,5.34427 -22.54492,11.80856 -22.54492,19.3789 0,11.13743 17.71907,18.26465 53.14258,21.38282 22.53997,32.96574 54.74322,82.41231 96.61133,148.34375 10.73119,17.37378 16.10156,28.06861 16.10156,32.07422 0,4.00904 -5.09905,8.68777 -15.29492,14.0332 -2.68352,1.33866 -6.44174,3.11692 -11.27344,5.34766 -8.58718,4.0102 -16.63968,6.79306 -24.15625,8.35156 -7.5124,1.55965 -13.41455,2.56272 -17.71094,3.00586 -6.43757,0.44429 -11.54275,0.66797 -15.29687,0.66797 -12.88354,0 -23.61622,-2.45115 -32.19922,-7.34766 -8.58996,-4.9011 -14.76514,-7.35156 -18.52344,-7.35156 0,0 -8.31659,2.45046 -24.95703,7.35156 -8.58301,2.22612 -19.32181,3.33789 -32.20117,3.33789 -12.34409,0 -26.29874,-1.33547 -41.86719,-4.00586 -20.39455,-3.12277 -36.49508,-7.57596 -48.30664,-13.36914 -2.14818,-0.88744 -4.15602,-2.11533 -6.03516,-3.67383 -1.87914,-1.56084 -2.8164,-5.23221 -2.8164,-11.02539 -0.001,-8.90672 2.41189,-22.05155 7.24218,-39.42187 8.0477,-27.62147 23.88777,-69.49775 47.50391,-125.62696 4.29219,-8.91133 8.31928,-17.81991 12.07617,-26.73242 l -0.002,-0.66601 c -0.53949,0 -1.34262,1.33472 -2.41602,4.00976 -13.41607,24.94645 -27.3752,55.24012 -41.86328,90.88086 0.5353,-5.79434 1.07546,-15.81666 1.60938,-30.07226 0.5339,-12.91811 0.5353,-24.27937 0,-34.07813 2.68349,-0.44776 4.55997,-3.34326 5.63476,-8.6875 -0.001,-3.11933 0.26938,-5.79226 0.80469,-8.01953 -10e-4,-6.68524 0,-14.25402 0,-22.71875 -10e-4,0 -0.53403,-4.01313 -1.60742,-12.03125 l -0.002,-0.66797 c 13.42026,-0.44429 24.15376,-1.55884 32.20703,-3.3418 2.14819,-0.44429 4.83003,-1.55725 8.04882,-3.33789 0.53811,-0.8909 0.80274,-2.8924 0.80274,-6.01172 -0.001,-2.22957 -1.33808,-11.36377 -4.02148,-27.40234 6.44039,-3.56361 9.92563,-6.23497 10.46093,-8.01562 10.20284,14.70106 15.30078,24.05423 15.30078,28.06445 0,4.01138 -2.14701,8.6886 -6.44336,14.03516 -6.43761,8.01813 -10.46692,13.25175 -12.07421,15.70117 -1.6101,2.4494 -2.41407,4.79031 -2.41407,7.01757 0.53391,2.67501 1.06989,4.00977 1.60938,4.00977 0.53531,-0.45007 0.80469,-0.89165 0.80469,-1.33594 0.5353,-3.56707 4.6982,-9.57749 12.48242,-18.04687 7.77588,-8.46127 11.66797,-15.5923 11.66797,-21.38086 0,-4.45451 -3.35028,-11.36152 -10.0625,-20.71484 -6.70944,-9.35448 -11.40578,-14.03321 -14.08789,-14.03321 v 0.66992 c 0.5353,1.33635 1.34038,3.11801 2.41796,5.3418 h -0.81054 c -3.75548,0 -6.9722,1.11728 -9.6543,3.3457 -1.07479,-3.56362 -2.41864,-9.1332 -4.02734,-16.70703 0,0 3.75575,-3.34166 11.26953,-10.02344 6.44177,-5.34656 10.19584,-8.01757 11.27344,-8.01757 0.53113,0.4443 0.80273,1.11336 0.80273,2.00195 0,1.78296 -0.80203,3.78837 -2.41211,6.01562 3.75409,0 5.63477,-2.0054 5.63477,-6.01562 0,-1.33636 -0.53854,-2.67145 -1.61328,-4.00781 12.88357,-8.01813 19.32421,-14.69835 19.32421,-20.04492 0,-5.79319 -1.07447,-9.80205 -3.22265,-12.0293 -0.53531,0.4466 -0.80469,0.89165 -0.80469,1.33594 v 7.35156 c -0.53252,4.89997 -6.4397,10.91494 -17.70898,18.04101 3.21462,-4.45452 4.82812,-6.90379 4.82812,-7.35156 0,-1.3352 -0.6665,-3.45048 -2.01172,-6.34765 -1.34522,-2.8937 -2.01367,-5.01131 -2.01367,-6.34766 0,-1.3352 0.53596,-3.56348 1.60938,-6.68164 1.0706,-3.11932 1.61328,-5.34725 1.61328,-6.68359 0,-2.67387 -2.4183,-5.56623 -7.25,-8.68555 -1.60591,-0.89206 -2.41407,-2.22717 -2.41407,-4.00781 0.5353,-0.89091 0.94329,-1.6711 1.21094,-2.33985 0.26348,-0.66992 1.87894,-2.3367 4.83008,-5.01172 2.94835,-2.67155 4.42578,-5.12314 4.42578,-7.351559 0,-0.890902 -0.26742,-1.891652 -0.80273,-3.00586 -0.54226,-1.114208 -1.74531,-2.784458 -3.62305,-5.011719 -1.88053,-2.228413 -2.82227,-4.008988 -2.82227,-5.347656 0,-2.227258 3.22258,-3.339838 9.66016,-3.339844 7.51517,0 13.68979,0.890866 18.52148,2.673829 h 0.80664 c -0.004,-0.444295 0,-0.669922 0,-0.669922 -4.30056,-4.010221 -11.81178,-6.011719 -22.54296,-6.011719 -8.05326,0 -12.07618,2.670999 -12.07618,8.017578 0,1.336352 0.26353,2.22758 0.79883,2.671875 3.48191,7.011712 5.35486,10.392523 5.61328,10.148438 0.0137,-0.01542 0.0238,-0.04375 0.0273,-0.08203 -0.0279,1.33161 -1.37201,3.098831 -4.02735,5.302731 -2.68349,2.22725 -4.29477,4.00936 -4.83007,5.34571 -0.5353,1.33636 -0.80469,2.67304 -0.80469,4.01172 0,1.78064 0.27078,2.89403 0.80469,3.34179 0.5353,1.78065 2.14937,3.56274 4.83007,5.34571 2.68348,1.77949 4.0293,3.33711 4.0293,4.67578 0,0.88859 -0.53766,2.89435 -1.61523,6.01367 -1.07478,3.11816 -1.60743,5.34644 -1.60743,6.68164 0,0.44429 1.34196,3.78596 4.02539,10.02344 0.49083,1.22527 0.74769,2.25386 0.78907,3.10547 0.0102,0.0653 0.017,0.14092 0.0176,0.23046 -6.9e-4,-0.0728 -0.0139,-0.15529 -0.0176,-0.23046 -0.14105,-0.90113 -1.20694,0.51232 -3.20703,4.24609 0,0.4443 -0.26661,1.33667 -0.80469,2.67187 0.53808,0.89206 0.80469,1.78373 0.80469,2.67579 -5.36418,4.00791 -9.39212,7.34841 -12.07422,10.02343 -0.001,-4.45799 -0.53598,-10.47109 -1.60938,-18.04492 -0.54088,-1.3352 -1.60837,-2.67261 -3.22265,-4.00781 -3.75689,-2.67502 -5.63672,-4.00977 -5.63672,-4.00977 0,-0.89206 1.34384,-2.67378 4.02734,-5.34765 2.6821,-2.67155 4.29115,-4.89867 4.83203,-6.68164 0.53252,-0.44429 0.80469,-1.55689 0.80469,-3.33985 -0.001,-0.89206 0,-1.55926 0,-2.00586 -0.5353,-2.22842 -1.74391,-4.45243 -3.62305,-6.67968 -1.87915,-2.23073 -3.62212,-4.68002 -5.23632,-7.35157 v -0.66992 c 2.68763,-1.3352 5.37119,-2.67262 8.05468,-4.00781 2.6821,-1.33983 4.02539,-3.11844 4.02539,-5.3457 -0.001,-1.78296 -1.20832,-3.45323 -3.62695,-5.011723 -2.41305,-1.557347 -4.15568,-3.228756 -5.23047,-5.011719 v -4.009766 c 0,-3.119315 1.20999,-5.013245 3.62305,-5.679687 2.41863,-0.669913 5.23572,-1.225628 8.45312,-1.669922 1.0748,-1.782963 1.61328,-2.897142 1.61328,-3.34375 0,-0.444294 -0.40462,-1.44504 -1.20898,-3.005859 -0.80435,-1.558499 -1.20898,-2.785239 -1.20898,-3.673828 0,-4.90228 3.75491,-7.351563 11.27148,-7.351563 0.53104,0 8.0467,3.118434 22.53711,9.351563 -8.58595,-8.460387 -16.36781,-12.691407 -23.33984,-12.691407 -10.73816,0 -16.10547,3.561869 -16.10547,10.691407 0.53391,1.78065 1.07407,3.564259 1.60937,5.34375 v 0.669922 c -9.12249,0.8909 -13.68554,4.901273 -13.68555,12.027343 0,4.007907 1.4752,7.240147 4.42774,9.689449 2.95254,2.4494 4.42578,3.67579 4.42578,3.67579 -2.14401,1.3352 -4.56065,2.78328 -7.24414,4.34179 -2.68349,1.56081 -4.02539,3.23222 -4.02539,5.01172 -0.001,1.78296 0.26882,3.34102 0.80273,4.67969 5.37117,7.57036 8.05469,11.80441 8.05469,12.69531 0,0.89206 -1.21,2.67067 -3.62305,5.3457 -2.41863,2.67155 -3.89076,4.56548 -4.43164,5.67969 -0.53391,1.11305 -0.80273,2.11771 -0.80273,3.00977 -0.001,2.67155 0.93727,4.4532 2.81641,5.34179 1.87775,0.89091 4.16221,2.0066 6.8457,3.3418 0,4.45567 1.60905,10.91497 4.83203,19.38086 -2.6835,3.11816 -5.10348,5.78838 -7.24609,8.01563 -3.75828,-14.2556 -8.05309,-27.84246 -12.88477,-40.76172 -0.53531,-2.67155 -1.33731,-4.45516 -2.41211,-5.34375 -4.29637,-4.90112 -20.13099,-10.2482 -47.5039,-16.03907 -0.001,-1.33867 0,-2.67109 0,-4.00976 -1.07482,0.44661 -2.68188,0.89208 -4.83008,1.33984 -1.07478,-1.78296 -2.14396,-4.01204 -3.21875,-6.68359 3.2174,-3.56709 6.17001,-11.584 8.85351,-24.056642 0.53809,0.444294 1.07436,0.669922 1.61524,0.669922 2.14261,-0.0035 3.48618,-2.006199 4.02148,-6.017578 h 0.8086 c 2.144,0 3.21679,-1.556463 3.21679,-4.675781 0,-5.346575 -2.81709,-10.022985 -8.45312,-14.033203 -5.63604,-4.007909 -11.67485,-6.013672 -18.11524,-6.013672 -1.20792,-0.111652 -2.2643,-0.152821 -3.16992,-0.125 z m 128.76172,19.5 v 0.002 h 0.002 v -0.002 z m 0.002,0.002 v 0.002 h 0.002 v -0.002 z M 144.4668,62.318359 c 3.75664,0.891155 8.85169,3.563438 15.29297,8.017579 2.68768,3.563608 4.83103,6.903325 6.44531,10.021484 0,2.228416 -0.27246,4.234615 -0.81055,6.017578 -3.75689,15.59197 -8.85202,23.38372 -15.29101,23.38672 -9.66197,0 -17.44844,-11.362049 -23.35352,-34.080079 h 0.002 c 1.0734,0.444295 1.87653,0.669921 2.41602,0.669921 1.6087,0 6.71025,-4.679876 15.29883,-14.033203 z m 196.43554,13.230469 c 0.25971,0.542512 0.51724,1.08919 0.77149,1.638672 -0.0872,-0.364787 -0.16511,-0.732497 -0.23242,-1.101562 -0.17983,-0.178939 -0.35931,-0.358089 -0.53907,-0.53711 z M 96.181641,111.09375 c -0.04015,0.029 -0.08093,0.0589 -0.121094,0.0879 0.04395,-0.002 0.08928,-0.005 0.134765,-0.008 -0.0045,-0.0267 -0.0088,-0.0535 -0.01367,-0.0801 z m 74.044919,10.69727 c 0.53999,2.5e-4 1.61381,0.21874 3.22266,0.66601 -0.5353,1.78296 1.34257,5.79182 5.63476,12.0293 2.6835,4.45451 5.63472,9.13092 8.85352,14.0332 -1.6087,3.56361 -4.02115,9.13277 -7.24414,16.70313 0,-0.44429 -0.53459,-0.66797 -1.60938,-0.66797 h -0.80468 v 0.66797 c 0,0.89206 1.47519,2.78251 4.42773,5.67968 2.95394,2.89717 4.42478,4.79074 4.42578,5.68164 0,-0.89087 -6.7104,12.02503 -20.12304,38.75196 3.75663,-12.47182 6.97457,-23.15979 9.66211,-32.06836 -1.0734,-4.45567 -3.49116,-19.16018 -7.24805,-44.10547 -0.53531,-2.67155 -1.07603,-5.79106 -1.61133,-9.35352 l 0.002,-0.66992 c 0,0.4443 1.0728,0.89359 3.2168,1.33789 0,-3.11932 -0.26659,-6.01399 -0.80469,-8.68554 z m 5.63672,2.00195 c 8.05328,2.22725 19.05503,6.23763 33.00781,12.02734 2.68907,1.33636 6.98025,12.69688 12.88672,34.08203 2.6821,8.90903 4.55802,15.59237 5.63281,20.04688 2.68352,11.58174 4.02735,17.81807 4.02735,18.70898 v 0.66602 c 3.21741,13.809 4.82517,23.16552 4.82617,28.0664 -2.68349,1.33637 -6.97383,2.44938 -12.87891,3.34376 -10.19727,1.33287 -21.73976,2.66915 -34.61914,4.00781 h -1.61328 c -0.53531,-3.56594 -1.87886,-8.46369 -4.02148,-14.70117 h -0.80469 v 3.33789 c 0.53531,1.33636 1.33928,5.34796 2.41406,12.0332 -0.53391,1.33288 1.34452,2 5.63672,2 h 8.05274 v 0.66797 c -0.53949,2.67504 -1.07575,6.23962 -1.61524,10.69531 0,6.6783 -0.80341,17.81821 -2.41211,33.41016 -5.3656,-1.78298 -12.88601,-5.78951 -22.54101,-12.0293 -2.68907,-5.78857 -6.98109,-14.25308 -12.88477,-25.39063 -1.6087,-2.22721 -2.95395,-4.67848 -4.02734,-7.35351 0,-0.4443 0.2677,-1.11141 0.80859,-2 2.14261,1.78295 6.17109,2.66797 12.07617,2.66797 6.97987,0 11.26965,-0.66665 12.87696,-2.00196 l -0.80274,-0.66601 c -4.2908,-0.45007 -10.73731,-1.56077 -19.32031,-3.34375 0.53531,-2.22494 2.94832,-4.67769 7.24609,-7.35156 2.14819,-0.4443 4.56064,-1.78207 7.24414,-4.00586 -0.53531,-0.44776 -1.60948,-0.45008 -3.21679,0 -3.75829,0 -7.78565,1.11222 -12.08203,3.34179 6.97848,-10.24538 16.64142,-26.28579 28.98828,-48.11523 2.14261,-4.45567 3.21579,-7.57287 3.21679,-9.35352 0,-1.3352 -3.21921,-4.90169 -9.6582,-10.6914 7.5096,-8.01813 11.26563,-13.81291 11.26563,-17.37305 0,-2.22726 -3.48664,-7.79836 -10.46094,-16.70508 -2.14819,-2.67502 -4.56594,-5.34646 -7.24805,-8.02148 z m -43.47656,0.73047 v 12.63476 46.77539 c 2.68906,13.36355 5.3698,26.05803 8.05469,38.08985 -0.53531,-1.78296 -4.83317,-9.35601 -12.88086,-22.72071 -6.97987,-12.02835 -10.4678,-18.71051 -10.4668,-20.04687 0,-0.8909 2.14168,-3.56191 6.43945,-8.01758 0,0 0.80397,-1.33669 2.41407,-4.01172 v -0.66601 c -0.53531,0.4443 -1.07547,0.66601 -1.60938,0.66601 -2.68349,-5.3431 -5.10208,-10.68858 -7.24609,-16.03515 h 0.002 c 0,-0.4443 2.2786,-4.23331 6.83984,-11.35938 4.56682,-7.12954 7.11454,-12.03157 7.64844,-14.70312 0.51946,0 0.7845,-0.19576 0.80469,-0.60547 z m 21.73828,0.60547 c 4.29117,1.33718 7.51426,2.45395 9.66211,3.34179 0.53948,6.68408 1.60838,17.37432 3.22266,32.07422 1.6087,14.70337 2.41306,22.05274 2.41406,22.05274 -2.68349,9.80109 -6.97578,24.94521 -12.88086,45.43945 -2.60449,9.51254 -3.92211,15.59802 -3.99805,18.39258 0.002,-0.004 0.006,-0.0105 0.008,-0.0137 l 0.002,-0.002 0.002,-0.002 h 0.002 l 0.002,-0.002 h 0.002 0.002 0.002 0.002 0.002 0.002 0.002 l 0.002,0.002 h 0.002 c 0.10768,0.0699 0.35522,1.07403 0.74219,3.00781 2.68349,8.90903 6.9797,20.04546 12.88477,33.41016 0.53392,0.44779 3.48652,2.44927 8.85351,6.01172 6.97848,4.90113 13.14809,8.01953 18.51368,9.35937 v 2.66992 c -0.53391,18.71013 -2.94582,46.55603 -7.24219,83.52735 -4.2922,11.58637 -10.19716,29.84695 -17.71094,54.79687 -1.6087,-12.02836 -3.48853,-26.28473 -5.63672,-42.76758 -4.2908,-28.06461 -7.24453,-51.452 -8.85742,-70.16211 -0.5353,-5.79316 -1.07407,-11.58181 -1.60938,-17.375 v -19.37695 c 0,-1.78298 -0.27077,-3.11886 -0.80468,-4.00976 0,0 -0.001,0.22362 0,0.66797 -0.53949,4.45337 -2.41737,34.30118 -5.63477,89.54296 -2.14819,39.64635 -5.36573,68.1583 -9.66211,85.53321 -2.14819,0.44313 -5.90728,1.11184 -11.27148,2.0039 -3.2174,-14.6999 -5.90622,-36.08498 -8.04883,-64.14843 -1.07479,-21.82828 -2.41864,-43.88137 -4.02734,-66.15625 -0.53949,-8.01582 -1.07407,-14.92552 -1.60938,-20.71289 -0.53948,-2.67505 -1.07185,-5.3503 -1.61133,-8.01954 v -1.33593 c 5.90508,-2.67501 10.73391,-5.12429 14.49219,-7.35157 1.6087,-1.33404 3.48658,-2.67572 5.63477,-4.00976 8.05466,-12.4738 14.4942,-25.83814 19.32031,-40.09375 v 0.66601 l 0.81055,-0.66601 c 0.53391,-1.33635 0.80368,-3.78948 0.80468,-7.34961 -0.53949,0.4443 -0.80568,0.88782 -0.80468,1.33789 -2.14819,-11.58174 -4.5679,-24.95 -7.25,-40.09766 -1.07479,-6.67946 -2.41447,-13.58682 -4.02735,-20.71289 V 168.5625 c -0.53531,-9.35448 -1.06933,-21.82601 -1.60742,-37.41797 7.50758,-2.67163 13.14797,-4.67695 16.90625,-6.01562 z m -1.58008,121.30078 c -0.0189,0.0418 -0.0293,0.14719 -0.0293,0.31445 -2e-5,-0.0786 0.027,-0.22968 0.0293,-0.31445 z M 128.36523,126.4668 c -1.61289,1.33635 -4.83179,5.23568 -9.66211,11.69531 -4.83168,6.45731 -7.24609,10.57641 -7.24609,12.35937 0,2.22726 3.75687,8.24224 11.27344,18.04102 -6.97987,4.90228 -10.46875,8.46611 -10.46875,10.69336 0,4.90228 7.24324,18.041 21.73828,39.42383 2.6821,3.56593 5.23176,7.46331 7.65039,11.69336 2.41305,4.23584 4.4245,10.35728 6.0332,18.3789 -4.83029,8.90671 -12.07575,22.05159 -21.73632,39.42188 -5.36699,3.11818 -13.15177,7.13012 -23.34766,12.03125 0,0 -0.26957,-2.22525 -0.80273,-6.67578 0.0395,-0.10972 1.11298,-14.58936 3.21679,-43.44141 0.53948,-5.79318 1.0724,-11.3624 1.61328,-16.70898 0,-14.6999 -1.34524,-30.51425 -4.02734,-47.44141 -0.53391,-3.11931 -0.80569,-4.89909 -0.80469,-5.3457 0.53391,-2.67155 0.27067,-4.45516 -0.80273,-5.34375 -1.074854,0.4443 -1.880436,1.3332 -2.419924,2.67187 -2.682101,7.12606 -5.364777,18.04229 -8.046875,32.74219 -1.074792,2.67503 -1.880435,5.56739 -2.419922,8.68555 0,1.33982 3.756309,7.57891 11.271484,18.71289 v 1.33789 c -0.533909,4.45221 -1.338708,11.13474 -2.412109,20.04492 -3.22298,-4.45219 -7.78409,-10.0241 -13.683594,-16.70703 -8.588572,-12.02489 -12.886719,-19.37728 -12.886719,-22.04883 0,-8.91019 4.027088,-28.06779 12.076172,-57.46875 1.614279,-5.78972 4.296403,-13.3639 8.054688,-22.7207 0,-0.44429 1.608493,-1.55689 4.830078,-3.33985 l 0.804687,0.66992 c 0,-0.44426 0.265205,-0.66992 0.804688,-0.66992 6.440386,-2.22726 16.906726,-5.79259 31.400386,-10.6914 z m 231.25391,56.90625 c -0.0648,0.0274 -0.12884,0.0525 -0.19141,0.0762 v 0.51953 c 0.0181,-0.001 0.0363,-0.003 0.0547,-0.004 0.11764,-0.006 0.23968,-2.5e-4 0.36719,0.0176 -0.078,-0.19498 -0.15453,-0.39832 -0.23047,-0.60937 z m 2.41016,6.6289 c 0.0134,0.0217 0.0257,0.0447 0.0391,0.0664 0.006,-0.003 0.0119,-0.005 0.0176,-0.008 -0.019,-0.0193 -0.0376,-0.0394 -0.0566,-0.0586 z m 1.01562,1.06055 c 0.004,0.009 0.008,0.0181 0.0117,0.0273 l 0.002,-0.002 v -0.002 -0.002 -0.002 -0.002 -0.002 c -0.005,-0.005 -0.009,-0.0105 -0.0137,-0.0156 z m -1.30469,0.73438 c 0.0122,0.0184 0.0246,0.0365 0.0371,0.0547 8e-5,-0.004 -1.9e-4,-0.008 0,-0.0117 -0.0125,-0.0142 -0.0246,-0.0287 -0.0371,-0.043 z m -262.363277,7.50585 v 30.07032 c -1.608701,-3.11932 -2.952266,-6.45831 -4.021484,-10.02539 1.069218,-4.45452 2.412783,-11.13821 4.021484,-20.04493 z" />
    <path
       fill-rule="evenodd"
       fill="#000000"
       fill-opacity="1"
       d="m 138.02635,117.77734 c 6.44039,0.89206 11.00302,1.56082 13.68512,2.00511 2.1468,-0.44429 5.3656,-1.33288 9.66197,-2.67155 -1.07339,-1.33635 -1.61288,-3.11931 -1.61288,-5.34658 -3.2188,1.78297 -6.44039,2.67503 -9.65779,2.67503 -4.29777,0 -8.32371,-1.56082 -12.07502,-4.67666 0.5339,2.67155 0.5339,5.3431 0,8.01812 l -0.001,-0.003"
       id="path2"
       style="stroke-width:0.325121" />
    <path
       fill-rule="evenodd"
       fill="#000000"
       fill-opacity="1"
       d="m 119.50537,154.5323 c 0,1.33636 1.61009,2.00511 4.83307,2.00511 4.2908,0 6.43899,-1.11305 6.43899,-3.34146 -0.001,-2.22726 -1.87774,-3.34031 -5.63464,-3.34031 -1.61009,0 -3.48784,0.4443 -5.63603,1.3352 2.6821,0 5.63603,0.66644 8.85762,2.00511 0,0.88859 -1.34384,1.33635 -4.02594,1.33635 -1.07479,0 -1.87914,0 -2.41305,0 -10e-4,-0.44776 1.06921,-0.89206 3.2174,-1.33635 -0.5353,-0.44661 -1.33965,-0.66876 -2.41305,-0.66876 -2.14958,0 -3.22298,0.66876 -3.22298,2.00511 h -0.001"
       id="path3"
       style="stroke-width:0.325121" />
    <path
       fill-rule="evenodd"
       fill="#000000"
       fill-opacity="1"
       d="m 262.81228,103.07976 c 0,20.93506 7.25174,31.40607 21.74118,31.40607 13.41749,0 20.12693,-8.68804 20.12693,-26.0595 0,-3.56592 -0.53952,-6.23748 -1.61291,-8.02044 -1.07061,5.34542 -2.1454,10.91414 -3.21879,16.70501 -2.68348,8.90903 -7.78422,13.36471 -15.29523,13.36471 -8.58996,0 -14.226,-6.01302 -16.90949,-18.04137 -1.07339,-7.12723 -2.14817,-14.034618 -3.22157,-20.712919 v -0.0035 c -1.07061,2.675023 -1.61012,6.459625 -1.61012,11.361899"
       id="path4"
       style="stroke-width:0.325121" />
    <path
       fill-rule="evenodd"
       fill="#000000"
       fill-opacity="1"
       d="m 289.38099,84.369633 c 1.07478,-0.444295 3.35818,-1.226437 6.84883,-2.340645 3.48226,-1.113049 6.0347,-1.670734 7.64761,-1.670734 4.83166,0 7.24471,1.336355 7.24471,4.011379 0,0.444294 -0.40009,1.448587 -1.21001,3.005931 -0.80713,1.558502 -1.20304,2.784939 -1.20304,3.675844 0.53252,1.78065 0.93122,3.228075 1.20304,4.342283 0.27044,1.114208 2.14818,3.23155 5.63466,6.350869 3.49061,3.11585 5.23595,5.12096 5.23595,6.01186 0,1.78065 -1.87777,3.56361 -5.63604,5.34658 -3.75691,1.78064 -5.90509,3.45369 -6.43761,5.01219 -0.54226,1.55735 -0.80992,3.00593 -0.80992,4.34229 0,3.11816 1.21001,5.34657 3.62166,6.68177 2.41726,1.33636 4.96413,3.11932 7.64901,5.34658 0.53808,0.88858 0.80995,2.22725 0.80995,4.0079 0,1.3352 -0.9396,2.89602 -2.82013,4.67898 -1.87635,1.78065 -2.81592,3.11932 -2.81592,4.00791 v 2.00511 c 6.439,-6.23748 9.65779,-10.02324 9.65779,-11.35844 0,-2.67502 -0.40008,-4.5679 -1.20304,-5.68095 -0.80992,-1.11421 -2.55526,-2.56279 -5.23874,-4.34229 -2.68349,-1.78412 -4.02592,-3.34146 -4.02592,-4.67782 0,-0.8909 0.27182,-2.00511 0.80991,-3.34378 3.21601,-1.33288 7.24475,-4.23005 12.07362,-8.68457 0.53531,-1.33867 0.80574,-2.45287 0.80574,-3.34146 0,-1.78297 -0.5353,-3.34031 -1.60869,-4.67666 -1.07479,-1.33867 -3.4934,-3.56593 -7.24753,-6.681777 -2.68488,-1.782963 -4.02314,-3.563612 -4.02314,-5.346575 1.06783,-2.230729 1.87774,-4.454518 2.41305,-6.681775 0,-5.346576 -4.02592,-8.018128 -12.0764,-8.018128 -5.37118,0 -10.46774,2.671552 -15.2994,8.018128"
       id="path5"
       style="stroke-width:0.325121" />
    <path
       fill-rule="evenodd"
       fill="#000000"
       fill-opacity="1"
       d="m 185.52349,228.03644 h 2.41306 c 0.53948,-0.44429 2.01436,-1.00429 4.43299,-1.67073 2.41305,-0.66876 8.18291,-3.00594 17.3054,-7.01731 1.07479,-0.89091 1.88472,-1.7795 2.41863,-2.67156 -1.60871,-4.90112 -3.48645,-10.91182 -5.63464,-18.04136 -1.07619,-4.90113 -3.48785,-10.2477 -7.24474,-16.03857 0,-2.67155 -0.53949,-0.22215 -1.61428,7.35168 -0.53391,3.11585 -0.80435,7.34822 -0.80435,12.69248 0,1.78297 0.27044,4.45683 0.80435,8.02044 0.53949,3.56593 0.80993,6.23517 0.80993,8.01813 v 1.3352 c -3.22298,0.89206 -7.51936,3.11932 -12.88495,6.68524 z m 16.10236,-10.02324 c 1.07479,-0.4443 2.68349,-1.11652 4.83308,-2.00858 -0.54089,-1.3352 -1.21002,-3.67238 -2.01437,-7.01037 -0.80435,-3.34146 -1.47348,-5.68095 -2.01297,-7.01962 -0.5353,7.12607 -0.80435,12.25281 -0.80435,15.37213 l -0.001,0.66644"
       id="path6"
       style="stroke-width:0.325121" />
    <path
       fill-rule="evenodd"
       fill="#000000"
       fill-opacity="1"
       d="m 279.72041,71.00493 c 0.53948,1.336355 1.07479,2.671552 1.61288,4.007907 0,-7.573833 4.02313,-11.359592 12.0764,-11.359592 3.216,0 7.24474,1.336355 12.07783,4.01022 4.82748,2.671552 7.78283,4.007907 8.85622,4.007907 2.14122,-0.444295 4.29079,-0.892061 6.439,-1.336355 2.68349,0 4.83167,1.561974 6.44036,4.67782 0,0.446608 0.26766,1.11305 0.80296,2.00511 0,-0.444294 -1.33826,1.560816 -4.02453,6.015331 0.53809,2.671555 0.80992,3.785759 0.80992,3.341465 2.67931,1.3352 6.43761,3.563612 11.26927,6.679462 0.5353,1.338668 0.80296,2.229571 0.80296,2.673865 v 1.336355 c -3.75688,1.782963 -5.63462,4.232365 -5.63462,7.351685 0,3.56245 1.47348,6.68177 4.42879,9.35333 2.95117,2.67502 5.77126,5.34657 8.45057,8.0216 -3.75409,3.11584 -5.63462,6.67946 -5.63462,10.68968 0,5.34657 2.95531,10.91414 8.85762,16.70501 -0.53948,0.44429 -1.20583,1.33635 -2.013,2.67155 -0.80296,1.33867 -1.21,3.11932 -1.21,5.34658 0,2.22725 1.88056,7.12953 5.63883,14.70337 -0.004,-1.33867 -0.27183,-3.56593 -0.80714,-6.68525 -0.53808,-3.11932 -0.80295,-5.3431 -0.80295,-6.67946 0,-2.22957 0.26487,-4.01022 0.80295,-5.34657 2.14957,-2.67387 3.22018,-4.01022 3.22018,-4.01022 0,-0.44661 0,-0.8909 0,-1.3352 -4.29357,-4.45567 -6.97709,-8.46589 -8.05187,-12.02951 0,-0.8909 0,-1.77949 0,-2.67155 0,-3.56592 1.61009,-6.23748 4.83169,-8.02044 0.53531,-0.89206 0.80714,-2.0028 0.80714,-3.33799 -0.004,-0.89438 -1.88053,-3.11932 -5.63883,-6.68525 -3.75409,-3.56361 -5.76984,-5.90079 -6.03749,-7.01384 -0.26765,-1.11652 -0.67195,-2.34064 -1.20725,-3.67584 0.5353,-0.89206 0.80716,-1.56082 0.80716,-2.00511 3.7541,-1.33635 5.63462,-3.341465 5.63462,-6.013017 0,-4.454515 -4.02453,-8.68804 -12.0764,-12.698263 1.61009,-2.671552 2.41305,-4.89881 2.41305,-6.681773 0,-7.573832 -4.02596,-11.359592 -12.07362,-11.359592 -1.0734,0 -3.48648,0.666442 -7.24475,2.00511 -11.27626,-4.901126 -17.98149,-7.351686 -20.13109,-7.351686 -9.65919,0 -14.49224,3.563613 -14.49224,10.693151"
       id="path7"
       style="stroke-width:0.325121" />
    <path
       fill-rule="evenodd"
       fill="#000000"
       fill-opacity="1"
       d="m 242.68818,191.28379 c 1.6101,-0.44429 4.2936,-1.55734 8.05187,-3.34031 0.53113,0 7.24335,-1.89287 20.12692,-5.67863 12.87936,-3.78808 23.07802,-5.68096 30.59042,-5.68096 3.223,-0.002 9.66475,0.66644 19.32535,2.0028 h 2.41166 c 0,-0.4443 -0.26348,-0.88859 -0.80296,-1.33636 -6.44178,-3.56245 -14.75574,-5.3431 -24.95858,-5.3431 -4.29361,0 -7.51657,0.22215 -9.65779,0.66644 -22.00745,4.45452 -36.76737,10.02324 -44.28114,16.70501 -0.53949,0.89206 -0.80436,1.56082 -0.80436,2.00511 h -0.001"
       id="path8"
       style="stroke-width:0.325121" />
    <path
       fill-rule="evenodd"
       fill="#000000"
       fill-opacity="1"
       d="m 262.81228,333.6131 h 0.80717 c 2.14817,-0.44314 4.02452,-1.33404 5.63461,-2.66927 8.58579,-5.35004 14.7641,-13.36467 18.52101,-24.05899 1.60592,-4.00561 2.6807,-8.23912 3.216,-12.69249 0.53809,-2.67616 1.0734,-6.90507 1.61288,-12.69826 0,-5.3454 -0.53948,-8.68688 -1.61288,-10.02207 -2.14121,9.79877 -6.16995,23.16347 -12.07361,40.09412 -1.60874,4.45334 -4.02874,8.68341 -7.24336,12.69245 -2.68491,2.22728 -5.63882,5.34543 -8.86182,9.35566 v 0"
       id="path9"
       style="stroke-width:0.325121" />
    <path
       fill-rule="evenodd"
       fill="#000000"
       fill-opacity="1"
       d="m 293.40969,273.47481 c 0,3.56129 0.5353,6.90392 1.61009,10.02207 4.82891,23.61126 19.58883,41.6538 44.28115,54.12642 l 1.61288,-0.6676 c -6.44596,-5.79318 -16.10236,-15.81525 -28.98872,-30.07086 -5.36696,-11.58175 -11.54109,-23.38796 -18.5154,-35.41282 0,0.44429 0,1.11189 0,2.00279"
       id="path10"
       style="stroke-width:0.325121" />
  </g>
</svg>
