<?xml version="1.0" encoding="UTF-8" standalone="no"?>
<!-- Created with Inkscape (http://www.inkscape.org/) -->

<svg
   width="399"
   height="113"
   viewBox="0 0 105.56875 29.897916"
   version="1.1"
   id="svg1"
   inkscape:version="1.4.2 (f4327f4, 2025-05-13)"
   sodipodi:docname="cuentaregresiva.svg"
   xml:space="preserve"
   xmlns:inkscape="http://www.inkscape.org/namespaces/inkscape"
   xmlns:sodipodi="http://sodipodi.sourceforge.net/DTD/sodipodi-0.dtd"
   xmlns="http://www.w3.org/2000/svg"
   xmlns:svg="http://www.w3.org/2000/svg"><sodipodi:namedview
     id="namedview1"
     pagecolor="#505050"
     bordercolor="#eeeeee"
     borderopacity="1"
     inkscape:showpageshadow="0"
     inkscape:pageopacity="0"
     inkscape:pagecheckerboard="0"
     inkscape:deskcolor="#505050"
     inkscape:document-units="mm"
     inkscape:zoom="1.8101934"
     inkscape:cx="207.71261"
     inkscape:cy="4.1432037"
     inkscape:window-width="1920"
     inkscape:window-height="1009"
     inkscape:window-x="-8"
     inkscape:window-y="-8"
     inkscape:window-maximized="1"
     inkscape:current-layer="layer1"
     showgrid="false"
     inkscape:lockguides="true" /><defs
     id="defs1"><linearGradient
       id="swatch5"
       inkscape:swatch="solid"><stop
         style="stop-color:#000000;stop-opacity:1;"
         offset="0"
         id="stop5" /></linearGradient></defs><g
     inkscape:label="Capa 1"
     inkscape:groupmode="layer"
     id="layer1"><g
       id="g5"><path
         id="path803"
         style="stroke-width:0.107031"
         d="m 11.517202,3.208999 c -0.05342,0 -0.102964,0.028599 -0.130078,0.07395 L 4.4499676,14.975956 c -0.027127,0.0453 -0.027127,0.100681 0,0.146096 l 6.9371564,11.693894 c 0.02708,0.04426 0.07669,0.07272 0.130078,0.07272 h 13.874791 c 0.05301,0 0.103312,-0.02846 0.129586,-0.07272 l 0.03205,-0.05396 c -0.09266,-0.05022 -0.163679,-0.138419 -0.194626,-0.256129 l -0.05387,0.09034 H 11.604074 L 4.7533132,15.048986 11.604074,3.501651 h 13.616588 c 0.004,-0.1200893 0.04378,-0.2202032 0.106776,-0.292657 z m 16.334559,19.095212 -0.258693,0.435569 c 0.05018,-0.07376 0.100587,-0.147525 0.151432,-0.220971 0.04505,-0.06596 0.08908,-0.132293 0.1325,-0.199067 -0.0083,-0.0045 -0.01693,-0.0092 -0.02527,-0.01563 z"
         sodipodi:nodetypes="sccccsscccccccccsccccsc" /><path
         fill-rule="nonzero"
         fill="#1e252b"
         fill-opacity="1"
         d="m 11.485528,26.865313 c -0.0114,0 -0.02367,-0.0011 -0.03508,-0.0042 C 8.3557533,26.189889 7.1872344,23.811536 7.8756259,19.592531 7.9935755,18.870527 7.8317816,18.228526 7.3941963,17.683826 6.2388327,16.248495 3.5427036,15.920275 3.515955,15.916976 c -0.085499,-0.01072 -0.1460122,-0.0833 -0.1359207,-0.163698 0.011397,-0.07999 0.088565,-0.137307 0.1740624,-0.126586 0.1153231,0.01361 2.8531073,0.348423 4.0878299,1.881898 0.4893318,0.609427 0.6726095,1.324834 0.5410666,2.128054 -0.6598918,4.038829 0.4323325,6.309555 3.3371748,6.939597 0.08331,0.01897 0.13592,0.0969 0.116636,0.175247 -0.01667,0.06762 -0.08068,0.113801 -0.151276,0.113801"
         id="path804"
         style="stroke-width:0.108851;fill:#000000;fill-opacity:1" /><path
         fill-rule="nonzero"
         fill="#ffffff"
         fill-opacity="1"
         d="m 10.584035,23.815687 c 0.05175,0.04783 0.57703,-2.094254 -0.153892,-3.160134 -0.5735172,-0.883634 -1.4017803,-0.650256 -1.3895116,-0.653549 -0.00651,0.0065 -0.4884451,0.587988 -0.1525781,1.366887 0.423117,0.839512 1.7240427,2.387008 1.6959817,2.446796"
         id="path805"
         style="fill:#a8a993;fill-opacity:1;stroke-width:0.108851"
         sodipodi:nodetypes="ccccc" /><path
         fill-rule="nonzero"
         fill="#1e252b"
         fill-opacity="1"
         d="m 9.1327192,20.133127 c -0.090764,0.130702 -0.3560379,0.59087 -0.1008544,1.180927 0.2556324,0.507997 0.8664161,1.312051 1.2702372,1.844368 0.09559,0.124526 0.17101,0.224722 0.231511,0.304714 0.125841,-0.598291 0.281494,-1.975904 -0.234575,-2.728415 -0.3279758,-0.506761 -0.7353109,-0.612319 -1.0194317,-0.612319 -0.062702,0 -0.1131343,0.0054 -0.1468871,0.01072 z m 1.4526398,3.829349 c -0.03947,0 -0.07981,-0.01484 -0.109183,-0.04123 -0.02236,-0.01979 -0.03814,-0.04618 -0.04472,-0.0738 -0.03815,-0.06763 -0.212226,-0.297705 -0.381911,-0.519133 -0.410399,-0.541807 -1.0303981,-1.358644 -1.3018013,-1.895911 -0.3323649,-0.77148 0.046908,-1.356586 0.1582801,-1.50214 0.018858,-0.03257 0.059637,-0.09937 0.3735822,-0.09937 0.2977141,0 0.859827,0.09731 1.282944,0.748383 0.735311,1.072487 0.270539,3.121374 0.168371,3.297855 -0.04472,0.07711 -0.116625,0.08535 -0.145562,0.08535"
         id="path806"
         style="stroke-width:0.108851;fill:#000000;fill-opacity:1" /><path
         fill-rule="nonzero"
         fill="#1e252b"
         fill-opacity="1"
         d="m 8.2079906,18.784785 c 1.0211829,1.120316 1.736323,2.435248 2.1068294,3.83183 -0.4590697,-1.373074 -1.2505044,-2.624925 -2.3111536,-3.657406 -0.059637,-0.05814 -0.065339,-0.145554 -0.012718,-0.196274 0.053935,-0.05196 0.1473248,-0.04536 0.2091507,0.01484 l 0.00786,0.007"
         id="path807"
         style="stroke-width:0.108851;fill:#000000;fill-opacity:1" /><path
         fill-rule="nonzero"
         fill="#1e252b"
         fill-opacity="1"
         d="m 10.102605,20.773894 c -0.2569458,-0.04659 -0.5042382,-0.124938 -0.7475909,-0.200813 0.028937,-0.01484 0.056999,-0.02968 0.085061,-0.04329 -0.031126,0.121635 -0.068393,0.239564 -0.1144363,0.353777 -0.046032,0.115047 -0.097341,0.225967 -0.1661825,0.33028 0.012718,-0.125762 0.035077,-0.246984 0.059637,-0.368206 0.024548,-0.121645 0.05261,-0.242868 0.08331,-0.363267 0.0074,-0.03711 0.045595,-0.05608 0.084186,-0.04453 0.2433414,0.08164 0.4871317,0.181833 0.7160147,0.336053"
         id="path808"
         style="stroke-width:0.108851" /><path
         fill-rule="nonzero"
         fill="#1e252b"
         fill-opacity="1"
         d="m 10.39199,21.72803 c -0.188542,-0.0371 -0.361291,-0.107615 -0.5331754,-0.182657 0.030251,-0.01072 0.06095,-0.02228 0.089888,-0.03381 -0.033764,0.08659 -0.071906,0.169874 -0.1179496,0.248219 -0.04472,0.07917 -0.096465,0.155043 -0.1613558,0.223487 0.011,-0.09607 0.033326,-0.184726 0.059199,-0.273373 0.025862,-0.08866 0.056124,-0.174012 0.089001,-0.259778 v -0.0011 c 0.013155,-0.03505 0.052622,-0.05072 0.088575,-0.03381 0.1705608,0.07917 0.3376188,0.173179 0.4858188,0.312546"
         id="path809"
         style="stroke-width:0.108851" /><path
         fill-rule="nonzero"
         fill="#ffffff"
         fill-opacity="1"
         d="m 5.6968903,25.670368 c -0.049546,0.04989 -0.7050603,-2.059198 -0.040341,-3.162193 0.5173937,-0.913327 1.35925,-0.726532 1.3456569,-0.728601 0.00786,0.0054 0.5244091,0.560775 0.2367748,1.356585 -0.3713821,0.860127 -1.5745407,2.475245 -1.5420899,2.534209"
         id="path810"
         style="stroke-width:0.108851;fill:#a8a993;fill-opacity:1" /><path
         fill-rule="nonzero"
         fill="#1e252b"
         fill-opacity="1"
         d="m 6.8294452,21.911521 c -0.2459792,0 -0.7085624,0.08577 -1.0360894,0.665098 -0.4713609,0.780959 -0.2310728,2.149092 -0.068403,2.739139 0.05481,-0.08453 0.1245273,-0.187608 0.2122151,-0.318732 0.3700688,-0.552943 0.9304308,-1.387915 1.158428,-1.915703 0.2152907,-0.597479 -0.077608,-1.040736 -0.1762623,-1.166498 -0.023673,-0.0021 -0.053935,-0.0033 -0.089888,-0.0033 z m -1.1347437,3.905636 c -0.035077,0 -0.099979,-0.01034 -0.1460116,-0.08329 -0.1135609,-0.183491 -0.6892783,-2.19899 -0.028062,-3.29868 0.4029461,-0.70922 0.9922456,-0.816014 1.3088172,-0.816014 0.1166364,0 0.2692257,0 0.3152584,0.09607 0.1324183,0.159582 0.5143292,0.712515 0.2416015,1.468329 -0.2416015,0.55954 -0.8107301,1.408118 -1.1864899,1.969728 -0.1552271,0.232142 -0.315696,0.470883 -0.3490224,0.540572 -0.00572,0.02721 -0.019295,0.05484 -0.04078,0.0771 -0.028937,0.02928 -0.072782,0.04618 -0.1153118,0.04618"
         id="path811"
         style="stroke-width:0.108851;fill:#000000;fill-opacity:1"
         sodipodi:nodetypes="scccccsscccscccccc" /><path
         fill-rule="nonzero"
         fill="#1e252b"
         fill-opacity="1"
         d="m 7.759876,20.519479 c -0.951915,1.173506 -1.5850582,2.525964 -1.8678659,3.939034 0.3740087,-1.395335 1.0865222,-2.688418 2.0822699,-3.776571 0.056124,-0.06144 0.056124,-0.148857 0,-0.197508 -0.057438,-0.04742 -0.1503892,-0.03588 -0.2078263,0.02639 l -0.00663,0.0087"
         id="path812"
         style="stroke-width:0.108851;fill:#000000;fill-opacity:1" /><path
         fill-rule="nonzero"
         fill="#1e252b"
         fill-opacity="1"
         d="m 5.9897889,22.607136 c 0.2547457,-0.0602 0.4950227,-0.151739 0.7339865,-0.240397 -0.028937,-0.01402 -0.058313,-0.02639 -0.08725,-0.03917 0.039017,0.119164 0.082872,0.23627 0.1354828,0.34719 0.053059,0.111744 0.1122474,0.219771 0.1863533,0.319967 -0.020171,-0.123693 -0.049109,-0.244102 -0.081997,-0.36409 -0.031126,-0.119576 -0.068403,-0.23874 -0.1052321,-0.357904 -0.010102,-0.03587 -0.049546,-0.05402 -0.086375,-0.03917 -0.2394014,0.09401 -0.474863,0.207822 -0.6949691,0.37358"
         id="path813"
         style="stroke-width:0.108851" /><path
         fill-rule="nonzero"
         fill="#1e252b"
         fill-opacity="1"
         d="m 5.7595917,23.576124 c 0.1854666,-0.04743 0.3547134,-0.127418 0.5208958,-0.211949 -0.030251,-0.0087 -0.061825,-0.01813 -0.092076,-0.02845 0.039466,0.08412 0.081997,0.165758 0.1337317,0.241633 0.049109,0.07586 0.105232,0.148846 0.1740735,0.214408 -0.017107,-0.09524 -0.045169,-0.182657 -0.076732,-0.269257 -0.030251,-0.08782 -0.066214,-0.172354 -0.1030432,-0.255639 l -0.00135,-0.0011 c -0.014469,-0.03382 -0.05481,-0.04784 -0.08945,-0.02846 -0.1652957,0.08741 -0.3266514,0.190912 -0.4660853,0.338534"
         id="path814"
         style="stroke-width:0.108851" /><path
         fill-rule="nonzero"
         fill="#ffffff"
         fill-opacity="1"
         d="m 11.033025,29.76073 c 0.0044,0.06762 -2.0831457,-0.918268 -2.4896053,-2.128065 -0.3569133,-0.978467 0.3612912,-1.429969 0.3512113,-1.422549 0.010102,-0.0012 0.7936236,0.02103 1.218054,0.760755 0.415226,0.843639 0.851947,2.772125 0.92034,2.789859"
         id="path815"
         style="stroke-width:0.108851;fill:#a8a993;fill-opacity:1" /><path
         fill-rule="nonzero"
         fill="#1e252b"
         fill-opacity="1"
         d="m 8.9428637,26.359787 c -0.1289162,0.103499 -0.5209069,0.49192 -0.2525568,1.225462 0.2876342,0.857245 1.5153411,1.623361 2.0857831,1.913645 -0.02806,-0.09483 -0.06183,-0.213997 -0.103481,-0.362855 C 10.495471,28.503517 10.225808,27.54938 9.9710622,27.033139 9.6523017,26.47607 9.1068462,26.376697 8.9428637,26.359787 Z m 2.0835943,3.549801 c -0.204335,0 -2.2261037,-1.025895 -2.6312498,-2.232388 -0.2310615,-0.634581 -0.046909,-1.074546 0.1482115,-1.332255 0.00135,-0.0021 0.2179174,-0.283686 0.355589,-0.280793 0.2481792,0.0012 0.9589304,0.154208 1.3504833,0.838275 0.270528,0.547993 0.543256,1.516981 0.723031,2.158572 0.07498,0.265129 0.151265,0.539336 0.181965,0.610249 0.01885,0.02228 0.03113,0.04949 0.03333,0.08 0.0021,0.04041 -0.01315,0.08123 -0.04254,0.110909 -0.02938,0.02969 -0.07497,0.04743 -0.118814,0.04743"
         id="path816"
         style="stroke-width:0.108851;fill:#000000;fill-opacity:1" /><path
         fill-rule="nonzero"
         fill="#1e252b"
         fill-opacity="1"
         d="m 8.4298477,24.8292 c 0.2652746,1.455546 0.8857115,2.812131 1.7928963,3.971198 -0.831777,-1.208552 -1.3517972,-2.580802 -1.5188552,-4.007066 -0.010102,-0.0804 -0.078483,-0.140192 -0.1538913,-0.134006 -0.076294,0.0054 -0.1311051,0.07794 -0.1210253,0.160395 l 0.00113,0.0095"
         id="path817"
         style="stroke-width:0.108851;fill:#000000;fill-opacity:1" /><path
         fill-rule="nonzero"
         fill="#1e252b"
         fill-opacity="1"
         d="m 8.8499004,27.470212 c 0.1258407,-0.215243 0.2187928,-0.443258 0.3108807,-0.66798 -0.029386,0.01034 -0.059637,0.02185 -0.088575,0.03381 0.1188253,0.0536 0.240277,0.103077 0.3626157,0.14225 0.1232028,0.03999 0.2468547,0.07298 0.3757597,0.08989 -0.1100474,-0.07092 -0.2231817,-0.131948 -0.3389314,-0.191323 -0.1157608,-0.05979 -0.232386,-0.115872 -0.3503357,-0.171943 -0.03464,-0.01691 -0.076294,-0.0021 -0.08945,0.03299 -0.089887,0.228839 -0.1617936,0.468413 -0.1819644,0.732306"
         id="path818"
         style="stroke-width:0.108851" /><path
         fill-rule="nonzero"
         fill="#1e252b"
         fill-opacity="1"
         d="m 9.4457775,28.289519 c 0.089887,-0.159572 0.1416227,-0.331514 0.1898554,-0.502634 -0.028062,0.01484 -0.056124,0.02968 -0.084186,0.04329 0.092076,0.03051 0.1841645,0.05608 0.27843,0.07298 0.092952,0.01774 0.1885421,0.02928 0.2850081,0.02639 -0.08551,-0.05278 -0.1718851,-0.09401 -0.2617729,-0.131947 -0.08725,-0.03793 -0.1784511,-0.07091 -0.2679011,-0.101431 h -0.00135 c -0.036828,-0.01278 -0.074981,0.0054 -0.084186,0.04205 -0.043844,0.173189 -0.074106,0.355022 -0.053935,0.551296"
         id="path819"
         style="stroke-width:0.108851" /><path
         fill-rule="nonzero"
         fill="#1e252b"
         fill-opacity="1"
         d="m 3.5348125,14.489908 c -0.077171,0 -0.1446984,-0.05484 -0.1547782,-0.128648 -0.010105,-0.0804 0.050418,-0.153388 0.1359205,-0.162872 0.026748,-0.0029 2.7241909,-0.333579 3.8782413,-1.768917 0.4375857,-0.543869 0.5993792,-1.185463 0.4814296,-1.906636 -0.6883915,-4.2202476 0.4801274,-6.5973578 3.5748253,-7.2694628 0.08331,-0.018143 0.167495,0.031337 0.186353,0.1096808 0.01928,0.079168 -0.03333,0.1570994 -0.116636,0.1752417 -2.9048425,0.6312847 -3.9970668,2.9007756 -3.337175,6.9404193 0.1315429,0.801992 -0.051735,1.519043 -0.5410666,2.128061 -1.2347226,1.533473 -3.9725068,1.868289 -4.0878299,1.881897 l -0.019284,0.0012"
         id="path820"
         style="stroke-width:0.108851;fill:#000000;fill-opacity:1" /><path
         fill-rule="nonzero"
         fill="#ffffff"
         fill-opacity="1"
         d="m 10.584035,6.2984644 c 0.05175,-0.046181 0.57703,2.0942492 -0.153892,3.1605468 C 9.8566258,10.342645 9.0283627,10.110088 9.0406314,10.112561 9.0341214,10.105964 8.5521863,9.5245721 8.8880533,8.7452596 9.3111703,7.906158 10.612096,6.3599021 10.584035,6.2984644"
         id="path821"
         style="fill:#a8a993;fill-opacity:1;stroke-width:0.108851"
         sodipodi:nodetypes="ccccc" /><path
         fill-rule="nonzero"
         fill="#1e252b"
         fill-opacity="1"
         d="m 9.1327192,9.9814397 c 0.033753,0.00536 0.084186,0.010721 0.1468871,0.010721 0.2841208,0 0.6914559,-0.1055578 1.0181187,-0.6090185 0.517382,-0.7549857 0.361729,-2.1334207 0.235888,-2.7308943 -0.0605,0.079994 -0.135921,0.1793658 -0.231511,0.3051284 -0.4038211,0.5319116 -1.0146048,1.3363775 -1.2737393,1.850146 -0.2516814,0.5851033 0.013593,1.0432079 0.1043565,1.1739174 z m 0.1468871,0.3030653 c -0.2231817,0 -0.3086806,-0.03505 -0.3455203,-0.06639 v 8.45e-4 l -0.00135,-8.45e-4 c -0.014469,-0.01278 -0.021047,-0.02433 -0.026748,-0.03299 h 0.00113 C 8.7983802,10.042878 8.4155937,9.4536516 8.7444451,8.6904196 9.0193618,8.1449005 9.6393609,7.3276526 10.04976,6.7874937 c 0.169685,-0.223073 0.343758,-0.453155 0.381911,-0.5195413 0.0066,-0.028451 0.02236,-0.054016 0.04472,-0.075045 0.02937,-0.025152 0.06972,-0.041233 0.109183,-0.041233 0.02894,0 0.100843,0.00866 0.145563,0.08659 0.102167,0.1764788 0.566939,2.225371 -0.17056,3.2999159 -0.420929,0.6490157 -0.9830417,0.7463257 -1.2807558,0.7463257"
         id="path822"
         style="stroke-width:0.108851;fill:#000000;fill-opacity:1"
         sodipodi:nodetypes="cscccccccccccccccsccc" /><path
         fill-rule="nonzero"
         fill="#1e252b"
         fill-opacity="1"
         d="M 8.2079906,11.3306 C 9.2291735,10.20946 9.9443136,8.8941128 10.31482,7.4975346 9.8557503,8.871022 9.0643156,10.124107 8.0036664,11.156181 c -0.059637,0.05731 -0.065339,0.14473 -0.012718,0.196684 0.053935,0.05031 0.1473248,0.04412 0.2091507,-0.01608 l 0.00786,-0.0062"
         id="path823"
         style="stroke-width:0.108851;fill:#000000;fill-opacity:1"
         sodipodi:nodetypes="cccccc" /><path
         fill-rule="nonzero"
         fill="#1e252b"
         fill-opacity="1"
         d="M 10.102605,9.3406705 C 9.8456592,9.3880891 9.5983668,9.4651959 9.3550141,9.5423027 9.3839515,9.557147 9.4120134,9.570754 9.4400753,9.5855984 9.4089489,9.4643717 9.3716826,9.3447948 9.325639,9.2309899 9.2796066,9.1167733 9.228298,9.0062681 9.1594565,8.9015347 c 0.012718,0.1257616 0.035077,0.2469882 0.059637,0.3686276 0.024548,0.1212258 0.05261,0.241628 0.08331,0.3628547 0.0074,0.035873 0.045595,0.056078 0.084186,0.043295 C 9.6299313,9.596319 9.8737216,9.4948845 10.102605,9.340671"
         id="path824"
         style="stroke-width:0.108851" /><path
         fill-rule="nonzero"
         fill="#1e252b"
         fill-opacity="1"
         d="m 10.39199,8.386528 c -0.188542,0.037935 -0.361291,0.1088564 -0.5331754,0.1826644 0.030251,0.011546 0.06095,0.022266 0.089888,0.033812 C 9.9149385,8.5172385 9.8767968,8.433947 9.8307533,8.3547787 9.7860336,8.2756108 9.734288,8.2005653 9.6693975,8.1321185 c 0.011,0.094836 0.033326,0.184726 0.059199,0.2721404 0.025862,0.088652 0.056124,0.1752427 0.089001,0.2610084 v 8.445e-4 c 0.013155,0.035048 0.052622,0.049893 0.088575,0.033812 0.1705605,-0.079168 0.3376185,-0.1731801 0.4858185,-0.3133745"
         id="path825"
         style="stroke-width:0.108851" /><path
         fill-rule="nonzero"
         fill="#ffffff"
         fill-opacity="1"
         d="M 5.6968903,4.4437825 C 5.6473444,4.3943025 4.99183,6.5033951 5.6565488,7.6076282 6.1739425,8.5205367 7.0157988,8.3337491 7.0022057,8.3358107 7.0100662,8.3296281 7.5266148,7.775448 7.2389805,6.9784049 6.8675984,6.1178614 5.6644398,4.5031587 5.6968906,4.4437825"
         id="path826"
         style="fill:#a8a993;fill-opacity:1;stroke-width:0.108851"
         sodipodi:nodetypes="ccccc" /><path
         fill-rule="nonzero"
         fill="#1e252b"
         fill-opacity="1"
         d="m 5.7249522,4.799627 c -0.1626692,0.5900519 -0.4029573,1.956942 0.066204,2.7362546 0.3297271,0.5813919 0.7923103,0.6679819 1.0382894,0.6679819 0.035953,0 0.066215,-0.00206 0.089888,-0.00412 C 7.0166746,8.0739764 7.310011,7.6286547 7.0920938,7.025822 6.8675981,6.5066896 6.3072361,5.6704741 5.9371673,5.1175331 5.8494795,4.9876476 5.7797627,4.8829153 5.7249522,4.7996229 Z m 1.104493,3.6965818 c -0.3165716,0 -0.9058711,-0.1063822 -1.3110172,-0.8201339 -0.6590164,-1.095573 -0.083299,-3.110654 0.030262,-3.2945546 0.046032,-0.073809 0.1109342,-0.08453 0.1460116,-0.08453 0.042531,0 0.086375,0.018143 0.1153118,0.047831 0.021484,0.021854 0.035077,0.048243 0.04078,0.077107 0.033326,0.068448 0.1937953,0.3080142 0.3490224,0.5401589 C 6.5755756,5.523687 7.1447042,6.3722719 7.3836679,6.9235639 7.6656,7.7065879 7.260465,8.2653007 7.1359377,8.4108553 c -0.025873,0.042058 -0.057437,0.085353 -0.3064919,0.085353"
         id="path827"
         style="stroke-width:0.108851;fill:#000000;fill-opacity:1" /><path
         fill-rule="nonzero"
         fill="#1e252b"
         fill-opacity="1"
         d="M 7.759876,9.5963186 C 6.807961,8.4224018 6.1748178,7.0703552 5.8920101,5.6556347 6.2660188,7.0522129 6.9785323,8.345295 7.97428,9.4334463 c 0.056124,0.060201 0.056124,0.1480278 0,0.1966835 -0.057438,0.048243 -0.1503892,0.036698 -0.2078263,-0.02639 l -0.00663,-0.00742"
         id="path828"
         style="stroke-width:0.108851;fill:#000000;fill-opacity:1" /><path
         fill-rule="nonzero"
         fill="#1e252b"
         fill-opacity="1"
         d="M 5.9897889,7.5070179 C 6.2445346,7.568456 6.4848116,7.6591698 6.7237754,7.7490585 6.694838,7.761429 6.6654624,7.774211 6.6365251,7.7869931 6.6755422,7.6678289 6.7193972,7.5515508 6.7720079,7.4398074 6.8250671,7.3276523 6.8842553,7.220033 6.9583612,7.1198355 6.93819,7.2443609 6.9092526,7.3647622 6.8763646,7.4839273 6.8452381,7.6043296 6.8079611,7.7226693 6.7711325,7.8418345 6.7610304,7.8777076 6.7215867,7.895849 6.6847576,7.8818305 6.4453567,7.7878183 6.2098951,7.6727762 5.9897889,7.5070179"
         id="path829"
         style="stroke-width:0.108851" /><path
         fill-rule="nonzero"
         fill="#1e252b"
         fill-opacity="1"
         d="m 5.7595917,6.5392679 c 0.1854666,0.047419 0.3547134,0.1278241 0.5208958,0.2111154 -0.030251,0.00949 -0.061825,0.018967 -0.092076,0.028451 0.039466,-0.083292 0.081997,-0.1645213 0.1337317,-0.2408036 0.049109,-0.077107 0.105232,-0.1496777 0.1740735,-0.2140014 -0.017107,0.094012 -0.045169,0.1826645 -0.076732,0.2688418 -0.030251,0.086591 -0.066214,0.1711196 -0.1030432,0.2556482 h -0.00135 c -0.014469,0.034636 -0.05481,0.047419 -0.08945,0.02845 C 6.0603443,6.7895555 5.8989886,6.6868839 5.7595547,6.5392678"
         id="path830"
         style="stroke-width:0.108851" /><path
         fill-rule="nonzero"
         fill="#ffffff"
         fill-opacity="1"
         d="M 11.033025,0.354658 C 11.037407,0.28703472 8.9498793,1.2729278 8.5434197,2.4827175 8.1865064,3.461189 8.9047109,3.913108 8.894631,3.904448 8.904733,3.906508 9.6882546,3.88342 10.112685,3.1432787 10.527911,2.3012901 10.964632,0.37156312 11.033025,0.354658"
         id="path831"
         style="fill:#a8a993;fill-opacity:1;stroke-width:0.108851"
         sodipodi:nodetypes="ccccc" /><path
         fill-rule="nonzero"
         fill="#1e252b"
         fill-opacity="1"
         d="M 10.77609,0.61649079 C 10.205648,0.90553737 8.9788166,1.672068 8.6916201,2.526013 8.42327,3.2628555 8.8139475,3.6520996 8.9428637,3.7555958 9.1046573,3.7378651 9.6523017,3.6384922 9.9758888,3.0748308 10.225808,2.5660099 10.495471,1.6106302 10.672609,0.97934544 10.714264,0.82966776 10.748029,0.711327 10.77609,0.61649079 Z M 8.894631,4.0512397 h -0.00786 l -0.01448,-0.00206 C 8.7363733,4.0227919 8.5447667,3.772504 8.5434535,3.7692053 8.3483336,3.5127339 8.1641803,3.0727725 8.3965664,2.435303 8.800388,1.2308726 10.822156,0.20457078 11.026492,0.20457078 c 0.04384,0 0.08944,0.0181432 0.118814,0.0478311 0.02939,0.0292754 0.04473,0.0717462 0.04254,0.11174234 -0.0022,0.0296879 -0.01448,0.0581392 -0.03333,0.0799929 -0.0307,0.0709221 -0.106983,0.34429969 -0.181965,0.60943118 -0.17977,0.6415936 -0.452497,1.6118168 -0.719523,2.1511513 C 9.855784,3.9003281 9.1393306,4.0512429 8.8968535,4.0512429 h -0.00224"
         id="path832"
         style="stroke-width:0.108851;fill:#000000;fill-opacity:1" /><path
         fill-rule="nonzero"
         fill="#1e252b"
         fill-opacity="1"
         d="M 8.4298477,5.2853583 C 8.6951223,3.830641 9.3155592,2.4740586 10.222744,1.3141608 9.390967,2.5227144 8.8709468,3.8949647 8.7038888,5.3220555 8.6937867,5.4024608 8.6254056,5.4614244 8.5499975,5.4560641 8.4737034,5.4498815 8.4188924,5.3781327 8.4289722,5.2948416 l 0.00113,-0.00948"
         id="path833"
         style="stroke-width:0.108851;fill:#000000;fill-opacity:1"
         sodipodi:nodetypes="cccccc" /><path
         fill-rule="nonzero"
         fill="#1e252b"
         fill-opacity="1"
         d="M 8.8499004,2.6443527 C 8.9757411,2.8604167 9.0686932,3.0884382 9.1607811,3.3135729 9.1313948,3.3016149 9.1011438,3.2913068 9.0722064,3.2797612 9.1910317,3.22492 9.3124834,3.176265 9.4348221,3.1358554 9.5580249,3.0958595 9.6816768,3.0632843 9.8105818,3.0463794 9.7005344,3.1181256 9.5874001,3.179151 9.4716504,3.2385272 9.3558896,3.2987279 9.2392644,3.3543937 9.1213147,3.4096457 9.0866748,3.4273765 9.0450206,3.412525 9.0318646,3.376659 8.9419773,3.1486385 8.870071,2.9082466 8.8499002,2.6443524"
         id="path834"
         style="stroke-width:0.108851" /><path
         fill-rule="nonzero"
         fill="#1e252b"
         fill-opacity="1"
         d="m 9.4457775,1.8250443 c 0.089887,0.1603982 0.1416227,0.3315167 0.1898554,0.5026353 -0.028062,-0.014844 -0.056124,-0.028863 -0.084186,-0.043295 0.092076,-0.029688 0.1841645,-0.056078 0.27843,-0.072984 0.092952,-0.018142 0.1885421,-0.028451 0.2850081,-0.025565 -0.08551,0.052779 -0.1718851,0.093188 -0.2617729,0.1311227 -0.08725,0.037935 -0.1784511,0.070509 -0.2679011,0.1022591 H 9.583861 C 9.5470326,2.4320011 9.5088793,2.4130356 9.4996749,2.3759233 9.4558307,2.2027422 9.425569,2.022552 9.4457402,1.825044"
         id="path835"
         style="stroke-width:0.108851" /><path
         fill-rule="nonzero"
         fill="#ffffff"
         fill-opacity="1"
         d="m 5.063747,15.514972 c 0,0 2.2896696,1.201136 3.42924,0.199159 0.920351,-0.809414 1.0159297,-1.297206 1.0159297,-1.297206 L 8.3211136,13.960883 8.6916201,12.831498 c 0,0 -1.5548075,-0.240803 -2.1081541,0.188025 -1.253569,0.971048 -1.519719,2.495449 -1.519719,2.495449"
         id="path836"
         style="stroke-width:0.108851;fill:#a8a993;fill-opacity:1" /><path
         fill-rule="nonzero"
         fill="#1e252b"
         fill-opacity="1"
         d="m 5.2400093,15.431268 c 0.3187604,0.136483 1.2851441,0.517481 2.1169094,0.517481 0.3805976,0 0.6827006,-0.08041 0.8957913,-0.237505 0.5914882,-0.433776 0.9203397,-0.973523 1.0483805,-1.217211 l -1.039614,-0.397904 c -0.074094,-0.02845 -0.113123,-0.105558 -0.089438,-0.178542 l 0.3165716,-0.964863 c -0.1674957,-0.01896 -0.4367102,-0.04288 -0.7230311,-0.04288 -0.520907,0 -0.8957913,0.07669 -1.0834579,0.222661 -1.0045253,0.777663 -1.3544233,1.943335 -1.442111,2.298766 z m 2.1169094,0.808584 c -1.0808201,0 -2.3111538,-0.569842 -2.3628887,-0.594169 -0.060513,-0.02845 -0.095152,-0.09071 -0.084186,-0.154212 0.011393,-0.06433 0.2906986,-1.590789 1.5749672,-2.584929 0.2468548,-0.191323 0.677874,-0.288221 1.2807666,-0.288221 0.4985361,0 0.9326196,0.06556 0.9505905,0.06845 0.045169,0.0074 0.08331,0.03175 0.1065453,0.06762 0.023685,0.03588 0.0307,0.07917 0.017107,0.119165 l -0.3288515,1.002798 1.0562715,0.405737 c 0.078483,0.02928 0.1166252,0.112568 0.086375,0.186789 -0.013593,0.03464 -0.3525245,0.843224 -1.2088496,1.472446 -0.2705389,0.198331 -0.6366566,0.298526 -1.0878467,0.298526"
         id="path837"
         style="stroke-width:0.108851;fill:#000000;fill-opacity:1" /><path
         fill-rule="nonzero"
         fill="#1e252b"
         fill-opacity="1"
         d="m 5.1838854,15.299321 2.577304,-1.042794 -2.4391945,1.303802 c -0.075408,0.03999 -0.1696846,0.01567 -0.2122152,-0.05484 -0.042531,-0.06969 -0.016658,-0.159573 0.058313,-0.19957 l 0.015793,-0.0066"
         id="path838"
         style="stroke-width:0.108851" /><path
         fill-rule="nonzero"
         fill="#ffffff"
         fill-opacity="1"
         d="m 4.7818036,15.52322 c 0,0 -2.2133749,1.322766 -3.4121448,0.383058 C 0.40108687,15.148407 0.27655865,14.665975 0.27655865,14.665975 l 1.15799015,-0.51913 -0.43846102,-1.10753 c 0,0 1.53770102,-0.324921 2.11559622,0.07422 1.3110174,0.901365 1.6701196,2.409686 1.6701196,2.409686"
         id="path839"
         style="stroke-width:0.108851;fill:#a8a993;fill-opacity:1" /><path
         fill-rule="nonzero"
         fill="#1e252b"
         fill-opacity="1"
         d="m 0.48966055,14.732775 c 0.1424987,0.236267 0.50291378,0.756632 1.12027505,1.157836 0.1951207,0.127822 0.4546922,0.19215 0.771264,0.19215 0.8620279,0 1.8924259,-0.471714 2.2190887,-0.63335 C 4.4924184,15.097691 4.070177,13.953461 3.0209212,13.231462 2.8582523,13.11972 2.5649153,13.060755 2.1720494,13.060755 c -0.3735711,0 -0.7528447,0.05278 -0.9663732,0.08865 l 0.3748848,0.946721 c 0.028061,0.07051 -0.00573,0.149677 -0.078479,0.182663 z m 1.89153905,1.642328 c -0.3805863,0 -0.6993462,-0.08247 -0.9488389,-0.24369 -0.89315334,-0.581804 -1.28076654,-1.371425 -1.29742433,-1.405236 -0.0346389,-0.07258 -0.00136,-0.158337 0.0754187,-0.192149 L 1.239429,14.073039 0.85095205,13.090032 c -0.0166539,-0.03999 -0.013156,-0.0833 0.009231,-0.120403 0.0201712,-0.03793 0.0583275,-0.06433 0.10216789,-0.07381 0.0245436,-0.0042 0.61253406,-0.127824 1.20972506,-0.127824 0.4660964,0 0.8129183,0.07711 1.0317111,0.227198 1.3425929,0.923629 1.7152882,2.43195 1.7297569,2.495449 0.014469,0.06309 -0.014469,0.127412 -0.074106,0.159162 -0.054799,0.02968 -1.3614385,0.725297 -2.4782117,0.725297"
         id="path840"
         style="stroke-width:0.108851;fill:#000000;fill-opacity:1" /><path
         fill-rule="nonzero"
         fill="#1e252b"
         fill-opacity="1"
         d="m 4.527058,15.582183 -2.5154778,-1.170618 2.6369296,0.901777 c 0.080684,0.02721 0.1223385,0.111742 0.092963,0.187612 -0.028937,0.07628 -0.1179496,0.115041 -0.1986331,0.08783 l -0.015782,-0.0066"
         id="path841"
         style="stroke-width:0.108851" /><path
         fill-rule="nonzero"
         fill="#ffffff"
         fill-opacity="1"
         d="m 4.8355878,15.636994 c 0,0 -2.1362047,-1.429976 -1.6626665,-2.827792 0.3819112,-1.129385 0.8107304,-1.419669 0.8107304,-1.419669 L 4.93074,12.203482 5.856782,11.404377 c 0,0 0.89798,1.217212 0.7239066,1.870351 -0.3950551,1.481932 -1.7451008,2.362266 -1.7451008,2.362266"
         id="path842"
         style="fill:#a8a993;fill-opacity:1;stroke-width:0.108851"
         sodipodi:nodetypes="ccccccc" /><path
         fill-rule="nonzero"
         fill="#1e252b"
         fill-opacity="1"
         d="M 4.0894723,11.544601 C 3.9096966,11.75819 3.5326124,12.267836 3.3699428,12.95726 3.1463239,13.90398 4.552931,15.095629 4.9313286,15.396633 5.2356204,15.169436 6.2050684,14.371568 6.5207645,13.185281 6.6352121,12.759751 6.1897242,11.974254 5.9191965,11.572227 l -0.7914348,0.684064 c -0.059637,0.05071 -0.1517137,0.05071 -0.2100263,0 z m 0.8374674,4.184374 c -0.033764,0 -0.067528,-0.01032 -0.09559,-0.03175 -0.085499,-0.06226 -2.0629859,-1.540069 -1.7643845,-2.803464 0.2354612,-0.998675 0.8686044,-1.632846 0.8944663,-1.659235 0.058324,-0.05814 0.1547892,-0.06144 0.2179285,-0.0074 l 0.8427318,0.722822 0.8208099,-0.707979 c 0.033316,-0.02845 0.077171,-0.0433 0.1223274,-0.03793 0.04472,0.0049 0.085061,0.02721 0.1109342,0.06226 0.09559,0.129472 0.9326197,1.291845 0.7462663,1.989516 -0.4038216,1.517804 -1.7499162,2.410097 -1.8069155,2.446796 -0.027187,0.0169 -0.057437,0.02639 -0.088575,0.02639"
         id="path843"
         style="stroke-width:0.108851;fill:#000000;fill-opacity:1" /><path
         fill-rule="nonzero"
         fill="#1e252b"
         fill-opacity="1"
         d="m 4.7730371,15.381788 0.2051997,-2.630284 0.1043565,2.635644 c 0.00348,0.08123 -0.062702,0.148854 -0.1490759,0.151739 -0.086375,0.0033 -0.1582915,-0.05979 -0.1617935,-0.140192 l 0.00135,-0.0169"
         id="path844"
         style="stroke-width:0.108851" /><path
         fill-rule="nonzero"
         fill="#ffffff"
         fill-opacity="1"
         d="m 4.9414084,15.498067 c 0,0 2.5860816,-0.409861 3.3020972,0.893947 0.5792084,1.052273 0.4941473,1.542125 0.4941473,1.542125 l -1.2820686,0.05485 -0.052622,1.181339 c 0,0 -1.5512942,-0.263895 -1.9196119,-0.842404 C 4.6485094,17.01793 4.9414081,15.498068 4.9414081,15.498068"
         id="path845"
         style="fill:#a8a993;fill-opacity:1;stroke-width:0.108851"
         sodipodi:nodetypes="ccccccc" /><path
         fill-rule="nonzero"
         fill="#1e252b"
         fill-opacity="1"
         d="m 5.0782157,15.632077 c -0.04473,0.362854 -0.1302295,1.571823 0.5388666,2.620804 0.2402882,0.376872 1.1448461,0.635404 1.6376799,0.740138 L 7.3007946,17.9828 c 0.00348,-0.07588 0.068404,-0.136074 0.1482117,-0.139368 l 1.120275,-0.04867 C 8.536842,17.525513 8.4188924,16.91444 8.0159351,16.318197 7.5980825,15.699699 6.3870328,15.607748 5.7025924,15.607748 c -0.2705389,0 -0.4950339,0.01361 -0.6243767,0.02432 z m 2.3247469,3.683801 -0.028062,-0.0021 C 7.2087183,19.286131 5.7438098,19.021416 5.3500567,18.402911 4.4946072,17.061178 4.7765505,15.535951 4.7888192,15.471627 c 0.011,-0.0635 0.066215,-0.112155 0.1332938,-0.119578 0.013593,-8.44e-4 0.3345538,-0.0367 0.7804794,-0.0367 0.9133244,0 2.102003,0.146791 2.5759906,0.846527 0.5835973,0.862185 0.613848,1.732212 0.6151724,1.768092 0.00213,0.07999 -0.064026,0.146788 -0.1482115,0.149669 l -1.140446,0.04989 -0.047357,1.046921 c -0.00213,0.04246 -0.023235,0.08123 -0.058313,0.107616 -0.028062,0.02144 -0.061825,0.03175 -0.096465,0.03175"
         id="path846"
         style="stroke-width:0.108851;fill:#000000;fill-opacity:1" /><path
         fill-rule="nonzero"
         fill="#1e252b"
         fill-opacity="1"
         d="M 5.200543,15.536826 7.0337694,17.53418 4.9773613,15.739696 c -0.063139,-0.05484 -0.066204,-0.14803 -0.00786,-0.206993 0.058313,-0.05896 0.1560913,-0.06309 0.2201173,-0.0082 l 0.011,0.01237"
         id="path847"
         style="stroke-width:0.108851" /><path
         fill-rule="nonzero"
         fill="#ffffff"
         fill-opacity="1"
         d="m 4.9256264,15.498067 c 0,0 -2.6075658,-0.26843 -3.2428976,1.071242 -0.5138923,1.081966 -0.3994438,1.566466 -0.3994438,1.566466 l 1.2829546,-0.01484 0.1258409,1.177212 c 0,0 1.531999,-0.347601 1.8643526,-0.945069 0.7541686,-1.35287 0.3691933,-2.855008 0.3691933,-2.855008"
         id="path848"
         style="fill:#a8a993;fill-opacity:1;stroke-width:0.108851"
         sodipodi:nodetypes="ccccccc" /><path
         fill-rule="nonzero"
         fill="#1e252b"
         fill-opacity="1"
         d="m 2.5662396,17.97538 c 0.079801,0 0.1468876,0.0569 0.1547783,0.130701 l 0.1078588,1.006102 c 0.4858187,-0.130712 1.3737186,-0.437895 1.5907604,-0.826316 0.6046436,-1.087329 0.4441634,-2.287637 0.3770843,-2.646369 -0.049557,-0.0012 -0.1122476,-0.002 -0.1863533,-0.002 -0.6625185,0 -2.251966,0.08205 -2.7053447,0.846515 -0.366993,0.618505 -0.4454762,1.232882 -0.4625829,1.504198 l 1.1215993,-0.01277 z m 0.1258409,1.468318 c -0.031578,0 -0.063137,-0.0095 -0.089886,-0.02763 -0.037282,-0.02433 -0.059639,-0.06226 -0.065343,-0.104323 l -0.1109233,-1.042794 -1.140457,0.01237 h -0.00223 c -0.083308,0 -0.1525892,-0.06227 -0.1547783,-0.141437 -0.00136,-0.03587 -0.025,-0.905484 0.505989,-1.798598 0.5143179,-0.866729 2.0844703,-0.996615 2.9758726,-0.996615 0.1973087,0 0.3196472,0.0074 0.3244626,0.0074 0.068403,0.0045 0.1254029,0.04989 0.141185,0.112154 0.017107,0.06309 0.3893641,1.570585 -0.381462,2.956442 -0.3547245,0.637885 -1.8029754,0.981772 -1.9656443,1.018886 -0.012282,0.0028 -0.024563,0.0042 -0.036825,0.0042"
         id="path849"
         style="stroke-width:0.108851;fill:#000000;fill-opacity:1" /><path
         fill-rule="nonzero"
         fill="#1e252b"
         fill-opacity="1"
         d="m 4.9032667,15.741757 -1.9428475,1.902097 1.7069482,-2.093008 c 0.053059,-0.0635 0.1504004,-0.07628 0.2187927,-0.02639 0.068842,0.04824 0.081121,0.140192 0.028062,0.204517 l -0.011,0.01278"
         id="path850"
         style="stroke-width:0.108851" /><path
         fill-rule="nonzero"
         fill="#ffffff"
         fill-opacity="1"
         d="M 5.6105158,15.090267 C 5.4934417,15.409415 5.1242483,15.57806 4.7844415,15.46838 4.4428723,15.358698 4.2600324,15.012337 4.3757932,14.693602 c 0.1153119,-0.31791 0.4858185,-0.486555 0.8260631,-0.378111 0.3411314,0.110093 0.5239714,0.457279 0.4086595,0.774776"
         id="path851"
         style="stroke-width:0.108851;fill:#445500" /><path
         fill-rule="nonzero"
         fill="#1e252b"
         fill-opacity="1"
         d="m 4.9896412,14.42847 c -0.2109019,0 -0.399444,0.125763 -0.4669721,0.31255 -0.042531,0.117104 -0.033753,0.242865 0.02456,0.353783 0.059626,0.111743 0.1604803,0.195035 0.2863209,0.235444 0.05261,0.0169 0.1078587,0.02515 0.1626692,0.02515 0.2113395,0 0.3985684,-0.125762 0.4669721,-0.312549 0.041643,-0.115867 0.033753,-0.241629 -0.025873,-0.353371 -0.058313,-0.110919 -0.1591669,-0.19421 -0.2850077,-0.235444 -0.05261,-0.0169 -0.1078586,-0.02557 -0.162669,-0.02557 z m 0.00663,1.219274 c -0.08945,0 -0.1771378,-0.01361 -0.2626368,-0.04123 -0.2043354,-0.06515 -0.3691932,-0.201632 -0.4647832,-0.381823 -0.095141,-0.181838 -0.1096097,-0.386357 -0.040331,-0.57768 0.1113607,-0.305128 0.4165393,-0.510884 0.7611728,-0.510884 0.089887,0 0.1771377,0.01485 0.2626367,0.04124 0.2043353,0.06638 0.3683178,0.201631 0.4634699,0.383059 0.095579,0.18184 0.1100475,0.386358 0.040331,0.577681 -0.1096096,0.305127 -0.4161014,0.509645 -0.7598594,0.509645"
         id="path852"
         style="stroke-width:0.108851;fill:#000000;fill-opacity:1" /><path
         fill-rule="nonzero"
         fill="#ffffff"
         fill-opacity="1"
         d="m 4.3319381,14.155093 c 0.1438227,0.503461 0.2131019,0.71169 0.5130048,0.913321 0.8137945,0.546756 0.4130371,1.133512 0.4130371,1.133512 0,0 -0.059626,0.210291 -0.5489576,0.06349 C 4.2687989,16.132239 3.9693338,15.737637 3.9219765,15.379729 3.8614638,14.918327 4.0600971,14.546814 4.3319381,14.155096"
         id="path853"
         style="stroke-width:0.108851;fill:#4d5c58;fill-opacity:1" /><path
         fill-rule="nonzero"
         fill="#1e252b"
         fill-opacity="1"
         d="m 4.3341382,14.507639 c -0.1929311,0.26843 -0.2999141,0.533148 -0.2569458,0.853945 0.036828,0.289459 0.2828076,0.645304 0.6800628,0.764466 0.098654,0.03052 0.1841532,0.04536 0.2516813,0.04536 0.066204,0 0.096465,-0.01484 0.1043565,-0.02226 L 5.126448,16.12276 C 5.1580117,16.075353 5.4193354,15.634146 4.755066,15.187587 4.4779493,15.001624 4.4148101,14.810713 4.3341378,14.507647 Z m 0.6747983,1.956112 c -0.099968,0 -0.2170418,-0.0202 -0.3472713,-0.05896 -0.4665232,-0.140603 -0.8339653,-0.55541 -0.8931534,-1.007329 -0.073219,-0.54758 0.2051996,-0.954967 0.5160803,-1.312874 0.037266,-0.04247 0.096455,-0.06226 0.152578,-0.05072 0.057437,0.01154 0.103481,0.05155 0.1179498,0.104321 0.025873,0.09113 0.047357,0.171119 0.066215,0.242865 0.085499,0.324096 0.1135607,0.433777 0.3143716,0.569023 0.8396675,0.563661 0.5296735,1.198249 0.4634587,1.31205 -0.035953,0.08453 -0.149076,0.201626 -0.3902285,0.201626"
         id="path854"
         style="stroke-width:0.108851;fill:#000000;fill-opacity:1" /><path
         fill-rule="nonzero"
         fill="#ffffff"
         fill-opacity="1"
         d="m 5.6718928,14.113859 c -0.1403094,0.499337 -0.2073886,0.707567 -0.5073027,0.9059 -0.8116056,0.539334 -0.402946,1.126084 -0.402946,1.126084 0,0 0.063139,0.209056 0.5511464,0.06556 0.4424123,-0.129888 0.7396999,-0.522426 0.7826682,-0.87827 0.056124,-0.458105 -0.1473248,-0.829618 -0.4235659,-1.219275"
         id="path855"
         style="stroke-width:0.108851;fill:#4d5c58;fill-opacity:1" /><path
         fill-rule="nonzero"
         fill="#1e252b"
         fill-opacity="1"
         d="m 4.9054555,16.091005 c 0.00786,0.0087 0.039466,0.02433 0.1100587,0.02433 0.067079,0 0.152578,-0.01485 0.2512436,-0.0433 0.3963684,-0.117102 0.6401587,-0.468411 0.6747984,-0.75581 0.039017,-0.318734 -0.071917,-0.583452 -0.2705389,-0.852708 -0.077608,0.301829 -0.1394339,0.491916 -0.4165393,0.675404 -0.662092,0.440375 -0.3950664,0.87951 -0.3626156,0.927752 z m 0.1100587,0.316673 c -0.2727277,0 -0.3661177,-0.138133 -0.3941795,-0.198332 -0.064026,-0.107616 -0.391553,-0.746328 0.4538054,-1.308752 0.1986332,-0.131947 0.2266951,-0.240804 0.3086807,-0.562837 0.018858,-0.07174 0.039029,-0.150915 0.063577,-0.240392 0.014907,-0.05278 0.06095,-0.09319 0.1170741,-0.105557 0.056999,-0.01196 0.115312,0.007 0.1525893,0.04948 0.3165717,0.357908 0.5993793,0.763232 0.5331757,1.308751 -0.055248,0.450682 -0.4222415,0.8626 -0.8914023,1.000733 -0.1280407,0.03794 -0.2446659,0.05691 -0.3433203,0.05691"
         id="path856"
         style="stroke-width:0.108851;fill:#000000;fill-opacity:1" /></g><text
       xml:space="preserve"
       style="font-size:13.4056px;font-family:'Baskerville Old Face';-inkscape-font-specification:'Baskerville Old Face, Normal';text-align:start;writing-mode:lr-tb;direction:ltr;text-anchor:start;fill:#4d5c58;stroke-width:2.259"
       x="10.962227"
       y="19.43968"
       id="text1"><tspan
         sodipodi:role="line"
         id="tspan1"
         style="font-size:13.4056px;stroke-width:2.259"
         x="10.962227"
         y="19.43968">Cuenta Regresiva</tspan></text></g></svg>
