<?xml version="1.0" encoding="UTF-8" standalone="no"?>
<!-- Created with Inkscape (http://www.inkscape.org/) -->

<svg
   width="120mm"
   height="120mm"
   viewBox="0 0 120 120"
   version="1.1"
   id="svg1"
   inkscape:version="1.4.2 (f4327f4, 2025-05-13)"
   sodipodi:docname="marco_circulo.svg"
   xmlns:inkscape="http://www.inkscape.org/namespaces/inkscape"
   xmlns:sodipodi="http://sodipodi.sourceforge.net/DTD/sodipodi-0.dtd"
   xmlns="http://www.w3.org/2000/svg"
   xmlns:svg="http://www.w3.org/2000/svg">
  <sodipodi:namedview
     id="namedview1"
     pagecolor="#505050"
     bordercolor="#eeeeee"
     borderopacity="1"
     inkscape:showpageshadow="0"
     inkscape:pageopacity="0"
     inkscape:pagecheckerboard="0"
     inkscape:deskcolor="#505050"
     inkscape:document-units="mm"
     inkscape:zoom="1.0167041"
     inkscape:cx="299.00539"
     inkscape:cy="181.46873"
     inkscape:window-width="1920"
     inkscape:window-height="1009"
     inkscape:window-x="-8"
     inkscape:window-y="-8"
     inkscape:window-maximized="1"
     inkscape:current-layer="g1"
     showgrid="false" />
  <defs
     id="defs1" />
  <g
     inkscape:label="Capa 1"
     inkscape:groupmode="layer"
     id="layer1">
    <g
       id="g1"
       transform="matrix(0.71861246,0,0,0.69458419,12.108979,50.770734)">
      <path
         fill-rule="nonzero"
         fill="#171110"
         fill-opacity="1"
         d="m 110.5529,-59.605347 c -10.30635,-5.757787 -19.625682,-8.490447 -31.355192,-10.142027 -11.67061,-1.19889 -20.77496,-0.46508 -32.14068,2.48977 -11.24066,3.2701 -19.39623,7.30809 -28.79203,14.292677 -3.099561,2.399853 -5.784656,4.7625 -8.5565856,7.533391 -5.4777,5.627564 -9.31209,10.709423 -13.27671,17.498674 -5.8508,10.610204 -8.7953304,19.4582444 -10.3993604,31.4699124 -1.20613,11.5786216 -0.53434,20.5816906 2.37918,31.8430196 3.2297804,11.156938 7.1933604,19.263938 14.1087004,28.580166 4.70359,6.029605 9.0754196,10.466543 15.0647046,15.194936 C 61.752768,113.1438 134.26824,91.550282 149.46215,39.549324 136.66396,93.061301 72.139738,114.3737 25.712598,88.452797 14.975267,82.03355 7.7912224,75.673216 0.1028024,65.785445 -7.0037376,56.085781 -11.047938,47.695595 -14.327328,36.112842 c -0.21704,-0.815454 -0.42168,-1.629876 -0.61598,-2.452563 -2.39159,-10.829315 -2.88975,-19.444809 -1.64228,-30.4487906 1.7663,-12.387874 4.81004,-21.4705224 10.9378404,-32.3453124 6.47815,-10.723893 12.7403,-17.896581 22.6435646,-25.508519 7.927161,-5.791895 14.724681,-9.347231 23.991301,-12.591491 1.87379,-0.62425 3.71657,-1.17408 5.62653,-1.67741 11.62203,-2.83599 20.87521,-3.43957 32.72565,-1.97611 9.61182,1.47071 16.94987,3.65146 25.662512,7.84449 0.0734,0.0372 8.62997,4.786271 5.55109,3.437517 z m -20.371882,-8.364357 c -0.0341,-0.0103 -0.0682,-0.0176 -0.10232,-0.0259 l 0.10232,0.0259"
         id="path74"
         style="stroke-width:0.264583" />
      <path
         fill-rule="evenodd"
         fill="#171110"
         fill-opacity="1"
         d="m 101.2239,-57.142789 c 0.68833,-1.193726 2.21279,-1.600935 3.40548,-0.912606 1.19166,0.687298 1.60094,2.21175 0.91261,3.404444 -0.68834,1.190625 -2.21382,1.600936 -3.40548,0.913638 -1.19269,-0.69143 -1.60094,-2.214851 -0.91261,-3.405476"
         id="path75"
         style="stroke-width:0.264583" />
      <path
         fill-rule="evenodd"
         fill="#171110"
         fill-opacity="1"
         d="m 108.32838,-52.962166 c 0.57051,-0.98702 1.83245,-1.326017 2.8205,-0.756544 0.98702,0.570508 1.32498,1.83348 0.75551,2.819466 -0.57051,0.990121 -1.83348,1.326018 -2.8205,0.757579 -0.98702,-0.571542 -1.32602,-1.833481 -0.75551,-2.820501"
         id="path76"
         style="stroke-width:0.264583" />
      <path
         fill-rule="evenodd"
         fill="#171110"
         fill-opacity="1"
         d="m 113.58697,-49.038892 c 0.4961,-0.859896 1.59474,-1.153417 2.4536,-0.658358 0.85989,0.497128 1.15445,1.594737 0.65836,2.454632 -0.4961,0.857827 -1.59474,1.154452 -2.45463,0.656291 -0.85886,-0.494027 -1.15342,-1.594736 -0.65733,-2.452565"
         id="path77"
         style="stroke-width:0.264583" />
      <path
         fill-rule="evenodd"
         fill="#171110"
         fill-opacity="1"
         d="m 118.1128,-45.146623 c 0.43614,-0.756542 1.40249,-1.015958 2.15697,-0.579808 0.75654,0.437182 1.01492,1.402498 0.57878,2.15904 -0.43615,0.754475 -1.4025,1.013891 -2.15801,0.576709 -0.75551,-0.436149 -1.01389,-1.401466 -0.57774,-2.155941"
         id="path78"
         style="stroke-width:0.264583" />
      <path
         fill-rule="evenodd"
         fill="#171110"
         fill-opacity="1"
         d="m 122.07844,-41.283294 c 0.37104,-0.643887 1.19373,-0.866095 1.83762,-0.492992 0.64285,0.371038 0.86299,1.193726 0.49196,1.836581 -0.37104,0.642855 -1.19373,0.865063 -1.83762,0.491958 -0.64285,-0.370001 -0.86403,-1.192691 -0.49196,-1.835547"
         id="path79"
         style="stroke-width:0.264583" />
      <path
         fill-rule="evenodd"
         fill="#171110"
         fill-opacity="1"
         d="m 126.04099,-36.854621 c 0.32867,-0.568441 1.05627,-0.764813 1.62574,-0.43615 0.56948,0.330729 0.76378,1.058334 0.43512,1.626775 -0.32866,0.568439 -1.05627,0.76481 -1.62574,0.436147 -0.56948,-0.330729 -0.76378,-1.058333 -0.43512,-1.626772"
         id="path80"
         style="stroke-width:0.264583" />
      <path
         fill-rule="evenodd"
         fill="#171110"
         fill-opacity="1"
         d="m 129.6139,-32.407348 c 0.23771,-0.412377 0.76378,-0.552937 1.17512,-0.314193 0.41238,0.237712 0.55294,0.76481 0.31523,1.174089 -0.23771,0.413411 -0.76378,0.552936 -1.17512,0.315227 -0.41238,-0.237713 -0.55294,-0.764813 -0.31523,-1.175123"
         id="path81"
         style="stroke-width:0.264583" />
      <path
         fill-rule="evenodd"
         fill="#171110"
         fill-opacity="1"
         d="m 133.06692,-27.490853 c 0.14883,-0.259416 0.47749,-0.347266 0.73484,-0.198437 0.25735,0.147793 0.34623,0.478522 0.1974,0.734837 -0.14883,0.25735 -0.47749,0.347266 -0.73484,0.198438 -0.25735,-0.14986 -0.34623,-0.478523 -0.1974,-0.734838"
         id="path82"
         style="stroke-width:0.264583" />
    </g>
  </g>
</svg>
