<?xml version="1.0" encoding="UTF-8" standalone="no"?>
<!-- Created with Inkscape (http://www.inkscape.org/) -->

<svg
   width="160mm"
   height="160mm"
   viewBox="0 0 160 160"
   version="1.1"
   id="svg1"
   inkscape:version="1.4.2 (f4327f4, 2025-05-13)"
   sodipodi:docname="petalo.svg"
   xmlns:inkscape="http://www.inkscape.org/namespaces/inkscape"
   xmlns:sodipodi="http://sodipodi.sourceforge.net/DTD/sodipodi-0.dtd"
   xmlns="http://www.w3.org/2000/svg"
   xmlns:svg="http://www.w3.org/2000/svg">
  <sodipodi:namedview
     id="namedview1"
     pagecolor="#505050"
     bordercolor="#eeeeee"
     borderopacity="1"
     inkscape:showpageshadow="0"
     inkscape:pageopacity="0"
     inkscape:pagecheckerboard="0"
     inkscape:deskcolor="#505050"
     inkscape:document-units="mm"
     inkscape:lockguides="true"
     inkscape:zoom="1"
     inkscape:cx="190"
     inkscape:cy="203.5"
     inkscape:window-width="1920"
     inkscape:window-height="1009"
     inkscape:window-x="-8"
     inkscape:window-y="-8"
     inkscape:window-maximized="1"
     inkscape:current-layer="layer1" />
  <defs
     id="defs1" />
  <g
     inkscape:label="Capa 1"
     inkscape:groupmode="layer"
     id="layer1">
    <g
       id="g29"
       transform="matrix(1.3956239,0,0,0.92756009,-56.380881,-5.2494464)">
      <path
         fill-rule="nonzero"
         fill="#1e252b"
         fill-opacity="1"
         d="m 115.33107,129.26609 c -0.92301,-4.59234 -2.28583,-8.95461 -3.63627,-13.26148 -0.18588,0.53183 -0.37791,1.05483 -0.56988,1.56248 1.79025,-0.68991 3.53713,-1.48328 5.2159,-2.43496 1.68494,-0.95184 3.30176,-2.03046 4.80707,-3.39471 -1.8708,0.36453 -3.67964,0.91999 -5.46991,1.507 -1.80884,0.56328 -3.5867,1.21337 -5.37697,1.88771 -0.53896,0.19876 -0.81149,0.91208 -0.60087,1.5862 1.41237,4.29895 3.1407,8.58203 5.63095,12.54776"
         id="path561-9"
         style="fill:#1f2b1e;fill-opacity:1;stroke-width:1.79443" />
      <path
         id="path558"
         style="fill:#777860;fill-opacity:1;stroke-width:4.4065"
         d="m 66.541675,40.025464 c -11.196129,0.01975 -19.492853,9.401971 -23.268347,14.686442 -0.06733,0.13649 -0.139543,0.270607 -0.20774,0.406693 -0.108657,0.220283 -0.205846,0.446133 -0.297656,0.673861 -0.09914,0.241802 -0.189153,0.486911 -0.279053,0.732255 -0.09328,0.27037 -0.191096,0.538981 -0.280085,0.810804 -0.09328,0.263166 -0.17574,0.529804 -0.263551,0.794783 -0.09377,0.27501 -0.187832,0.549927 -0.277502,0.826306 -0.08628,0.277816 -0.154628,0.560858 -0.219108,0.844393 -0.05168,0.258394 -0.113571,0.51461 -0.180351,0.769462 -0.07222,0.254844 -0.136088,0.511796 -0.201538,0.768429 -0.06703,0.271934 -0.132098,0.544515 -0.203089,0.815454 -0.0529,0.199446 -0.09559,0.401142 -0.144693,0.601513 -0.0068,0.0287 -0.01307,0.05746 -0.01912,0.0863 -0.526489,12.514817 0.151077,47.660321 21.560958,71.043721 32.214763,37.31453 93.74538,0.49292 92.30186,-2.29029 -1.73223,1.84738 -48.83945,-65.81138 -73.944841,-86.697555 -5.05773,-3.509057 -9.780439,-4.880147 -14.076144,-4.872571 z M 41.722001,57.747896 c -0.09573,0.22188 -0.185024,0.44648 -0.258382,0.676961 -0.125576,0.365803 -0.224984,0.738636 -0.304374,1.117245 -0.08659,0.371375 -0.175735,0.742255 -0.257865,1.11466 0.0153,-0.05674 0.03099,-0.113432 0.04702,-0.170015 0.06592,-0.251353 0.126786,-0.50427 0.177767,-0.759127 0.06669,-0.293228 0.1374,-0.585567 0.22686,-0.872814 0.08995,-0.277009 0.183959,-0.55274 0.278019,-0.828374 0.03072,-0.09267 0.0608,-0.185663 0.09095,-0.278536 z" />
      <path
         style="fill:#9a9b82;fill-opacity:1;stroke-width:2.22977"
         d="M 92.948664,139.65574 C 83.377775,138.19504 75.271252,134.32101 68.889542,128.1581 55.7991,115.51648 47.933399,97.079787 45.676563,73.748406 45.441633,71.31967 45.291435,69.290151 45.34279,69.238363 c 0.05136,-0.05179 2.148495,1.968849 4.660311,4.490306 l 4.566935,4.584466 0.839361,3.859444 c 2.085853,9.590906 5.383744,21.333541 8.069643,28.733171 1.327322,3.65677 1.813871,4.76897 1.828458,4.17969 0.03266,-1.31944 -2.652975,-18.167687 -4.254926,-26.693096 -0.487862,-2.596353 -0.847741,-4.762097 -0.799728,-4.812762 0.04801,-0.05067 0.65084,0.432117 1.339619,1.072847 3.844597,3.576421 15.045603,12.439361 20.131366,15.929201 1.688953,1.15896 1.717672,1.19877 2.175713,3.01597 0.673806,2.67322 3.535034,11.35752 4.797433,14.56101 1.279434,3.24671 4.456506,9.9658 4.71226,9.9658 0.416138,0 -1.592015,-11.24009 -3.273458,-18.32227 -0.491888,-2.07182 -0.894344,-3.86474 -0.894344,-3.98426 0,-0.11952 1.726185,0.82098 3.835966,2.09 4.098289,2.4651 8.834811,5.03862 13.529841,7.35123 l 2.89861,1.42776 0.94817,2.63724 c 1.3872,3.85838 4.59524,10.3994 4.93323,10.05857 0.14659,-0.14783 -0.99438,-4.88416 -1.99714,-8.2904 -0.43795,-1.48769 -0.74632,-2.75526 -0.68526,-2.81684 0.0611,-0.0616 1.50493,0.46899 3.20859,1.17903 1.70367,0.71004 3.15787,1.22386 3.23157,1.14182 0.0737,-0.082 0.0169,-0.19422 -0.12608,-0.24929 -0.14303,-0.0551 -1.5967,-0.82217 -3.23037,-1.70468 l -2.97031,-1.60456 1.56866,-0.71807 c 1.98675,-0.90946 5.49556,-3.17138 6.33259,-4.08222 l 0.64002,-0.69648 -0.91023,0.19169 c -1.53108,0.32244 -6.78203,1.96579 -8.77821,2.74725 l -1.88647,0.73851 -3.44487,-2.13913 c -4.20044,-2.60831 -9.102422,-5.9696 -13.519153,-9.27007 l -3.312582,-2.47537 1.83289,-2.097558 c 1.008086,-1.153654 2.695646,-3.266602 3.750131,-4.695436 2.023788,-2.742244 4.984274,-7.767998 4.728053,-8.026382 -0.272098,-0.274396 -4.997192,2.21306 -7.621742,4.012351 -2.606436,1.786872 -5.789687,4.265946 -7.299297,5.68459 l -0.832506,0.782344 -2.28828,-1.937807 C 77.057114,91.058766 72.301466,86.660036 67.005833,81.393175 l -5.461376,-5.431706 0.607594,-0.437299 c 3.873961,-2.788176 10.092159,-8.841654 12.727436,-12.390285 0.890306,-1.198873 1.618736,-2.287982 1.618736,-2.420247 0,-0.722827 -10.622354,4.204463 -16.83419,7.808717 L 56.483281,70.3679 54.587507,68.234162 c -6.012373,-6.767054 -9.297144,-10.852098 -9.297144,-11.562214 0,-1.438699 5.107463,-7.636633 8.645287,-10.491103 6.833346,-5.513443 13.734574,-6.555528 20.918494,-3.158688 3.18374,1.505397 4.207056,2.250298 7.613872,5.542366 11.053983,10.681651 26.367974,29.809372 52.673704,65.791347 3.26902,4.4715 6.80094,9.27496 7.84871,10.67435 1.04776,1.3994 1.90502,2.64665 1.90502,2.77166 0,0.32844 -8.14648,4.26872 -11.96301,5.78627 -8.08062,3.21305 -16.0782,5.29124 -23.92443,6.21682 -4.53249,0.53468 -12.034989,0.46496 -16.059346,-0.14923 z"
         id="path1"
         sodipodi:nodetypes="ssssscsssssssssssssscsssssssscsscsscsscssssscsscsssscsssssssssss" />
      <path
         style="fill:#595a47;fill-opacity:1;stroke-width:2.259"
         d="m 40.679688,63.698438 -0.08145,5.173578 0.09355,3.367599 0.233862,5.12155 0.491107,5.519116 0.748354,5.261869 1.005602,5.636046 1.426552,6.150541 0.701582,2.385383 1.613639,5.30864 2.26845,5.7062 1.286235,2.80634 1.37978,2.71278 2.081361,3.71839 2.478924,3.90547 2.081363,2.92327 2.595854,3.25066 2.525699,2.66601 2.315221,2.40877 2.361993,2.05798 1.122535,0.79512 1.43229,1.12716 2.430859,1.5875 2.19935,1.33946 2.546614,1.27331 2.794661,1.15755 2.563152,0.81029 1.719791,0.56223 2.215885,0.62839 2.315105,0.49609 2.530077,0.41341 2.414324,0.29765 1.852083,0.11577 2.463933,0.13229 h 2.397785 l 1.88515,-0.0661 1.27331,-0.0496 3.12539,-0.24805 1.88516,-0.16536 2.39778,-0.29765 2.10013,-0.38034 2.9435,-0.57878 4.05143,-0.89297 3.50572,-0.94258 6.00274,-1.98438 3.5388,-1.2733 3.3569,-1.42214 3.58842,-1.63711 4.21679,-2.14974 3.02617,-1.70325 2.31511,-1.4056 1.93476,-1.4056 1.37253,-1.07487 c 0,0 0.47239,-0.48675 0.50455,-0.5423 0.0321,-0.0555 0.17832,-0.25431 0.18124,-0.2777 0.003,-0.0234 0.0965,-0.1754 0.0877,-0.19878 -0.009,-0.0234 0.0175,-0.11109 0.009,-0.12571 -0.009,-0.0146 -0.0204,-0.0702 -0.0204,-0.0702 l -0.0117,-0.0292 c 0,0 0,0.14032 -0.16663,0.15202 -0.16662,0.0117 -0.84774,0.2514 -1.70133,-0.0643 -0.85359,-0.31571 -1.85335,-0.78928 -2.10475,-1.01145 -0.2514,-0.22217 -14.00827,9.69352 -24.01751,11.7515 -10.00925,2.05797 -25.16342,3.695 -26.660131,3.83531 -1.496709,0.14032 -11.693041,0.23387 -17.866969,-2.3386 C 75.864745,141.34555 70.018223,137.2296 67.165121,134.47005 64.311729,131.71043 55.98628,120.25124 55.284698,118.38036 54.583116,116.50947 48.736597,105.00351 47.567292,99.765035 46.397987,94.526551 42.936848,81.196483 42.890075,77.969204 42.843302,74.741925 42.515899,65.481035 42.515899,65.481035 Z"
         id="path8" />
      <ellipse
         id="path4"
         style="fill:#171f16;fill-opacity:1;stroke:#000000;stroke-width:0.261159"
         cx="4.9382973"
         cy="4.2898498"
         rx="0.10456648"
         ry="0.10544798" />
      <path
         style="fill:#171f16;fill-opacity:1;stroke-width:2.259"
         d="m 59.89176,82.938743 -0.140317,-1.356391 5.589273,5.121552 9.050414,7.354922 9.354434,6.875514 0.420949,0.23386 1.239465,4.58367 c 0,0 1.575792,5.50542 3.130219,9.90412 1.554427,4.3987 4.464843,11.27786 4.564062,11.41015 0.09922,0.1323 0.328663,1.00253 0.328663,1.00253 l -0.549839,-1.01493 -0.535368,-1.048 -2.061739,-4.37472 -2.642629,-6.67673 -2.128134,-6.3844 -1.847501,-6.3844 -0.152008,-0.60804 -8.185129,-5.881597 -8.582694,-6.852123 z"
         id="path6" />
      <path
         style="fill:#171f16;fill-opacity:1;stroke-width:2.259"
         d="m 88.883462,105.15534 -0.223242,-1.2237 6.093685,3.96875 c 0,0 13.163025,7.42487 13.394535,7.49101 0.23151,0.0661 10.76979,5.10539 10.76979,5.10539 0,0 -4.61875,-1.80072 -4.67721,-1.87088 -0.0585,-0.0702 -5.76467,-2.61924 -5.76467,-2.61924 l -3.34582,-1.60745 -2.8608,-1.48002 -2.836007,-1.52135 -1.223698,-0.66146 -2.182813,-1.25677 -2.124935,-1.23197 -1.90996,-1.13274 -1.256771,-0.79375 z"
         id="path7" />
      <path
         style="fill:#000000;fill-opacity:1;stroke-width:2.259"
         d="m 40.630078,63.714973 2.579687,2.993099 2.38125,2.66237 4.216797,4.167187 4.398698,4.382162 0.376608,0.388509 0.233862,1.028988 0.42095,1.935197 0.339098,1.508403 0.339098,1.601946 0.38587,1.625335 0.444336,1.853346 0.327404,1.344699 0.374179,1.479169 0.268938,1.034836 0.309867,1.216075 0.274786,1.052375 0.163703,0.608039 0.157855,0.613884 0.309867,1.064067 0.169548,0.666504 0.210476,0.678195 0.210473,0.742509 0.327406,1.163457 0.198782,0.678196 0.40341,1.37978 0.204629,0.68404 c 0,0 1.172162,3.94633 1.238308,3.99594 0.06615,0.0496 0.826823,2.56315 0.826823,2.56315 l 0.975651,2.66237 0.338997,0.90124 0.355534,0.97151 0.268716,0.68213 0.285255,0.66559 0.173633,0.38034 0.06521,0.10585 c 0,0 0.0263,0.0278 0.04823,0.0409 0.02193,0.0131 0.04159,-2e-5 0.04159,-2e-5 l 0.01033,-0.0145 -1.149284,-3.56773 -1.480013,-4.8948 -0.959115,-3.37343 -2.960026,-12.038545 -2.182812,-10.021094 -0.892969,-4.20026 -11.972396,-12.766146 -2.784139,-2.389698 -0.207552,0.847746 z"
         id="path14" />
      <path
         style="fill:#000000;fill-opacity:0;stroke-width:4.26898"
         d="m 370.75,568.63044 c -0.1375,-0.13728 -3.5125,-0.39387 -7.5,-0.57018 -3.9875,-0.17632 -8.0375,-0.43616 -9,-0.57743 -19.87326,-2.91692 -22.71616,-3.56759 -40.26172,-9.21484 -9.57066,-3.08043 -17.82953,-6.30275 -23.82708,-9.29648 -9.93978,-4.96154 -28.2199,-17.46991 -37.2266,-25.47272 C 246.77965,518.02988 231.50669,501.79153 225.89495,494.75 203.17126,466.23661 184.8334,430.81131 173.48301,393.5 160.11259,349.5484 153.13887,299.52128 153.83738,252.56876 L 154,241.63752 l 3.31002,3.93124 3.31001,3.93124 0.59321,22.5 c 0.32627,12.375 0.81527,24.4125 1.08668,26.75 1.01994,8.78424 3.89624,21.92747 15.38306,70.29261 4.67849,19.69873 7.64999,27.46548 24.75657,64.70739 7.58563,16.5143 7.91239,17.1376 12.97469,24.75 12.17045,18.30121 30.19247,41.71255 38.29748,49.75 15.40806,15.27962 46.88331,33.8924 66.28828,39.19933 12.63686,3.45598 32.75393,5.79905 49.75,5.79447 14.341,-0.004 80.61591,-8.97177 107.27523,-14.51583 22.51219,-4.68162 46.61243,-16.30716 89.10466,-42.98256 l 2.62989,-1.65097 3.73819,1.82371 c 4.34751,2.12096 6.76688,2.75143 9.37703,2.44358 1.03125,-0.12162 1.875,-0.0212 1.875,0.22314 0,1.42654 -10.81576,10.12532 -18.20077,14.63832 -15.56109,9.50943 -35.55197,19.5609 -55.54923,27.93033 -9.0213,3.77567 -38.83608,13.72352 -48.87419,16.30711 -10.8672,2.79699 -36.84137,8.00463 -43.62581,8.74667 -11.95394,1.30746 -22.82526,2.05424 -34.25,2.35271 -6.7375,0.17602 -12.3625,0.20771 -12.5,0.0704 z"
         id="path15"
         transform="scale(0.26458333)" />
      <path
         style="fill:#000000;fill-opacity:0;stroke-width:4.26898"
         d="m 356.75,552.42088 c -19.72217,-1.35351 -35.0393,-4.11756 -45.25,-8.16559 -13.54658,-5.37053 -32.13589,-15.99921 -44.99136,-25.72438 C 255.63882,510.30789 250.30729,504.82864 238.99019,490.25 228.13613,476.26784 213.53322,455.57963 210.57948,450 c -3.14874,-5.94798 -18.4655,-39.84209 -22.68003,-50.18813 -5.12167,-12.57295 -6.54664,-17.36522 -12.13998,-40.82772 -13.04128,-54.70453 -12.92188,-54.02436 -13.77751,-78.48415 -0.37517,-10.725 -0.69334,-21.92994 -0.70704,-24.89986 l -0.0249,-5.39986 5,5.62384 c 4.6807,5.26469 5,5.76067 5,7.76664 0,3.39494 1.3921,17.98132 2.78292,29.15924 10.07715,80.98977 39.0644,145.84048 85.27724,190.78349 17.17616,16.7042 35.24579,27.90216 58.44949,36.22184 10.32837,3.70323 25.51827,7.29148 37.24035,8.79712 8.12801,1.04401 39.0129,1.51593 49.03649,0.74929 34.04569,-2.60395 75.38678,-13.65045 111.46351,-29.78347 8.69207,-3.88698 30.03844,-14.41628 31.48358,-15.52958 0.95182,-0.73326 0.95512,-0.80988 0.10218,-2.37321 C 546.60099,480.72697 543.38266,476.175 539.93391,471.5 536.48516,466.825 525.08712,451.3 514.60493,437 430.33506,322.03744 379.39868,256.50967 342.04385,215.00653 335.58272,207.8279 316.71682,187.85721 314.87812,186.25 c -0.78652,-0.6875 -4.00302,-3.71032 -7.14779,-6.71738 -7.80881,-7.46687 -12.94783,-11.16212 -21.48033,-15.44559 -8.45908,-4.24662 -16.16941,-6.91626 -23.4298,-8.11238 -7.40645,-1.22018 -18.90912,-0.79766 -25.8202,0.94844 -17.16306,4.33629 -33.23029,15.12239 -49.30018,33.09574 -9.57451,10.70859 -16.57482,20.84625 -16.57482,24.0032 0,2.417 6.28306,10.81356 20.37442,27.22797 12.20885,14.22157 21.85104,24.99572 22.19218,24.79748 20.60448,-11.97273 40.13143,-22.16622 56.8084,-29.65518 9.27984,-4.1672 17.69408,-7.36489 18.15824,-6.90072 0.14535,0.14534 -0.84329,1.89359 -2.19698,3.88499 -9.13959,13.44511 -32.93922,37.58099 -49.46568,50.16454 l -4.72011,3.59397 18.6257,18.43246 c 26.62688,26.35063 39.28538,37.97712 65.957,60.57974 0.77572,0.65738 1.25614,0.37009 5,-2.99002 7.4998,-6.73106 21.00271,-17.08549 29.39183,-22.53853 8.94974,-5.81744 24.17275,-13.729 25.53774,-13.27222 1.06529,0.35649 -8.73524,17.3092 -15.62127,27.0213 -4.54735,6.4136 -12.29139,16.15272 -18.28692,22.99815 -2.58486,2.95127 -4.56467,5.58451 -4.39958,5.85164 0.39609,0.64088 22.47044,16.93259 32.10879,23.69751 9.73099,6.82993 23.99388,16.20788 35.34902,23.24221 l 8.93778,5.53682 3.31222,-1.27183 c 8.29959,-3.18688 15.08673,-5.4902 24.81222,-8.42041 11.40723,-3.4369 14.25,-4.1154 14.25,-3.40109 0,1.98199 -16.33253,12.78418 -26.4653,17.50392 l -4.7153,2.19633 1.5109,0.91884 c 0.831,0.50535 4.37099,2.432 7.86666,4.28144 3.49566,1.84944 6.26788,3.45049 6.16047,3.55789 -0.19522,0.19522 -17.40405,-7.8528 -30.60743,-14.31414 -11.69049,-5.72096 -52.30307,-28.87378 -63.94239,-36.4529 -12.1656,-7.92181 -12.54836,-8.13418 -12.15264,-6.74283 0.1487,0.52285 0.4178,1.68303 0.59798,2.57817 0.24954,1.23966 0.85961,1.9393 2.55992,2.93575 2.20178,1.29032 2.79496,2.3148 0.68713,1.18672 -0.59711,-0.31956 -1.21838,-0.44829 -1.38061,-0.28606 -0.16223,0.16223 1.22459,6.98671 3.08182,15.16551 5.47965,24.13105 11.19344,54.07813 12.04317,63.12055 l 0.30541,3.25 -2.32044,-5.25 c -3.50077,-7.92052 -11.98269,-29.21978 -15.23215,-38.25 -3.78843,-10.52804 -10.23405,-31.27864 -13.97703,-44.99671 -1.65024,-6.0482 -3.23616,-11.07529 -3.52426,-11.17132 -0.2881,-0.096 -8.62482,-6.12707 -18.52604,-13.4023 -21.79857,-16.01717 -46.94565,-36.32624 -61.42669,-49.6089 -5.88875,-5.40142 -11.03889,-10.01827 -11.44475,-10.25965 -1.12908,-0.67151 -0.52077,4.39346 0.68808,5.72922 0.58366,0.64494 0.88453,1.62474 0.80451,2.61994 -0.0703,0.87434 1.23535,9.12722 2.90145,18.33972 7.1104,39.31616 16.40027,97.96542 15.36451,97 -0.32082,-0.29904 -7.43237,-23.27252 -10.3627,-33.47615 -3.8209,-13.30469 -13.83476,-55.0114 -19.54625,-81.4081 l -5.6547,-26.13425 -23.3998,-24.86575 C 174.27364,252.68959 161.7569,239.84597 159.32856,237.82438 l -4.41516,-3.67562 1.10786,-4.57438 c 3.19925,-13.2098 6.17543,-20.58515 10.77735,-26.70759 20.08289,-26.7185 44.3271,-44.17693 69.02953,-49.70864 4.54523,-1.01783 6.47433,-1.15658 15.92186,-1.14518 11.9577,0.0144 15.68872,0.58482 25.65684,3.92237 8.7346,2.92453 19.3768,8.37833 26.31463,13.48541 8.11765,5.97557 28.67214,25.65243 45.45437,43.51357 41.73653,44.41972 86.03293,98.23748 168.57998,204.81568 43.88594,56.66203 59.16477,75.48878 63.91271,78.75396 l 1.66853,1.14746 -1.50169,0.32983 c -1.93843,0.42575 -4.94185,-0.39584 -9.42959,-2.57946 -2.1141,-1.02867 -3.86427,-1.59228 -4.25,-1.36864 -0.36068,0.20912 -5.83078,3.56853 -12.15578,7.46536 -31.96186,19.69167 -53.75986,30.30081 -72.38148,35.22824 -13.9233,3.68422 -51.65578,9.56252 -90.11852,14.03947 -14.31487,1.66621 -18.38205,1.96535 -25.75,1.89391 -4.8125,-0.0467 -9.7625,-0.15433 -11,-0.23925 z"
         id="path16"
         transform="scale(0.26458333)" />
      <path
         style="fill:#000000;fill-opacity:0;stroke-width:4.26898"
         d="m 356.75,552.42088 c -19.72217,-1.35351 -35.0393,-4.11756 -45.25,-8.16559 -13.54658,-5.37053 -32.13589,-15.99921 -44.99136,-25.72438 C 255.63882,510.30789 250.30729,504.82864 238.99019,490.25 228.13613,476.26784 213.53322,455.57963 210.57948,450 c -3.14874,-5.94798 -18.4655,-39.84209 -22.68003,-50.18813 -5.12167,-12.57295 -6.54664,-17.36522 -12.13998,-40.82772 -13.04128,-54.70453 -12.92188,-54.02436 -13.77751,-78.48415 -0.37517,-10.725 -0.69334,-21.92994 -0.70704,-24.89986 l -0.0249,-5.39986 5,5.62384 c 4.6807,5.26469 5,5.76067 5,7.76664 0,3.39494 1.3921,17.98132 2.78292,29.15924 10.07715,80.98977 39.0644,145.84048 85.27724,190.78349 17.17616,16.7042 35.24579,27.90216 58.44949,36.22184 10.32837,3.70323 25.51827,7.29148 37.24035,8.79712 8.12801,1.04401 39.0129,1.51593 49.03649,0.74929 34.04569,-2.60395 75.38678,-13.65045 111.46351,-29.78347 8.69207,-3.88698 30.03844,-14.41628 31.48358,-15.52958 0.95182,-0.73326 0.95512,-0.80988 0.10218,-2.37321 C 546.60099,480.72697 543.38266,476.175 539.93391,471.5 536.48516,466.825 525.08712,451.3 514.60493,437 430.33506,322.03744 379.39868,256.50967 342.04385,215.00653 335.58272,207.8279 316.71682,187.85721 314.87812,186.25 c -0.78652,-0.6875 -4.00302,-3.71032 -7.14779,-6.71738 -7.80881,-7.46687 -12.94783,-11.16212 -21.48033,-15.44559 -8.45908,-4.24662 -16.16941,-6.91626 -23.4298,-8.11238 -7.40645,-1.22018 -18.90912,-0.79766 -25.8202,0.94844 -17.16306,4.33629 -33.23029,15.12239 -49.30018,33.09574 -9.57451,10.70859 -16.57482,20.84625 -16.57482,24.0032 0,2.417 6.28306,10.81356 20.37442,27.22797 12.20885,14.22157 21.85104,24.99572 22.19218,24.79748 20.60448,-11.97273 40.13143,-22.16622 56.8084,-29.65518 9.27984,-4.1672 17.69408,-7.36489 18.15824,-6.90072 0.14535,0.14534 -0.84329,1.89359 -2.19698,3.88499 -9.13959,13.44511 -32.93922,37.58099 -49.46568,50.16454 l -4.72011,3.59397 18.6257,18.43246 c 26.62688,26.35063 39.28538,37.97712 65.957,60.57974 0.77572,0.65738 1.25614,0.37009 5,-2.99002 7.4998,-6.73106 21.00271,-17.08549 29.39183,-22.53853 8.94974,-5.81744 24.17275,-13.729 25.53774,-13.27222 1.06529,0.35649 -8.73524,17.3092 -15.62127,27.0213 -4.54735,6.4136 -12.29139,16.15272 -18.28692,22.99815 -2.58486,2.95127 -4.56467,5.58451 -4.39958,5.85164 0.39609,0.64088 22.47044,16.93259 32.10879,23.69751 9.73099,6.82993 23.99388,16.20788 35.34902,23.24221 l 8.93778,5.53682 3.31222,-1.27183 c 8.29959,-3.18688 15.08673,-5.4902 24.81222,-8.42041 11.40723,-3.4369 14.25,-4.1154 14.25,-3.40109 0,1.98199 -16.33253,12.78418 -26.4653,17.50392 l -4.7153,2.19633 1.5109,0.91884 c 0.831,0.50535 4.37099,2.432 7.86666,4.28144 3.49566,1.84944 6.26788,3.45049 6.16047,3.55789 -0.19522,0.19522 -17.40405,-7.8528 -30.60743,-14.31414 -11.69049,-5.72096 -52.30307,-28.87378 -63.94239,-36.4529 -12.1656,-7.92181 -12.54836,-8.13418 -12.15264,-6.74283 0.1487,0.52285 0.4178,1.68303 0.59798,2.57817 0.24954,1.23966 0.85961,1.9393 2.55992,2.93575 2.20178,1.29032 2.79496,2.3148 0.68713,1.18672 -0.59711,-0.31956 -1.21838,-0.44829 -1.38061,-0.28606 -0.16223,0.16223 1.22459,6.98671 3.08182,15.16551 5.47965,24.13105 11.19344,54.07813 12.04317,63.12055 l 0.30541,3.25 -2.32044,-5.25 c -3.50077,-7.92052 -11.98269,-29.21978 -15.23215,-38.25 -3.78843,-10.52804 -10.23405,-31.27864 -13.97703,-44.99671 -1.65024,-6.0482 -3.23616,-11.07529 -3.52426,-11.17132 -0.2881,-0.096 -8.62482,-6.12707 -18.52604,-13.4023 -21.79857,-16.01717 -46.94565,-36.32624 -61.42669,-49.6089 -5.88875,-5.40142 -11.03889,-10.01827 -11.44475,-10.25965 -1.12908,-0.67151 -0.52077,4.39346 0.68808,5.72922 0.58366,0.64494 0.88453,1.62474 0.80451,2.61994 -0.0703,0.87434 1.23535,9.12722 2.90145,18.33972 7.1104,39.31616 16.40027,97.96542 15.36451,97 -0.32082,-0.29904 -7.43237,-23.27252 -10.3627,-33.47615 -3.8209,-13.30469 -13.83476,-55.0114 -19.54625,-81.4081 l -5.6547,-26.13425 -23.3998,-24.86575 C 174.27364,252.68959 161.7569,239.84597 159.32856,237.82438 l -4.41516,-3.67562 1.10786,-4.57438 c 3.19925,-13.2098 6.17543,-20.58515 10.77735,-26.70759 20.08289,-26.7185 44.3271,-44.17693 69.02953,-49.70864 4.54523,-1.01783 6.47433,-1.15658 15.92186,-1.14518 11.9577,0.0144 15.68872,0.58482 25.65684,3.92237 8.7346,2.92453 19.3768,8.37833 26.31463,13.48541 8.11765,5.97557 28.67214,25.65243 45.45437,43.51357 41.73653,44.41972 86.03293,98.23748 168.57998,204.81568 43.88594,56.66203 59.16477,75.48878 63.91271,78.75396 l 1.66853,1.14746 -1.50169,0.32983 c -1.93843,0.42575 -4.94185,-0.39584 -9.42959,-2.57946 -2.1141,-1.02867 -3.86427,-1.59228 -4.25,-1.36864 -0.36068,0.20912 -5.83078,3.56853 -12.15578,7.46536 -31.96186,19.69167 -53.75986,30.30081 -72.38148,35.22824 -13.9233,3.68422 -51.65578,9.56252 -90.11852,14.03947 -14.31487,1.66621 -18.38205,1.96535 -25.75,1.89391 -4.8125,-0.0467 -9.7625,-0.15433 -11,-0.23925 z"
         id="path17"
         transform="scale(0.26458333)" />
      <path
         style="fill:#000000;fill-opacity:0;stroke-width:4.26898"
         d="m 356.75,552.42088 c -19.72217,-1.35351 -35.0393,-4.11756 -45.25,-8.16559 -13.54658,-5.37053 -32.13589,-15.99921 -44.99136,-25.72438 C 255.63882,510.30789 250.30729,504.82864 238.99019,490.25 228.13613,476.26784 213.53322,455.57963 210.57948,450 c -3.14874,-5.94798 -18.4655,-39.84209 -22.68003,-50.18813 -5.12167,-12.57295 -6.54664,-17.36522 -12.13998,-40.82772 -13.04128,-54.70453 -12.92188,-54.02436 -13.77751,-78.48415 -0.37517,-10.725 -0.69334,-21.92994 -0.70704,-24.89986 l -0.0249,-5.39986 5,5.62384 c 4.6807,5.26469 5,5.76067 5,7.76664 0,3.39494 1.3921,17.98132 2.78292,29.15924 10.07715,80.98977 39.0644,145.84048 85.27724,190.78349 17.17616,16.7042 35.24579,27.90216 58.44949,36.22184 10.32837,3.70323 25.51827,7.29148 37.24035,8.79712 8.12801,1.04401 39.0129,1.51593 49.03649,0.74929 34.04569,-2.60395 75.38678,-13.65045 111.46351,-29.78347 8.69207,-3.88698 30.03844,-14.41628 31.48358,-15.52958 0.95182,-0.73326 0.95512,-0.80988 0.10218,-2.37321 C 546.60099,480.72697 543.38266,476.175 539.93391,471.5 536.48516,466.825 525.08712,451.3 514.60493,437 430.33506,322.03744 379.39868,256.50967 342.04385,215.00653 335.58272,207.8279 316.71682,187.85721 314.87812,186.25 c -0.78652,-0.6875 -4.00302,-3.71032 -7.14779,-6.71738 -7.80881,-7.46687 -12.94783,-11.16212 -21.48033,-15.44559 -8.45908,-4.24662 -16.16941,-6.91626 -23.4298,-8.11238 -7.40645,-1.22018 -18.90912,-0.79766 -25.8202,0.94844 -17.16306,4.33629 -33.23029,15.12239 -49.30018,33.09574 -9.57451,10.70859 -16.57482,20.84625 -16.57482,24.0032 0,2.417 6.28306,10.81356 20.37442,27.22797 12.20885,14.22157 21.85104,24.99572 22.19218,24.79748 20.60448,-11.97273 40.13143,-22.16622 56.8084,-29.65518 9.27984,-4.1672 17.69408,-7.36489 18.15824,-6.90072 0.14535,0.14534 -0.84329,1.89359 -2.19698,3.88499 -9.13959,13.44511 -32.93922,37.58099 -49.46568,50.16454 l -4.72011,3.59397 18.6257,18.43246 c 26.62688,26.35063 39.28538,37.97712 65.957,60.57974 0.77572,0.65738 1.25614,0.37009 5,-2.99002 7.4998,-6.73106 21.00271,-17.08549 29.39183,-22.53853 8.94974,-5.81744 24.17275,-13.729 25.53774,-13.27222 1.06529,0.35649 -8.73524,17.3092 -15.62127,27.0213 -4.54735,6.4136 -12.29139,16.15272 -18.28692,22.99815 -2.58486,2.95127 -4.56467,5.58451 -4.39958,5.85164 0.39609,0.64088 22.47044,16.93259 32.10879,23.69751 9.73099,6.82993 23.99388,16.20788 35.34902,23.24221 l 8.93778,5.53682 3.31222,-1.27183 c 8.29959,-3.18688 15.08673,-5.4902 24.81222,-8.42041 11.40723,-3.4369 14.25,-4.1154 14.25,-3.40109 0,1.98199 -16.33253,12.78418 -26.4653,17.50392 l -4.7153,2.19633 1.5109,0.91884 c 0.831,0.50535 4.37099,2.432 7.86666,4.28144 3.49566,1.84944 6.26788,3.45049 6.16047,3.55789 -0.19522,0.19522 -17.40405,-7.8528 -30.60743,-14.31414 -11.69049,-5.72096 -52.30307,-28.87378 -63.94239,-36.4529 -12.1656,-7.92181 -12.54836,-8.13418 -12.15264,-6.74283 0.1487,0.52285 0.4178,1.68303 0.59798,2.57817 0.24954,1.23966 0.85961,1.9393 2.55992,2.93575 2.20178,1.29032 2.79496,2.3148 0.68713,1.18672 -0.59711,-0.31956 -1.21838,-0.44829 -1.38061,-0.28606 -0.16223,0.16223 1.22459,6.98671 3.08182,15.16551 5.47965,24.13105 11.19344,54.07813 12.04317,63.12055 l 0.30541,3.25 -2.32044,-5.25 c -3.50077,-7.92052 -11.98269,-29.21978 -15.23215,-38.25 -3.78843,-10.52804 -10.23405,-31.27864 -13.97703,-44.99671 -1.65024,-6.0482 -3.23616,-11.07529 -3.52426,-11.17132 -0.2881,-0.096 -8.62482,-6.12707 -18.52604,-13.4023 -21.79857,-16.01717 -46.94565,-36.32624 -61.42669,-49.6089 -5.88875,-5.40142 -11.03889,-10.01827 -11.44475,-10.25965 -1.12908,-0.67151 -0.52077,4.39346 0.68808,5.72922 0.58366,0.64494 0.88453,1.62474 0.80451,2.61994 -0.0703,0.87434 1.23535,9.12722 2.90145,18.33972 7.1104,39.31616 16.40027,97.96542 15.36451,97 -0.32082,-0.29904 -7.43237,-23.27252 -10.3627,-33.47615 -3.8209,-13.30469 -13.83476,-55.0114 -19.54625,-81.4081 l -5.6547,-26.13425 -23.3998,-24.86575 C 174.27364,252.68959 161.7569,239.84597 159.32856,237.82438 l -4.41516,-3.67562 1.10786,-4.57438 c 3.19925,-13.2098 6.17543,-20.58515 10.77735,-26.70759 20.08289,-26.7185 44.3271,-44.17693 69.02953,-49.70864 4.54523,-1.01783 6.47433,-1.15658 15.92186,-1.14518 11.9577,0.0144 15.68872,0.58482 25.65684,3.92237 8.7346,2.92453 19.3768,8.37833 26.31463,13.48541 8.11765,5.97557 28.67214,25.65243 45.45437,43.51357 41.73653,44.41972 86.03293,98.23748 168.57998,204.81568 43.88594,56.66203 59.16477,75.48878 63.91271,78.75396 l 1.66853,1.14746 -1.50169,0.32983 c -1.93843,0.42575 -4.94185,-0.39584 -9.42959,-2.57946 -2.1141,-1.02867 -3.86427,-1.59228 -4.25,-1.36864 -0.36068,0.20912 -5.83078,3.56853 -12.15578,7.46536 -31.96186,19.69167 -53.75986,30.30081 -72.38148,35.22824 -13.9233,3.68422 -51.65578,9.56252 -90.11852,14.03947 -14.31487,1.66621 -18.38205,1.96535 -25.75,1.89391 -4.8125,-0.0467 -9.7625,-0.15433 -11,-0.23925 z"
         id="path18"
         transform="scale(0.26458333)" />
      <path
         style="fill:#000000;fill-opacity:0;stroke-width:4.26898"
         d="m 356.75,552.42088 c -19.72217,-1.35351 -35.0393,-4.11756 -45.25,-8.16559 -13.54658,-5.37053 -32.13589,-15.99921 -44.99136,-25.72438 C 255.63882,510.30789 250.30729,504.82864 238.99019,490.25 228.13613,476.26784 213.53322,455.57963 210.57948,450 c -3.14874,-5.94798 -18.4655,-39.84209 -22.68003,-50.18813 -5.12167,-12.57295 -6.54664,-17.36522 -12.13998,-40.82772 -13.04128,-54.70453 -12.92188,-54.02436 -13.77751,-78.48415 -0.37517,-10.725 -0.69334,-21.92994 -0.70704,-24.89986 l -0.0249,-5.39986 5,5.62384 c 4.6807,5.26469 5,5.76067 5,7.76664 0,3.39494 1.3921,17.98132 2.78292,29.15924 10.07715,80.98977 39.0644,145.84048 85.27724,190.78349 17.17616,16.7042 35.24579,27.90216 58.44949,36.22184 10.32837,3.70323 25.51827,7.29148 37.24035,8.79712 8.12801,1.04401 39.0129,1.51593 49.03649,0.74929 34.04569,-2.60395 75.38678,-13.65045 111.46351,-29.78347 8.69207,-3.88698 30.03844,-14.41628 31.48358,-15.52958 0.95182,-0.73326 0.95512,-0.80988 0.10218,-2.37321 C 546.60099,480.72697 543.38266,476.175 539.93391,471.5 536.48516,466.825 525.08712,451.3 514.60493,437 430.33506,322.03744 379.39868,256.50967 342.04385,215.00653 335.58272,207.8279 316.71682,187.85721 314.87812,186.25 c -0.78652,-0.6875 -4.00302,-3.71032 -7.14779,-6.71738 -7.80881,-7.46687 -12.94783,-11.16212 -21.48033,-15.44559 -8.45908,-4.24662 -16.16941,-6.91626 -23.4298,-8.11238 -7.40645,-1.22018 -18.90912,-0.79766 -25.8202,0.94844 -17.16306,4.33629 -33.23029,15.12239 -49.30018,33.09574 -9.57451,10.70859 -16.57482,20.84625 -16.57482,24.0032 0,2.417 6.28306,10.81356 20.37442,27.22797 12.20885,14.22157 21.85104,24.99572 22.19218,24.79748 20.60448,-11.97273 40.13143,-22.16622 56.8084,-29.65518 9.27984,-4.1672 17.69408,-7.36489 18.15824,-6.90072 0.14535,0.14534 -0.84329,1.89359 -2.19698,3.88499 -9.13959,13.44511 -32.93922,37.58099 -49.46568,50.16454 l -4.72011,3.59397 18.6257,18.43246 c 26.62688,26.35063 39.28538,37.97712 65.957,60.57974 0.77572,0.65738 1.25614,0.37009 5,-2.99002 7.4998,-6.73106 21.00271,-17.08549 29.39183,-22.53853 8.94974,-5.81744 24.17275,-13.729 25.53774,-13.27222 1.06529,0.35649 -8.73524,17.3092 -15.62127,27.0213 -4.54735,6.4136 -12.29139,16.15272 -18.28692,22.99815 -2.58486,2.95127 -4.56467,5.58451 -4.39958,5.85164 0.39609,0.64088 22.47044,16.93259 32.10879,23.69751 9.73099,6.82993 23.99388,16.20788 35.34902,23.24221 l 8.93778,5.53682 3.31222,-1.27183 c 8.29959,-3.18688 15.08673,-5.4902 24.81222,-8.42041 11.40723,-3.4369 14.25,-4.1154 14.25,-3.40109 0,1.98199 -16.33253,12.78418 -26.4653,17.50392 l -4.7153,2.19633 1.5109,0.91884 c 0.831,0.50535 4.37099,2.432 7.86666,4.28144 3.49566,1.84944 6.26788,3.45049 6.16047,3.55789 -0.19522,0.19522 -17.40405,-7.8528 -30.60743,-14.31414 -11.69049,-5.72096 -52.30307,-28.87378 -63.94239,-36.4529 -12.1656,-7.92181 -12.54836,-8.13418 -12.15264,-6.74283 0.1487,0.52285 0.4178,1.68303 0.59798,2.57817 0.24954,1.23966 0.85961,1.9393 2.55992,2.93575 2.20178,1.29032 2.79496,2.3148 0.68713,1.18672 -0.59711,-0.31956 -1.21838,-0.44829 -1.38061,-0.28606 -0.16223,0.16223 1.22459,6.98671 3.08182,15.16551 5.47965,24.13105 11.19344,54.07813 12.04317,63.12055 l 0.30541,3.25 -2.32044,-5.25 c -3.50077,-7.92052 -11.98269,-29.21978 -15.23215,-38.25 -3.78843,-10.52804 -10.23405,-31.27864 -13.97703,-44.99671 -1.65024,-6.0482 -3.23616,-11.07529 -3.52426,-11.17132 -0.2881,-0.096 -8.62482,-6.12707 -18.52604,-13.4023 -21.79857,-16.01717 -46.94565,-36.32624 -61.42669,-49.6089 -5.88875,-5.40142 -11.03889,-10.01827 -11.44475,-10.25965 -1.12908,-0.67151 -0.52077,4.39346 0.68808,5.72922 0.58366,0.64494 0.88453,1.62474 0.80451,2.61994 -0.0703,0.87434 1.23535,9.12722 2.90145,18.33972 7.1104,39.31616 16.40027,97.96542 15.36451,97 -0.32082,-0.29904 -7.43237,-23.27252 -10.3627,-33.47615 -3.8209,-13.30469 -13.83476,-55.0114 -19.54625,-81.4081 l -5.6547,-26.13425 -23.3998,-24.86575 C 174.27364,252.68959 161.7569,239.84597 159.32856,237.82438 l -4.41516,-3.67562 1.10786,-4.57438 c 3.19925,-13.2098 6.17543,-20.58515 10.77735,-26.70759 20.08289,-26.7185 44.3271,-44.17693 69.02953,-49.70864 4.54523,-1.01783 6.47433,-1.15658 15.92186,-1.14518 11.9577,0.0144 15.68872,0.58482 25.65684,3.92237 8.7346,2.92453 19.3768,8.37833 26.31463,13.48541 8.11765,5.97557 28.67214,25.65243 45.45437,43.51357 41.73653,44.41972 86.03293,98.23748 168.57998,204.81568 43.88594,56.66203 59.16477,75.48878 63.91271,78.75396 l 1.66853,1.14746 -1.50169,0.32983 c -1.93843,0.42575 -4.94185,-0.39584 -9.42959,-2.57946 -2.1141,-1.02867 -3.86427,-1.59228 -4.25,-1.36864 -0.36068,0.20912 -5.83078,3.56853 -12.15578,7.46536 -31.96186,19.69167 -53.75986,30.30081 -72.38148,35.22824 -13.9233,3.68422 -51.65578,9.56252 -90.11852,14.03947 -14.31487,1.66621 -18.38205,1.96535 -25.75,1.89391 -4.8125,-0.0467 -9.7625,-0.15433 -11,-0.23925 z"
         id="path19"
         transform="scale(0.26458333)" />
      <path
         style="fill:#000000;fill-opacity:0;stroke-width:4.26898"
         d="m 356.75,552.42088 c -19.72217,-1.35351 -35.0393,-4.11756 -45.25,-8.16559 -13.54658,-5.37053 -32.13589,-15.99921 -44.99136,-25.72438 C 255.63882,510.30789 250.30729,504.82864 238.99019,490.25 228.13613,476.26784 213.53322,455.57963 210.57948,450 c -3.14874,-5.94798 -18.4655,-39.84209 -22.68003,-50.18813 -5.12167,-12.57295 -6.54664,-17.36522 -12.13998,-40.82772 -13.04128,-54.70453 -12.92188,-54.02436 -13.77751,-78.48415 -0.37517,-10.725 -0.69334,-21.92994 -0.70704,-24.89986 l -0.0249,-5.39986 5,5.62384 c 4.6807,5.26469 5,5.76067 5,7.76664 0,3.39494 1.3921,17.98132 2.78292,29.15924 10.07715,80.98977 39.0644,145.84048 85.27724,190.78349 17.17616,16.7042 35.24579,27.90216 58.44949,36.22184 10.32837,3.70323 25.51827,7.29148 37.24035,8.79712 8.12801,1.04401 39.0129,1.51593 49.03649,0.74929 34.04569,-2.60395 75.38678,-13.65045 111.46351,-29.78347 8.69207,-3.88698 30.03844,-14.41628 31.48358,-15.52958 0.95182,-0.73326 0.95512,-0.80988 0.10218,-2.37321 C 546.60099,480.72697 543.38266,476.175 539.93391,471.5 536.48516,466.825 525.08712,451.3 514.60493,437 430.33506,322.03744 379.39868,256.50967 342.04385,215.00653 335.58272,207.8279 316.71682,187.85721 314.87812,186.25 c -0.78652,-0.6875 -4.00302,-3.71032 -7.14779,-6.71738 -7.80881,-7.46687 -12.94783,-11.16212 -21.48033,-15.44559 -8.45908,-4.24662 -16.16941,-6.91626 -23.4298,-8.11238 -7.40645,-1.22018 -18.90912,-0.79766 -25.8202,0.94844 -17.16306,4.33629 -33.23029,15.12239 -49.30018,33.09574 -9.57451,10.70859 -16.57482,20.84625 -16.57482,24.0032 0,2.417 6.28306,10.81356 20.37442,27.22797 12.20885,14.22157 21.85104,24.99572 22.19218,24.79748 20.60448,-11.97273 40.13143,-22.16622 56.8084,-29.65518 9.27984,-4.1672 17.69408,-7.36489 18.15824,-6.90072 0.14535,0.14534 -0.84329,1.89359 -2.19698,3.88499 -9.13959,13.44511 -32.93922,37.58099 -49.46568,50.16454 l -4.72011,3.59397 18.6257,18.43246 c 26.62688,26.35063 39.28538,37.97712 65.957,60.57974 0.77572,0.65738 1.25614,0.37009 5,-2.99002 7.4998,-6.73106 21.00271,-17.08549 29.39183,-22.53853 8.94974,-5.81744 24.17275,-13.729 25.53774,-13.27222 1.06529,0.35649 -8.73524,17.3092 -15.62127,27.0213 -4.54735,6.4136 -12.29139,16.15272 -18.28692,22.99815 -2.58486,2.95127 -4.56467,5.58451 -4.39958,5.85164 0.39609,0.64088 22.47044,16.93259 32.10879,23.69751 9.73099,6.82993 23.99388,16.20788 35.34902,23.24221 l 8.93778,5.53682 3.31222,-1.27183 c 8.29959,-3.18688 15.08673,-5.4902 24.81222,-8.42041 11.40723,-3.4369 14.25,-4.1154 14.25,-3.40109 0,1.98199 -16.33253,12.78418 -26.4653,17.50392 l -4.7153,2.19633 1.5109,0.91884 c 0.831,0.50535 4.37099,2.432 7.86666,4.28144 3.49566,1.84944 6.26788,3.45049 6.16047,3.55789 -0.19522,0.19522 -17.40405,-7.8528 -30.60743,-14.31414 -11.69049,-5.72096 -52.30307,-28.87378 -63.94239,-36.4529 -12.1656,-7.92181 -12.54836,-8.13418 -12.15264,-6.74283 0.1487,0.52285 0.4178,1.68303 0.59798,2.57817 0.24954,1.23966 0.85961,1.9393 2.55992,2.93575 2.20178,1.29032 2.79496,2.3148 0.68713,1.18672 -0.59711,-0.31956 -1.21838,-0.44829 -1.38061,-0.28606 -0.16223,0.16223 1.22459,6.98671 3.08182,15.16551 5.47965,24.13105 11.19344,54.07813 12.04317,63.12055 l 0.30541,3.25 -2.32044,-5.25 c -3.50077,-7.92052 -11.98269,-29.21978 -15.23215,-38.25 -3.78843,-10.52804 -10.23405,-31.27864 -13.97703,-44.99671 -1.65024,-6.0482 -3.23616,-11.07529 -3.52426,-11.17132 -0.2881,-0.096 -8.62482,-6.12707 -18.52604,-13.4023 -21.79857,-16.01717 -46.94565,-36.32624 -61.42669,-49.6089 -5.88875,-5.40142 -11.03889,-10.01827 -11.44475,-10.25965 -1.12908,-0.67151 -0.52077,4.39346 0.68808,5.72922 0.58366,0.64494 0.88453,1.62474 0.80451,2.61994 -0.0703,0.87434 1.23535,9.12722 2.90145,18.33972 7.1104,39.31616 16.40027,97.96542 15.36451,97 -0.32082,-0.29904 -7.43237,-23.27252 -10.3627,-33.47615 -3.8209,-13.30469 -13.83476,-55.0114 -19.54625,-81.4081 l -5.6547,-26.13425 -23.3998,-24.86575 C 174.27364,252.68959 161.7569,239.84597 159.32856,237.82438 l -4.41516,-3.67562 1.10786,-4.57438 c 3.19925,-13.2098 6.17543,-20.58515 10.77735,-26.70759 20.08289,-26.7185 44.3271,-44.17693 69.02953,-49.70864 4.54523,-1.01783 6.47433,-1.15658 15.92186,-1.14518 11.9577,0.0144 15.68872,0.58482 25.65684,3.92237 8.7346,2.92453 19.3768,8.37833 26.31463,13.48541 8.11765,5.97557 28.67214,25.65243 45.45437,43.51357 41.73653,44.41972 86.03293,98.23748 168.57998,204.81568 43.88594,56.66203 59.16477,75.48878 63.91271,78.75396 l 1.66853,1.14746 -1.50169,0.32983 c -1.93843,0.42575 -4.94185,-0.39584 -9.42959,-2.57946 -2.1141,-1.02867 -3.86427,-1.59228 -4.25,-1.36864 -0.36068,0.20912 -5.83078,3.56853 -12.15578,7.46536 -31.96186,19.69167 -53.75986,30.30081 -72.38148,35.22824 -13.9233,3.68422 -51.65578,9.56252 -90.11852,14.03947 -14.31487,1.66621 -18.38205,1.96535 -25.75,1.89391 -4.8125,-0.0467 -9.7625,-0.15433 -11,-0.23925 z"
         id="path20"
         transform="scale(0.26458333)" />
      <path
         style="fill:#adadad;fill-opacity:0;stroke-width:4.26898"
         d="M 375.5,529.39413 C 349.73972,528.84868 326.08583,523.6746 304.35523,513.83182 280.02287,502.81058 259.61894,486.19137 239.4851,460.99444 208.22048,421.86766 187.46358,372.14227 177.26936,311.94991 174.87828,297.83164 171.75,270.81543 171.75,264.28402 v -2.27859 l 17.15261,17.14721 17.15261,17.1472 2.88787,13.10008 c 8.91758,40.45233 20.88048,82.89305 31.66848,112.35008 4.05898,11.08318 5.43535,14.18453 6.11001,13.76756 0.49847,-0.30807 0.40505,-1.29163 -1.2839,-13.51756 -2.68562,-19.44051 -9.50704,-60.90929 -14.67933,-89.23856 -2.5276,-13.84397 -2.81918,-16.02938 -2.13335,-15.9898 0.20625,0.0119 1.6125,1.15432 3.125,2.53869 16.01429,14.65766 51.21655,42.66182 74.75,59.46524 4.125,2.94534 7.86653,6.00075 8.31453,6.7898 0.44799,0.78904 1.6248,4.35963 2.61514,7.93463 3.56415,12.86613 13.0891,41.55511 17.6181,53.0654 5.07684,12.90261 16.78848,37.6846 17.80925,37.6846 1.88507,0 -4.04934,-34.36845 -11.89438,-68.88495 -1.76695,-7.77423 -3.21264,-14.37581 -3.21264,-14.6702 0,-0.63229 4.82667,1.95402 15.54179,8.32788 12.29017,7.31077 29.4413,16.62915 45.51476,24.72861 12.49917,6.29836 14.89294,7.67826 15.36091,8.85486 0.3049,0.76659 1.31966,3.5313 2.25502,6.1438 5.36923,14.99639 17.60349,40.5 19.42813,40.5 1.11896,0 -1.3801,-11.18821 -7.1177,-31.86571 -1.46749,-5.28864 -2.53386,-9.75002 -2.3697,-9.91418 0.16416,-0.16416 4.03704,1.19717 8.6064,3.02518 10.70782,4.28374 15.1946,5.79803 15.53715,5.24377 0.3517,-0.56906 -0.16432,-0.87893 -11.25676,-6.75969 -5.0875,-2.69719 -9.90082,-5.29799 -10.69626,-5.77956 l -1.44625,-0.87558 4.69625,-2.19783 c 5.58603,-2.61424 13.65968,-7.41126 19.19626,-11.4056 4.03554,-2.91143 8.13921,-6.74826 7.69388,-7.19359 -0.71555,-0.71555 -26.34353,6.96125 -36.94388,11.06645 -3.1625,1.22474 -6.0875,2.24975 -6.5,2.27781 -0.74123,0.0504 -8.44606,-4.60657 -22.46048,-13.57562 -12.38227,-7.9245 -32.46169,-22.08362 -50.40036,-35.54013 l -3.61084,-2.70864 1.11084,-1.35996 c 0.61096,-0.74798 3.83034,-4.58357 7.15418,-8.52354 7.81078,-9.25866 13.39688,-16.63676 18.48396,-24.41358 4.90216,-7.49413 10.52733,-17.32054 11.51065,-20.10757 l 0.71177,-2.01738 -1.57404,0.31481 c -3.96527,0.79305 -21.71195,10.60298 -30.52431,16.87308 -8.84891,6.2961 -19.7411,14.89839 -24.79738,19.58414 l -3.146,2.91547 -3.104,-2.64586 c -15.57884,-13.27946 -27.89719,-24.22708 -37.84812,-33.63659 -11.90109,-11.25355 -43.53538,-42.43705 -43.40085,-42.78239 0.0797,-0.2047 2.39498,-2.12099 5.14498,-4.25842 11.57422,-8.99605 31.13913,-27.7555 39.88114,-38.23929 5.77152,-6.92146 11.20436,-14.8645 10.58831,-15.48055 -2.02776,-2.02776 -44.43855,18.14447 -70.68079,33.61853 l -4.71135,2.7781 -2.28865,-2.54427 c -19.53815,-21.72028 -37.24689,-43.12901 -39.38641,-47.61563 -0.71941,-1.50862 -0.6883,-1.74525 0.56556,-4.30131 4.3027,-8.7713 21.00592,-28.00833 31.78219,-36.60342 12.32199,-9.82794 24.76743,-15.94166 36.95489,-18.15379 5.65323,-1.02612 16.46103,-1.0065 22.29511,0.0405 9.22598,1.65565 23.03232,7.35072 31.438,12.96806 10.37837,6.93565 34.96556,31.94027 59.53312,60.54382 31.61037,36.80336 74.85175,92.14833 124.03241,158.75 21.02552,28.47328 63.7343,86.68959 66.16504,90.18953 l 2.73605,3.93954 -1.20231,0.91825 C 544.57064,485.04349 525.906,494.29 515.72758,498.89458 480.45685,514.8506 437.57831,526.39762 405,528.71309 c -7.50533,0.53343 -21.36256,0.85334 -29.5,0.68104 z"
         id="path21"
         transform="scale(0.26458333)" />
      <path
         style="fill:#adadad;fill-opacity:0;stroke-width:4.26898"
         d="M 375.5,529.39413 C 349.73972,528.84868 326.08583,523.6746 304.35523,513.83182 280.02287,502.81058 259.61894,486.19137 239.4851,460.99444 208.22048,421.86766 187.46358,372.14227 177.26936,311.94991 174.87828,297.83164 171.75,270.81543 171.75,264.28402 v -2.27859 l 17.15261,17.14721 17.15261,17.1472 2.88787,13.10008 c 8.91758,40.45233 20.88048,82.89305 31.66848,112.35008 4.05898,11.08318 5.43535,14.18453 6.11001,13.76756 0.49847,-0.30807 0.40505,-1.29163 -1.2839,-13.51756 -2.68562,-19.44051 -9.50704,-60.90929 -14.67933,-89.23856 -2.5276,-13.84397 -2.81918,-16.02938 -2.13335,-15.9898 0.20625,0.0119 1.6125,1.15432 3.125,2.53869 16.01429,14.65766 51.21655,42.66182 74.75,59.46524 4.125,2.94534 7.86653,6.00075 8.31453,6.7898 0.44799,0.78904 1.6248,4.35963 2.61514,7.93463 3.56415,12.86613 13.0891,41.55511 17.6181,53.0654 5.07684,12.90261 16.78848,37.6846 17.80925,37.6846 1.88507,0 -4.04934,-34.36845 -11.89438,-68.88495 -1.76695,-7.77423 -3.21264,-14.37581 -3.21264,-14.6702 0,-0.63229 4.82667,1.95402 15.54179,8.32788 12.29017,7.31077 29.4413,16.62915 45.51476,24.72861 12.49917,6.29836 14.89294,7.67826 15.36091,8.85486 0.3049,0.76659 1.31966,3.5313 2.25502,6.1438 5.36923,14.99639 17.60349,40.5 19.42813,40.5 1.11896,0 -1.3801,-11.18821 -7.1177,-31.86571 -1.46749,-5.28864 -2.53386,-9.75002 -2.3697,-9.91418 0.16416,-0.16416 4.03704,1.19717 8.6064,3.02518 10.70782,4.28374 15.1946,5.79803 15.53715,5.24377 0.3517,-0.56906 -0.16432,-0.87893 -11.25676,-6.75969 -5.0875,-2.69719 -9.90082,-5.29799 -10.69626,-5.77956 l -1.44625,-0.87558 4.69625,-2.19783 c 5.58603,-2.61424 13.65968,-7.41126 19.19626,-11.4056 4.03554,-2.91143 8.13921,-6.74826 7.69388,-7.19359 -0.71555,-0.71555 -26.34353,6.96125 -36.94388,11.06645 -3.1625,1.22474 -6.0875,2.24975 -6.5,2.27781 -0.74123,0.0504 -8.44606,-4.60657 -22.46048,-13.57562 -12.38227,-7.9245 -32.46169,-22.08362 -50.40036,-35.54013 l -3.61084,-2.70864 1.11084,-1.35996 c 0.61096,-0.74798 3.83034,-4.58357 7.15418,-8.52354 7.81078,-9.25866 13.39688,-16.63676 18.48396,-24.41358 4.90216,-7.49413 10.52733,-17.32054 11.51065,-20.10757 l 0.71177,-2.01738 -1.57404,0.31481 c -3.96527,0.79305 -21.71195,10.60298 -30.52431,16.87308 -8.84891,6.2961 -19.7411,14.89839 -24.79738,19.58414 l -3.146,2.91547 -3.104,-2.64586 c -15.57884,-13.27946 -27.89719,-24.22708 -37.84812,-33.63659 -11.90109,-11.25355 -43.53538,-42.43705 -43.40085,-42.78239 0.0797,-0.2047 2.39498,-2.12099 5.14498,-4.25842 11.57422,-8.99605 31.13913,-27.7555 39.88114,-38.23929 5.77152,-6.92146 11.20436,-14.8645 10.58831,-15.48055 -2.02776,-2.02776 -44.43855,18.14447 -70.68079,33.61853 l -4.71135,2.7781 -2.28865,-2.54427 c -19.53815,-21.72028 -37.24689,-43.12901 -39.38641,-47.61563 -0.71941,-1.50862 -0.6883,-1.74525 0.56556,-4.30131 4.3027,-8.7713 21.00592,-28.00833 31.78219,-36.60342 12.32199,-9.82794 24.76743,-15.94166 36.95489,-18.15379 5.65323,-1.02612 16.46103,-1.0065 22.29511,0.0405 9.22598,1.65565 23.03232,7.35072 31.438,12.96806 10.37837,6.93565 34.96556,31.94027 59.53312,60.54382 31.61037,36.80336 74.85175,92.14833 124.03241,158.75 21.02552,28.47328 63.7343,86.68959 66.16504,90.18953 l 2.73605,3.93954 -1.20231,0.91825 C 544.57064,485.04349 525.906,494.29 515.72758,498.89458 480.45685,514.8506 437.57831,526.39762 405,528.71309 c -7.50533,0.53343 -21.36256,0.85334 -29.5,0.68104 z"
         id="path22"
         transform="scale(0.26458333)" />
      <path
         style="fill:#adadad;fill-opacity:0;stroke-width:4.26898"
         d="m 356.75,552.42088 c -19.72217,-1.35351 -35.0393,-4.11756 -45.25,-8.16559 -13.54658,-5.37053 -32.13589,-15.99921 -44.99136,-25.72438 C 255.63882,510.30789 250.30729,504.82864 238.99019,490.25 228.13613,476.26784 213.53322,455.57963 210.57948,450 c -3.14874,-5.94798 -18.4655,-39.84209 -22.68003,-50.18813 -5.12167,-12.57295 -6.54664,-17.36522 -12.13998,-40.82772 -13.04128,-54.70453 -12.92188,-54.02436 -13.77751,-78.48415 -0.37517,-10.725 -0.69334,-21.92994 -0.70704,-24.89986 l -0.0249,-5.39986 5,5.62384 c 4.6807,5.26469 5,5.76067 5,7.76664 0,3.39494 1.3921,17.98132 2.78292,29.15924 10.07715,80.98977 39.0644,145.84048 85.27724,190.78349 17.17616,16.7042 35.24579,27.90216 58.44949,36.22184 10.32837,3.70323 25.51827,7.29148 37.24035,8.79712 8.12801,1.04401 39.0129,1.51593 49.03649,0.74929 34.04569,-2.60395 75.38678,-13.65045 111.46351,-29.78347 8.69207,-3.88698 30.03844,-14.41628 31.48358,-15.52958 0.95182,-0.73326 0.95512,-0.80988 0.10218,-2.37321 C 546.60099,480.72697 543.38266,476.175 539.93391,471.5 536.48516,466.825 525.08712,451.3 514.60493,437 430.33506,322.03744 379.39868,256.50967 342.04385,215.00653 335.58272,207.8279 316.71682,187.85721 314.87812,186.25 c -0.78652,-0.6875 -4.00302,-3.71032 -7.14779,-6.71738 -7.80881,-7.46687 -12.94783,-11.16212 -21.48033,-15.44559 -8.45908,-4.24662 -16.16941,-6.91626 -23.4298,-8.11238 -7.40645,-1.22018 -18.90912,-0.79766 -25.8202,0.94844 -17.16306,4.33629 -33.23029,15.12239 -49.30018,33.09574 -9.57451,10.70859 -16.57482,20.84625 -16.57482,24.0032 0,2.417 6.28306,10.81356 20.37442,27.22797 12.20885,14.22157 21.85104,24.99572 22.19218,24.79748 20.60448,-11.97273 40.13143,-22.16622 56.8084,-29.65518 9.27984,-4.1672 17.69408,-7.36489 18.15824,-6.90072 0.14535,0.14534 -0.84329,1.89359 -2.19698,3.88499 -9.13959,13.44511 -32.93922,37.58099 -49.46568,50.16454 l -4.72011,3.59397 18.6257,18.43246 c 26.62688,26.35063 39.28538,37.97712 65.957,60.57974 0.77572,0.65738 1.25614,0.37009 5,-2.99002 7.4998,-6.73106 21.00271,-17.08549 29.39183,-22.53853 8.94974,-5.81744 24.17275,-13.729 25.53774,-13.27222 1.06529,0.35649 -8.73524,17.3092 -15.62127,27.0213 -4.54735,6.4136 -12.29139,16.15272 -18.28692,22.99815 -2.58486,2.95127 -4.56467,5.58451 -4.39958,5.85164 0.39609,0.64088 22.47044,16.93259 32.10879,23.69751 9.73099,6.82993 23.99388,16.20788 35.34902,23.24221 l 8.93778,5.53682 3.31222,-1.27183 c 8.29959,-3.18688 15.08673,-5.4902 24.81222,-8.42041 11.40723,-3.4369 14.25,-4.1154 14.25,-3.40109 0,1.98199 -16.33253,12.78418 -26.4653,17.50392 l -4.7153,2.19633 1.5109,0.91884 c 0.831,0.50535 4.37099,2.432 7.86666,4.28144 3.49566,1.84944 6.26788,3.45049 6.16047,3.55789 -0.19522,0.19522 -17.40405,-7.8528 -30.60743,-14.31414 -11.69049,-5.72096 -52.30307,-28.87378 -63.94239,-36.4529 -12.1656,-7.92181 -12.54836,-8.13418 -12.15264,-6.74283 0.1487,0.52285 0.4178,1.68303 0.59798,2.57817 0.24954,1.23966 0.85961,1.9393 2.55992,2.93575 2.20178,1.29032 2.79496,2.3148 0.68713,1.18672 -0.59711,-0.31956 -1.21838,-0.44829 -1.38061,-0.28606 -0.16223,0.16223 1.22459,6.98671 3.08182,15.16551 5.47965,24.13105 11.19344,54.07813 12.04317,63.12055 l 0.30541,3.25 -2.32044,-5.25 c -3.50077,-7.92052 -11.98269,-29.21978 -15.23215,-38.25 -3.78843,-10.52804 -10.23405,-31.27864 -13.97703,-44.99671 -1.65024,-6.0482 -3.23616,-11.07529 -3.52426,-11.17132 -0.2881,-0.096 -8.62482,-6.12707 -18.52604,-13.4023 -21.79857,-16.01717 -46.94565,-36.32624 -61.42669,-49.6089 -5.88875,-5.40142 -11.03889,-10.01827 -11.44475,-10.25965 -1.12908,-0.67151 -0.52077,4.39346 0.68808,5.72922 0.58366,0.64494 0.88453,1.62474 0.80451,2.61994 -0.0703,0.87434 1.23535,9.12722 2.90145,18.33972 7.1104,39.31616 16.40027,97.96542 15.36451,97 -0.32082,-0.29904 -7.43237,-23.27252 -10.3627,-33.47615 -3.8209,-13.30469 -13.83476,-55.0114 -19.54625,-81.4081 l -5.6547,-26.13425 -23.3998,-24.86575 C 174.27364,252.68959 161.7569,239.84597 159.32856,237.82438 l -4.41516,-3.67562 1.10786,-4.57438 c 3.19925,-13.2098 6.17543,-20.58515 10.77735,-26.70759 20.08289,-26.7185 44.3271,-44.17693 69.02953,-49.70864 4.54523,-1.01783 6.47433,-1.15658 15.92186,-1.14518 11.9577,0.0144 15.68872,0.58482 25.65684,3.92237 8.7346,2.92453 19.3768,8.37833 26.31463,13.48541 8.11765,5.97557 28.67214,25.65243 45.45437,43.51357 41.73653,44.41972 86.03293,98.23748 168.57998,204.81568 43.88594,56.66203 59.16477,75.48878 63.91271,78.75396 l 1.66853,1.14746 -1.50169,0.32983 c -1.93843,0.42575 -4.94185,-0.39584 -9.42959,-2.57946 -2.1141,-1.02867 -3.86427,-1.59228 -4.25,-1.36864 -0.36068,0.20912 -5.83078,3.56853 -12.15578,7.46536 -31.96186,19.69167 -53.75986,30.30081 -72.38148,35.22824 -13.9233,3.68422 -51.65578,9.56252 -90.11852,14.03947 -14.31487,1.66621 -18.38205,1.96535 -25.75,1.89391 -4.8125,-0.0467 -9.7625,-0.15433 -11,-0.23925 z"
         id="path23"
         transform="scale(0.26458333)" />
      <path
         style="fill:#adadad;fill-opacity:0;stroke-width:4.26898"
         d="m 356.75,552.42088 c -19.72217,-1.35351 -35.0393,-4.11756 -45.25,-8.16559 -13.54658,-5.37053 -32.13589,-15.99921 -44.99136,-25.72438 C 255.63882,510.30789 250.30729,504.82864 238.99019,490.25 228.13613,476.26784 213.53322,455.57963 210.57948,450 c -3.14874,-5.94798 -18.4655,-39.84209 -22.68003,-50.18813 -5.12167,-12.57295 -6.54664,-17.36522 -12.13998,-40.82772 -13.04128,-54.70453 -12.92188,-54.02436 -13.77751,-78.48415 -0.37517,-10.725 -0.69334,-21.92994 -0.70704,-24.89986 l -0.0249,-5.39986 5,5.62384 c 4.6807,5.26469 5,5.76067 5,7.76664 0,3.39494 1.3921,17.98132 2.78292,29.15924 10.07715,80.98977 39.0644,145.84048 85.27724,190.78349 17.17616,16.7042 35.24579,27.90216 58.44949,36.22184 10.32837,3.70323 25.51827,7.29148 37.24035,8.79712 8.12801,1.04401 39.0129,1.51593 49.03649,0.74929 34.04569,-2.60395 75.38678,-13.65045 111.46351,-29.78347 8.69207,-3.88698 30.03844,-14.41628 31.48358,-15.52958 0.95182,-0.73326 0.95512,-0.80988 0.10218,-2.37321 C 546.60099,480.72697 543.38266,476.175 539.93391,471.5 536.48516,466.825 525.08712,451.3 514.60493,437 430.33506,322.03744 379.39868,256.50967 342.04385,215.00653 335.58272,207.8279 316.71682,187.85721 314.87812,186.25 c -0.78652,-0.6875 -4.00302,-3.71032 -7.14779,-6.71738 -7.80881,-7.46687 -12.94783,-11.16212 -21.48033,-15.44559 -8.45908,-4.24662 -16.16941,-6.91626 -23.4298,-8.11238 -7.40645,-1.22018 -18.90912,-0.79766 -25.8202,0.94844 -17.16306,4.33629 -33.23029,15.12239 -49.30018,33.09574 -9.57451,10.70859 -16.57482,20.84625 -16.57482,24.0032 0,2.417 6.28306,10.81356 20.37442,27.22797 12.20885,14.22157 21.85104,24.99572 22.19218,24.79748 20.60448,-11.97273 40.13143,-22.16622 56.8084,-29.65518 9.27984,-4.1672 17.69408,-7.36489 18.15824,-6.90072 0.14535,0.14534 -0.84329,1.89359 -2.19698,3.88499 -9.13959,13.44511 -32.93922,37.58099 -49.46568,50.16454 l -4.72011,3.59397 18.6257,18.43246 c 26.62688,26.35063 39.28538,37.97712 65.957,60.57974 0.77572,0.65738 1.25614,0.37009 5,-2.99002 7.4998,-6.73106 21.00271,-17.08549 29.39183,-22.53853 8.94974,-5.81744 24.17275,-13.729 25.53774,-13.27222 1.06529,0.35649 -8.73524,17.3092 -15.62127,27.0213 -4.54735,6.4136 -12.29139,16.15272 -18.28692,22.99815 -2.58486,2.95127 -4.56467,5.58451 -4.39958,5.85164 0.39609,0.64088 22.47044,16.93259 32.10879,23.69751 9.73099,6.82993 23.99388,16.20788 35.34902,23.24221 l 8.93778,5.53682 3.31222,-1.27183 c 8.29959,-3.18688 15.08673,-5.4902 24.81222,-8.42041 11.40723,-3.4369 14.25,-4.1154 14.25,-3.40109 0,1.98199 -16.33253,12.78418 -26.4653,17.50392 l -4.7153,2.19633 1.5109,0.91884 c 0.831,0.50535 4.37099,2.432 7.86666,4.28144 3.49566,1.84944 6.26788,3.45049 6.16047,3.55789 -0.19522,0.19522 -17.40405,-7.8528 -30.60743,-14.31414 -11.69049,-5.72096 -52.30307,-28.87378 -63.94239,-36.4529 -12.1656,-7.92181 -12.54836,-8.13418 -12.15264,-6.74283 0.1487,0.52285 0.4178,1.68303 0.59798,2.57817 0.24954,1.23966 0.85961,1.9393 2.55992,2.93575 2.20178,1.29032 2.79496,2.3148 0.68713,1.18672 -0.59711,-0.31956 -1.21838,-0.44829 -1.38061,-0.28606 -0.16223,0.16223 1.22459,6.98671 3.08182,15.16551 5.47965,24.13105 11.19344,54.07813 12.04317,63.12055 l 0.30541,3.25 -2.32044,-5.25 c -3.50077,-7.92052 -11.98269,-29.21978 -15.23215,-38.25 -3.78843,-10.52804 -10.23405,-31.27864 -13.97703,-44.99671 -1.65024,-6.0482 -3.23616,-11.07529 -3.52426,-11.17132 -0.2881,-0.096 -8.62482,-6.12707 -18.52604,-13.4023 -21.79857,-16.01717 -46.94565,-36.32624 -61.42669,-49.6089 -5.88875,-5.40142 -11.03889,-10.01827 -11.44475,-10.25965 -1.12908,-0.67151 -0.52077,4.39346 0.68808,5.72922 0.58366,0.64494 0.88453,1.62474 0.80451,2.61994 -0.0703,0.87434 1.23535,9.12722 2.90145,18.33972 7.1104,39.31616 16.40027,97.96542 15.36451,97 -0.32082,-0.29904 -7.43237,-23.27252 -10.3627,-33.47615 -3.8209,-13.30469 -13.83476,-55.0114 -19.54625,-81.4081 l -5.6547,-26.13425 -23.3998,-24.86575 C 174.27364,252.68959 161.7569,239.84597 159.32856,237.82438 l -4.41516,-3.67562 1.10786,-4.57438 c 3.19925,-13.2098 6.17543,-20.58515 10.77735,-26.70759 20.08289,-26.7185 44.3271,-44.17693 69.02953,-49.70864 4.54523,-1.01783 6.47433,-1.15658 15.92186,-1.14518 11.9577,0.0144 15.68872,0.58482 25.65684,3.92237 8.7346,2.92453 19.3768,8.37833 26.31463,13.48541 8.11765,5.97557 28.67214,25.65243 45.45437,43.51357 41.73653,44.41972 86.03293,98.23748 168.57998,204.81568 43.88594,56.66203 59.16477,75.48878 63.91271,78.75396 l 1.66853,1.14746 -1.50169,0.32983 c -1.93843,0.42575 -4.94185,-0.39584 -9.42959,-2.57946 -2.1141,-1.02867 -3.86427,-1.59228 -4.25,-1.36864 -0.36068,0.20912 -5.83078,3.56853 -12.15578,7.46536 -31.96186,19.69167 -53.75986,30.30081 -72.38148,35.22824 -13.9233,3.68422 -51.65578,9.56252 -90.11852,14.03947 -14.31487,1.66621 -18.38205,1.96535 -25.75,1.89391 -4.8125,-0.0467 -9.7625,-0.15433 -11,-0.23925 z"
         id="path24"
         transform="scale(0.26458333)" />
      <path
         style="fill:#adadad;fill-opacity:0;stroke-width:4.26898"
         d="m 356.75,552.42088 c -19.72217,-1.35351 -35.0393,-4.11756 -45.25,-8.16559 -13.54658,-5.37053 -32.13589,-15.99921 -44.99136,-25.72438 C 255.63882,510.30789 250.30729,504.82864 238.99019,490.25 228.13613,476.26784 213.53322,455.57963 210.57948,450 c -3.14874,-5.94798 -18.4655,-39.84209 -22.68003,-50.18813 -5.12167,-12.57295 -6.54664,-17.36522 -12.13998,-40.82772 -13.04128,-54.70453 -12.92188,-54.02436 -13.77751,-78.48415 -0.37517,-10.725 -0.69334,-21.92994 -0.70704,-24.89986 l -0.0249,-5.39986 5,5.62384 c 4.6807,5.26469 5,5.76067 5,7.76664 0,3.39494 1.3921,17.98132 2.78292,29.15924 10.07715,80.98977 39.0644,145.84048 85.27724,190.78349 17.17616,16.7042 35.24579,27.90216 58.44949,36.22184 10.32837,3.70323 25.51827,7.29148 37.24035,8.79712 8.12801,1.04401 39.0129,1.51593 49.03649,0.74929 34.04569,-2.60395 75.38678,-13.65045 111.46351,-29.78347 8.69207,-3.88698 30.03844,-14.41628 31.48358,-15.52958 0.95182,-0.73326 0.95512,-0.80988 0.10218,-2.37321 C 546.60099,480.72697 543.38266,476.175 539.93391,471.5 536.48516,466.825 525.08712,451.3 514.60493,437 430.33506,322.03744 379.39868,256.50967 342.04385,215.00653 335.58272,207.8279 316.71682,187.85721 314.87812,186.25 c -0.78652,-0.6875 -4.00302,-3.71032 -7.14779,-6.71738 -7.80881,-7.46687 -12.94783,-11.16212 -21.48033,-15.44559 -8.45908,-4.24662 -16.16941,-6.91626 -23.4298,-8.11238 -7.40645,-1.22018 -18.90912,-0.79766 -25.8202,0.94844 -17.16306,4.33629 -33.23029,15.12239 -49.30018,33.09574 -9.57451,10.70859 -16.57482,20.84625 -16.57482,24.0032 0,2.417 6.28306,10.81356 20.37442,27.22797 12.20885,14.22157 21.85104,24.99572 22.19218,24.79748 20.60448,-11.97273 40.13143,-22.16622 56.8084,-29.65518 9.27984,-4.1672 17.69408,-7.36489 18.15824,-6.90072 0.14535,0.14534 -0.84329,1.89359 -2.19698,3.88499 -9.13959,13.44511 -32.93922,37.58099 -49.46568,50.16454 l -4.72011,3.59397 18.6257,18.43246 c 26.62688,26.35063 39.28538,37.97712 65.957,60.57974 0.77572,0.65738 1.25614,0.37009 5,-2.99002 7.4998,-6.73106 21.00271,-17.08549 29.39183,-22.53853 8.94974,-5.81744 24.17275,-13.729 25.53774,-13.27222 1.06529,0.35649 -8.73524,17.3092 -15.62127,27.0213 -4.54735,6.4136 -12.29139,16.15272 -18.28692,22.99815 -2.58486,2.95127 -4.56467,5.58451 -4.39958,5.85164 0.39609,0.64088 22.47044,16.93259 32.10879,23.69751 9.73099,6.82993 23.99388,16.20788 35.34902,23.24221 l 8.93778,5.53682 3.31222,-1.27183 c 8.29959,-3.18688 15.08673,-5.4902 24.81222,-8.42041 11.40723,-3.4369 14.25,-4.1154 14.25,-3.40109 0,1.98199 -16.33253,12.78418 -26.4653,17.50392 l -4.7153,2.19633 1.5109,0.91884 c 0.831,0.50535 4.37099,2.432 7.86666,4.28144 3.49566,1.84944 6.26788,3.45049 6.16047,3.55789 -0.19522,0.19522 -17.40405,-7.8528 -30.60743,-14.31414 -11.69049,-5.72096 -52.30307,-28.87378 -63.94239,-36.4529 -12.1656,-7.92181 -12.54836,-8.13418 -12.15264,-6.74283 0.1487,0.52285 0.4178,1.68303 0.59798,2.57817 0.24954,1.23966 0.85961,1.9393 2.55992,2.93575 2.20178,1.29032 2.79496,2.3148 0.68713,1.18672 -0.59711,-0.31956 -1.21838,-0.44829 -1.38061,-0.28606 -0.16223,0.16223 1.22459,6.98671 3.08182,15.16551 5.47965,24.13105 11.19344,54.07813 12.04317,63.12055 l 0.30541,3.25 -2.32044,-5.25 c -3.50077,-7.92052 -11.98269,-29.21978 -15.23215,-38.25 -3.78843,-10.52804 -10.23405,-31.27864 -13.97703,-44.99671 -1.65024,-6.0482 -3.23616,-11.07529 -3.52426,-11.17132 -0.2881,-0.096 -8.62482,-6.12707 -18.52604,-13.4023 -21.79857,-16.01717 -46.94565,-36.32624 -61.42669,-49.6089 -5.88875,-5.40142 -11.03889,-10.01827 -11.44475,-10.25965 -1.12908,-0.67151 -0.52077,4.39346 0.68808,5.72922 0.58366,0.64494 0.88453,1.62474 0.80451,2.61994 -0.0703,0.87434 1.23535,9.12722 2.90145,18.33972 7.1104,39.31616 16.40027,97.96542 15.36451,97 -0.32082,-0.29904 -7.43237,-23.27252 -10.3627,-33.47615 -3.8209,-13.30469 -13.83476,-55.0114 -19.54625,-81.4081 l -5.6547,-26.13425 -23.3998,-24.86575 C 174.27364,252.68959 161.7569,239.84597 159.32856,237.82438 l -4.41516,-3.67562 1.10786,-4.57438 c 3.19925,-13.2098 6.17543,-20.58515 10.77735,-26.70759 20.08289,-26.7185 44.3271,-44.17693 69.02953,-49.70864 4.54523,-1.01783 6.47433,-1.15658 15.92186,-1.14518 11.9577,0.0144 15.68872,0.58482 25.65684,3.92237 8.7346,2.92453 19.3768,8.37833 26.31463,13.48541 8.11765,5.97557 28.67214,25.65243 45.45437,43.51357 41.73653,44.41972 86.03293,98.23748 168.57998,204.81568 43.88594,56.66203 59.16477,75.48878 63.91271,78.75396 l 1.66853,1.14746 -1.50169,0.32983 c -1.93843,0.42575 -4.94185,-0.39584 -9.42959,-2.57946 -2.1141,-1.02867 -3.86427,-1.59228 -4.25,-1.36864 -0.36068,0.20912 -5.83078,3.56853 -12.15578,7.46536 -31.96186,19.69167 -53.75986,30.30081 -72.38148,35.22824 -13.9233,3.68422 -51.65578,9.56252 -90.11852,14.03947 -14.31487,1.66621 -18.38205,1.96535 -25.75,1.89391 -4.8125,-0.0467 -9.7625,-0.15433 -11,-0.23925 z"
         id="path25"
         transform="scale(0.26458333)" />
    </g>
  </g>
</svg>
