<?xml version="1.0" encoding="UTF-8" standalone="no"?>
<svg
   viewBox="560.59998 12.000013 500 500"
   width="500"
   height="500"
   version="1.1"
   id="svg3"
   sodipodi:docname="rosiymore.svg"
   inkscape:version="1.4.2 (f4327f4, 2025-05-13)"
   xmlns:inkscape="http://www.inkscape.org/namespaces/inkscape"
   xmlns:sodipodi="http://sodipodi.sourceforge.net/DTD/sodipodi-0.dtd"
   xmlns="http://www.w3.org/2000/svg"
   xmlns:svg="http://www.w3.org/2000/svg">
  <defs
     id="defs3" />
  <sodipodi:namedview
     id="namedview3"
     pagecolor="#505050"
     bordercolor="#eeeeee"
     borderopacity="1"
     inkscape:showpageshadow="0"
     inkscape:pageopacity="0"
     inkscape:pagecheckerboard="0"
     inkscape:deskcolor="#505050"
     inkscape:zoom="0.70710678"
     inkscape:cx="220.61731"
     inkscape:cy="19.091883"
     inkscape:window-width="1920"
     inkscape:window-height="1009"
     inkscape:window-x="-8"
     inkscape:window-y="-8"
     inkscape:window-maximized="1"
     inkscape:current-layer="g3" />
  <g
     id="g3"
     transform="matrix(6.9541063,0,0,6.06204,-3308.6942,-62.892933)">
    <g
       id="g1"
       style="fill:#000000">
      <path
         class="st17"
         d="m 581.8,89.6 c 0.1,0 0.2,0.1 0.3,0.1 1.9,0.7 4.1,1.6 4.8,1.9 1.2,0.5 4.8,1.1 5.7,0.8 0.7,-0.1 0.7,-0.3 0.7,-0.4 0.1,0.1 0.4,0.5 1,0.4 0.6,-0.1 3.4,-0.6 4.6,-0.4 1.3,0.2 1.8,0.2 2.8,0.1 1,-0.2 1.9,-0.6 3.4,-0.8 1.5,-0.2 3.2,-0.3 5.5,-0.9 2.2,-0.6 2.4,0 4.3,-0.8 0.8,-0.3 1,-0.4 1.1,-0.4 0,0 0,-0.1 0.3,-0.3 0.8,-0.7 2.5,-0.9 3.8,-1.2 1.3,-0.3 1.2,-0.3 1.5,-1.1 0.4,-0.8 0.9,-1.3 2.1,-1.8 0.5,-0.1 0.5,0 0,-1.3 -0.5,-1.3 -3.2,-10.3 -4.9,-13.8 -1.7,-3.4 -2.6,-7 -3.7,-8.7 -1.1,-1.8 -2,-3.8 -2,-4.1 0,-0.1 -0.1,-0.4 -0.2,-0.8 0.1,0 0.1,0 0.2,0 1.8,-0.1 0.4,-1.9 1,-2 1.4,-0.3 1.5,-1.1 1.1,-2 -0.1,-0.2 0,-0.4 0.5,-0.4 0,0 1.6,0.1 0.7,-1.8 -0.1,-0.2 -0.2,-0.5 -0.7,-0.6 -0.5,-0.1 0.2,-0.8 -0.1,-1.3 -0.2,-0.3 -0.7,-0.6 -1.6,-0.2 0,0 0.1,-1.1 -0.7,-1.4 -0.4,-0.2 -0.8,0.1 -1,0 -0.1,-0.1 -0.3,-1.1 -1.7,-0.5 -0.7,0.2 -0.5,0.4 -0.6,0.6 0,0.2 -0.1,-0.1 -0.4,-0.1 -0.1,-0.3 -0.2,-0.5 -0.3,-0.7 0,0 -0.5,-2.4 -1.2,-3.5 0,0 0.3,-1.5 0.2,-3.4 0,0 0.7,-2.1 0.7,-3.7 l 0.4,-0.1 c 0,0 0.5,-2.3 -0.7,-3.6 -1.2,-1.3 -1.7,-0.7 -2.5,-1 -0.8,-0.3 -0.9,-0.6 -0.9,-0.6 v -2.2 c 0,0 3.6,-0.9 2.8,-5.9 -0.8,-5.1 -5.2,-3 -5.8,-3 -0.6,0 -2.2,0.5 -1.9,2.5 0,0 -0.8,0.8 -0.6,2.3 0.1,0.5 0.1,0.2 0,0.8 -0.1,0.5 -0.3,0.6 0,1.4 0.3,0.8 0.4,1.9 1.1,2.3 0.2,0.1 0.3,0.2 0.4,0.2 0,0.3 -0.2,0.8 -1.7,1.2 -2,0.5 -2.5,0.9 -3.2,1.3 -0.7,0.4 -1.1,2.1 -1.1,3.3 0,1.1 0.3,5 0,7.8 -0.7,2.1 -1.1,4.2 -1.1,4.7 -0.2,1 -0.3,3.8 -0.6,4.5 -0.2,0.8 -0.3,1.3 -0.4,1.5 -0.1,0.2 -0.4,0.9 -0.5,1 -0.1,0.1 -2.1,1.1 -2.1,1.1 l -1.2,0.5 c 0,0 -0.3,0.5 -0.8,0.7 0,0 0,0.2 0.4,0.2 l -0.5,0.9 c 0,0 0.2,0.2 0.4,0 0.2,-0.2 0,0.9 0,0.9 0,0 0.2,0.1 0.4,-0.3 0.2,-0.5 0.1,-0.8 0.1,-0.8 0,0 0.4,-0.7 0.4,-0.8 0,-0.1 1.1,-0.4 1.6,-0.4 0.5,-0.1 0.5,0.1 0.5,0.1 0,0 -0.4,0.3 -0.6,0.5 -0.2,0.3 -0.4,0.2 -0.5,0.9 l 0.1,0.1 c 0,0 0.3,-0.2 0.6,-0.5 0.3,-0.3 0.7,-0.4 0.9,-0.6 0.2,-0.2 1.4,-0.4 1.6,-1.4 0.2,-1 0.4,-1 0.4,-1.5 0.1,-0.5 1.4,-3 1.7,-4.4 0.3,-1.4 1.2,-3 1.4,-4.3 0.1,-1.3 0.8,-3.9 0.8,-4.8 0,0 1.2,2.2 1.3,3.3 0.1,1.2 0,2.1 -0.6,3.3 -0.6,1.2 -0.9,2.8 -1.2,3.6 -0.3,0.9 -0.8,2.3 -1.2,3.7 -0.4,1.3 -1.1,3.7 -1.9,5 -0.8,1.3 -3.1,6.3 -3.6,8.2 -1.9,8.2 -4.5,13.2 -6.7,16.4 -1.7,2 -6.8,1.8 -7.5,3.2 -0.3,1.6 1,2 4.9,3.3 z m 27.9,-42.1 c 0,0 -0.9,0.4 -0.6,1.1 0,0 -0.7,-0.8 0.6,-1.1 z m 0.1,0.1 c 0,0 -0.5,0.2 -0.5,0.8 0.1,0 -0.3,-0.6 0.5,-0.8 z m 0.5,0.2 c 0,-0.1 -0.1,-0.1 -0.1,-0.2 -0.1,1.4 -1,0.8 -1,0.8 0.7,-0.1 0.9,-0.6 1,-0.9 -0.4,-0.4 -0.9,-0.1 -0.9,-0.1 0.8,-0.6 1,0.4 1,0.4 z m -0.6,2.6 c -0.4,-1.3 1.2,-0.8 1.2,-0.8 -1.3,-0.2 -1.2,0.8 -1.2,0.8 z m 1.2,1 c -1.5,-0.8 -0.5,-1.5 -0.5,-1.5 -0.3,0.8 0.3,1.3 0.5,1.5 0.7,-0.3 0.6,-1 0.6,-1 0.4,1.3 -0.8,1.1 -0.8,1.1 0,0 0.1,-0.1 0.2,-0.1 z m 0.9,2.9 c -0.4,-1.3 1.2,-0.9 1.2,-0.9 -1.2,-0.1 -1.2,0.9 -1.2,0.9 z m 0.7,-0.7 c 0,0 1.2,-0.4 1,1.2 0,0 -0.1,-1.2 -1,-1.2 z m 0.7,1.4 c 0,0 0,-0.7 -0.7,-0.9 0,-0.1 0.9,-0.2 0.7,0.9 z m -0.4,-2.9 c -0.4,-1.5 1.3,-1 1.3,-1 -1.4,-0.1 -1.3,1 -1.3,1 z m 0.7,-0.8 c 0,0 1.3,-0.4 1.1,1.4 0,0 -0.1,-1.4 -1.1,-1.4 z m 0.8,1.5 c 0,0 0,-0.8 -0.8,-1 0.1,0 1,-0.1 0.8,1 z m 0.8,-3.8 c 0,0 -0.6,1 -1.2,0.1 0,0 0.5,0.4 1.2,-0.1 z m -1.2,-0.2 c 0.5,0.5 1.1,0.1 1.1,0.1 -0.8,0.7 -1.1,-0.1 -1.1,-0.1 z M 613,48.5 c -1.1,-0.5 -0.5,-1.2 -0.5,-1.2 -0.2,0.8 0.5,1.2 0.5,1.2 z m -0.1,0.1 c 0,0 -1.3,0 -0.8,-1.2 0,0 0,0.7 0.8,1.2 z m 0.5,0.7 c 0,0 -1.1,-0.5 -1.6,0.3 0,0 0.2,-1.3 1.6,-0.3 z M 612,47.6 c 0,0 -0.7,1.2 -1.5,0.1 0,0 0.6,0.5 1.5,-0.1 z m -1.5,-0.2 c 0.6,0.6 1.4,0.1 1.4,0.1 -1,0.8 -1.4,-0.1 -1.4,-0.1 z m -0.2,2.3 c 0,0 1.2,-0.4 1,1.2 0,0 0,-1.2 -1,-1.2 z m 0.8,1.3 c 0,0 0,-0.7 -0.7,-0.9 0,0 0.9,-0.1 0.7,0.9 z m -0.4,-1.9 c 0,0 0.5,0.3 1.1,-0.1 0,0.1 -0.5,1 -1.1,0.1 z m 1.4,1.4 c -1.4,-0.3 -0.2,-1.5 -0.2,-1.5 -0.8,1.1 0.2,1.5 0.2,1.5 z m -0.3,-0.4 c 0.8,0.8 1.8,0.1 1.8,0.1 -1.3,1 -1.8,-0.1 -1.8,-0.1 z m -1,-1.5 c 0,0 0.2,-0.7 0.9,-0.2 0,0 -0.7,-0.3 -0.9,0.2 z m 1,0.4 c -0.7,0.6 -1,-0.1 -1,-0.1 0.4,0.4 1,0.1 1,0.1 z m -0.1,-0.4 c 0,0 -0.4,-0.2 -0.7,0.1 0,0 0.2,-0.5 0.7,-0.1 z m -0.2,-0.4 c 0.8,0.2 0.3,0.7 0.3,0.7 0,-0.1 0,-0.1 0,-0.1 -0.8,0.5 -0.9,-0.2 -0.9,-0.2 0.4,0.4 0.8,0.2 0.9,0.2 0.1,-0.4 -0.3,-0.6 -0.3,-0.6 z m -0.7,0.1 c -0.4,0.6 0.1,0.8 0.1,0.8 -0.8,-0.1 -0.1,-0.8 -0.1,-0.8 z m 2.6,1.3 c 0,0 -0.7,-0.4 -1.2,0.2 0,-0.1 0.3,-0.9 1.2,-0.2 z M 613,48.9 c 1.5,0.3 0.6,1.3 0.6,1.3 0,-0.1 0,-0.2 0.1,-0.3 -1.5,1 -1.6,-0.3 -1.6,-0.3 0.6,0.6 1.4,0.4 1.6,0.3 0,-0.8 -0.7,-1 -0.7,-1 z m -1.3,1.6 c 0,0 0.8,0.6 1.9,-0.1 0,0 -0.9,1.5 -1.9,0.1 z m 0.5,2.2 c 0,0 -0.3,-0.8 -1.3,-0.8 -0.1,0 1.2,-0.7 1.3,0.8 z m -0.3,0.2 C 611.7,52 610.8,52 610.8,52 c 1.3,-0.1 1.1,0.9 1.1,0.9 z m -1.3,-1.4 c -1.4,-0.6 -0.7,-1.6 -0.7,-1.6 -0.3,1.1 0.7,1.6 0.7,1.6 z m -1,-2.4 c 0,0 0.8,-0.2 0.9,-1.2 -0.1,0 0.4,1.3 -0.9,1.2 z m -0.3,-0.3 c 0.9,-0.1 1,-1 1,-1 0,1.3 -1,1 -1,1 z m 1.4,-2.2 c -0.6,0.8 0.2,1.2 0.2,1.2 -1.2,-0.3 -0.2,-1.2 -0.2,-1.2 z m 1.1,0.1 c 0,0 -0.9,-0.4 -1.3,0.2 0,0.1 0.3,-0.9 1.3,-0.2 z m 0,0.3 c 0,0 -0.5,-0.3 -0.9,0.1 0,0 0.2,-0.6 0.9,-0.1 z m 0.2,0.5 c 0,-0.1 0,-0.1 0,-0.2 -1.1,0.8 -1.3,-0.2 -1.3,-0.2 0.5,0.5 1.1,0.3 1.3,0.2 0.1,-0.6 -0.5,-0.8 -0.5,-0.8 1.1,0.2 0.5,1 0.5,1 z m 1.1,-0.5 c -0.9,-0.1 -0.9,0.6 -0.9,0.6 -0.2,-0.9 0.9,-0.6 0.9,-0.6 z m 0.4,1 c 0,0 -0.1,-0.9 -0.8,-0.9 0.1,0 0.9,-0.2 0.8,0.9 z m -0.2,0.1 c 0,0 0,-0.5 -0.5,-0.7 0,0.1 0.7,0 0.5,0.7 z m -0.3,0.4 c 0.1,0 0.1,0 0.2,-0.1 -1.1,-0.6 -0.4,-1.1 -0.4,-1.1 -0.2,0.6 0.2,1 0.4,1.1 0.5,-0.2 0.4,-0.7 0.4,-0.7 0.3,1 -0.6,0.8 -0.6,0.8 z m 1,-0.3 c -0.5,0.7 0.1,0.9 0.1,0.9 C 613.2,49 614,48.2 614,48.2 Z m 0.9,0.1 c 0,0 -0.7,-0.3 -1,0.2 0,0 0.2,-0.8 1,-0.2 z m 0,0.2 c 0,0 -0.4,-0.2 -0.7,0.1 0,0 0.2,-0.5 0.7,-0.1 z m 0.2,0.4 c 0,-0.1 0,-0.1 0,-0.2 -0.9,0.6 -1,-0.2 -1,-0.2 0.4,0.4 0.9,0.3 1,0.2 0,-0.5 -0.4,-0.6 -0.4,-0.6 0.9,0.2 0.4,0.8 0.4,0.8 z m 0.2,0.8 c -1.1,-0.2 -1.1,0.8 -1.1,0.8 -0.3,-1.3 1.1,-0.8 1.1,-0.8 z m 0.5,1.2 c 0,0 -0.1,-1.1 -0.9,-1.1 -0.1,0 1,-0.3 0.9,1.1 z m -0.3,0.1 c 0,0 0,-0.7 -0.6,-0.8 0,0 0.8,-0.2 0.6,0.8 z m -0.4,0.4 c 0.1,0 0.1,0 0.2,-0.1 -1.4,-0.7 -0.5,-1.4 -0.5,-1.4 -0.2,0.8 0.3,1.2 0.5,1.4 0.6,-0.3 0.5,-0.9 0.5,-0.9 0.5,1.3 -0.7,1 -0.7,1 z m 0,0 c -1.3,-0.6 -0.7,-1.4 -0.7,-1.4 -0.2,0.9 0.7,1.4 0.7,1.4 z m -0.1,0.1 c 0,0 -1.6,0 -0.9,-1.4 0,0 -0.1,0.9 0.9,1.4 z m -1.2,1.8 c 0.1,0 0.2,-0.1 0.3,-0.1 -1.7,-0.9 -0.6,-1.7 -0.6,-1.7 -0.3,0.9 0.3,1.5 0.6,1.7 0.8,-0.3 0.6,-1.1 0.6,-1.1 0.5,1.5 -0.9,1.2 -0.9,1.2 z m 0,0 c -1.6,-0.7 -0.8,-1.8 -0.8,-1.8 -0.3,1.3 0.8,1.8 0.8,1.8 z m -0.1,0.2 c 0,0 -1.9,0 -1.1,-1.7 0,-0.1 -0.1,1 1.1,1.7 z m -0.9,1.9 c 0.1,0 0.2,0 0.2,-0.1 -1.5,-0.8 -0.5,-1.5 -0.5,-1.5 -0.2,0.8 0.3,1.3 0.5,1.5 0.7,-0.3 0.6,-1 0.6,-1 0.4,1.4 -0.8,1.1 -0.8,1.1 z m 0,0 c -1.4,-0.6 -0.7,-1.6 -0.7,-1.6 -0.3,1.1 0.7,1.6 0.7,1.6 z m -1.2,-1.5 c 0,0 -0.1,1 1,1.6 0.1,0 -1.7,0 -1,-1.6 z m -0.3,-0.4 c 1,-0.3 0.5,-1.1 0.5,-1.1 0.9,0.9 -0.5,1.1 -0.5,1.1 z m -0.8,-0.8 c 0,0 0.5,0.9 1.2,0.5 0,0 -0.8,0.7 -1.2,-0.5 z m 0.1,-0.2 c 0,0 0.3,0.5 0.9,0.4 0,0 -0.6,0.4 -0.9,-0.4 z m 0.2,-0.5 c -0.1,0 -0.1,0.1 -0.2,0.1 1.4,0 0.9,0.9 0.9,0.9 -0.1,-0.7 -0.7,-0.9 -0.9,-0.9 -0.4,0.5 -0.1,1 -0.1,1 -0.8,-0.8 0.3,-1.1 0.3,-1.1 z m -1.3,-2 c 0,0 -0.1,1 1,1.6 0,0 -1.7,0 -1,-1.6 z m -0.7,-1.7 c 0.2,1 1,0.6 1,0.6 -0.9,0.7 -1,-0.6 -1,-0.6 z M 604.7,26 c 0,-0.1 0,-0.1 0,0 0,-0.1 0,-0.1 0,0 -0.1,-0.1 -0.1,-0.1 -0.1,-0.2 0,-0.1 0.1,-0.1 0.1,-0.2 v -0.1 c -0.1,0 -0.2,-0.1 -0.2,-0.2 0,-0.1 0.1,-0.2 0.2,-0.2 v -0.3 c 0,0 0,0 0,-0.1 0,0 0,-0.1 0.1,-0.1 0,0 0.1,0 0.1,0.1 0,0 0,0 0,0 V 25 c 0.1,0 0.2,0.1 0.2,0.2 0,0.1 -0.1,0.2 -0.2,0.2 v 0.1 c 0.1,0 0.1,0.1 0.1,0.2 -0.1,0.1 -0.2,0.2 -0.3,0.3 0.1,-0.1 0.1,-0.1 0,0 0.1,-0.1 0.1,0 0,0 0.2,0.3 0.5,1.2 0,1.5 0,0 0,0 0,0 0,0 -0.4,-0.5 0,-1.5 z"
         style="opacity:1;fill:#000000"
         id="path1" />
    </g>
    <g
       id="g2"
       style="fill:#000000">
      <path
         class="st4"
         d="m 562.8,43.2 c 0.6,0.6 4,0.3 3.9,0.7 0,0.4 -0.1,3.4 0,4.5 0.1,1.1 -0.2,6.6 -0.1,7.6 0,1 2.4,1 2.4,1 0,0 1,10.5 1.3,11.6 0.3,1.1 0.4,8.8 0.5,11.1 0.1,2.3 1.4,5 1.4,5 -0.5,0.8 -0.5,2 -0.5,2 0,0 -0.5,0.3 -0.8,1.8 -0.3,1.5 1.8,2.1 2.6,3.3 0.8,1.2 1.9,2.4 4.1,2.5 0.5,0 0.8,-0.1 0.9,-0.2 0,0 0,0 0,-0.1 0.1,-0.5 -1.1,-1.7 -1.7,-2.8 -0.9,-1.5 -0.4,-2.5 -0.4,-2.5 1.5,0.3 2.2,0.1 2,-0.9 -0.2,-1 -1.1,-1.7 -1.1,-1.7 0.7,0 2.1,-4 2.8,-5.5 0.7,-1.5 1.6,-5.2 1.9,-7 0.3,-1.8 0.7,-4.1 1.3,-5.6 0.6,-1.5 0.1,-4.1 0.3,-6.3 0.2,-2.1 -0.1,-5.1 -0.1,-5.1 h 0.3 c 0.7,-0.1 0.6,-0.4 0.6,-0.4 -0.2,-1 -0.5,-4.6 -0.7,-7.1 -0.2,-2.5 -1.1,-6.5 -1.1,-6.5 0.6,0.8 2.2,10.7 2.6,11 0.3,0.1 0.7,0.4 1.1,0.4 0.2,0 0.5,0.2 0.8,0.5 0.8,0.8 2.7,1 2.3,0.1 0,0 0.4,0 0.8,0.2 0.3,0.3 1.1,0.6 1.3,0.7 0.2,0 0.3,-0.2 0.3,-0.5 0,-0.2 0,-0.3 0,-0.5 0,-0.2 -0.1,-0.6 -0.7,-1.1 -0.4,-0.4 -0.7,-0.6 -1.1,-0.9 -0.9,-0.6 -1.7,-0.6 -2.6,-0.7 0,-0.2 0,-0.4 0,-0.5 -0.3,-1.8 -1.5,-14.3 -1.7,-15.3 -0.3,-1 -0.4,-3.4 -0.3,-4.4 0.1,-1 -0.4,-1.1 -0.5,-3.2 -0.1,-2.1 -1.5,-2.7 -2.8,-3.1 -1.3,-0.4 -3.3,-0.7 -3.8,-1.3 -0.5,-0.6 -1.1,-1 -1.1,-1 0,-1 0.4,-1.1 0.4,-1.1 0.4,-0.2 0.4,-1.1 0.6,-1.8 0.1,-0.7 0,-2.1 -0.1,-2.8 -0.1,-0.8 -0.1,-1.7 -0.1,-1.7 -0.3,-1.9 -1.3,-3 -3.7,-3.3 -2.4,-0.3 -3.8,1.3 -4.2,2.5 -0.4,1.2 -0.2,2.9 0.4,4.1 0.5,1.1 1,2.3 1.2,2.5 0.2,0.2 0.4,0.6 0.4,0.6 -0.2,0.1 0.1,0.7 -0.2,0.7 0,0 0,0 0,0 -0.3,0 -0.5,0.3 -0.5,0.3 -0.7,0.8 -0.8,0.5 -1.6,1.4 -0.9,0.9 -3.5,1.6 -5,2.2 -1.5,0.6 -1.2,2.6 -1.2,2.6 -0.1,1.9 -0.7,2.1 -0.8,3.2 -0.1,1.1 -0.5,4 -1.4,6.6 -0.8,2.6 0.8,3.6 1.4,4.2 z M 576,61.7 c 0,0 0.4,0.6 0.3,1.3 -0.2,0.8 0.2,1.5 0.2,2.3 0,0.8 -0.1,1.4 0,3.1 0.1,1.7 -0.4,0.3 -0.5,-2.6 -0.1,-2.8 -0.2,-3.3 0,-4.1 z"
         style="clip-rule:evenodd;opacity:1;fill:#000000;fill-rule:evenodd"
         id="path2" />
    </g>
    <path
       style="fill:#ffffff;fill-rule:evenodd;stroke-width:1.06724"
       d="m 335.50539,91.145479 c -0.43062,-0.734796 -0.81789,-2.315898 -0.81789,-3.339166 0,-1.133673 0.31461,-2.719527 0.77794,-3.92141 0.44692,-1.159289 0.44898,-1.15846 1.21967,0.490097 0.70284,1.503417 0.9271,2.433885 0.93395,3.875 0.005,1.124104 -0.0295,1.322133 -0.34576,1.966199 -0.3062,0.623566 -1.08924,1.471301 -1.35901,1.471301 -0.0502,0 -0.23419,-0.24391 -0.4089,-0.542021 z"
       id="path80"
       transform="matrix(0.14379993,0,0,0.16496097,556.40423,12.354413)" />
    <path
       style="fill:#ffffff;fill-rule:evenodd;stroke-width:1.06724"
       d="m 335.44657,82.233142 c -0.35469,-0.45092 -0.32562,-0.749343 0.12275,-1.260011 0.30322,-0.345347 0.37399,-0.528877 0.34375,-0.891502 -0.0302,-0.361736 -0.0956,-0.464806 -0.31477,-0.495977 -0.41022,-0.05833 -1.0358,-0.69638 -1.0358,-1.056446 0,-0.424483 0.42219,-0.922387 0.94128,-1.110095 l 0.43372,-0.156833 v -1.324889 c 0,-1.402257 0.0793,-1.624889 0.57857,-1.624889 0.51994,0 0.67143,0.310064 0.67143,1.374234 v 0.981378 l 0.43554,0.143743 c 0.51326,0.169389 0.93946,0.66193 0.93946,1.085684 0,0.363492 -0.48872,0.880458 -1.00126,1.059131 -0.47574,0.165845 -0.53217,0.727043 -0.0925,0.919939 0.20413,0.08956 0.29164,0.247811 0.31915,0.577126 0.0357,0.427113 -0.0188,0.50229 -0.92807,1.28125 -0.53128,0.455133 -1.00832,0.827515 -1.06008,0.827515 -0.0518,0 -0.21069,-0.148211 -0.35318,-0.329358 z"
       id="path81"
       transform="matrix(0.14379993,0,0,0.16496097,556.40423,12.354413)" />
  </g>
  <path
     style="fill:#ff0000;fill-rule:evenodd;stroke-width:0.435361"
     d="m 390.08359,261.47344 c -0.11219,-0.0101 -0.55357,-0.0761 -0.98086,-0.14658 -3.28932,-0.54278 -5.4566,-1.94502 -6.12246,-3.96126 -0.44209,-1.33865 -0.26995,-2.85051 0.54136,-4.75461 l 0.23899,-0.5609 0.057,0.66288 c 0.15548,1.80791 0.75608,3.38316 1.85504,4.86532 1.04913,1.41496 2.41651,2.55318 4.33443,3.60801 0.60545,0.333 0.60595,0.33488 0.0765,0.28714 z"
     id="path3"
     transform="translate(560.59998,12.000013)" />
  <path
     style="fill:#ff0000;fill-rule:evenodd;stroke-width:0.435361"
     d="m 393.11757,261.04726 c -0.58526,-0.0555 -0.71523,-0.0852 -0.40793,-0.0936 0.49175,-0.0133 0.86531,-0.21767 0.86813,-0.47498 0.001,-0.0982 0.0687,-0.14477 0.42068,-0.28955 0.23067,-0.0949 0.65111,-0.30904 0.93431,-0.47593 1.73469,-1.02228 2.70767,-2.57708 2.86522,-4.57858 l 0.0381,-0.48402 0.13801,0.54136 c 0.29806,1.16925 0.3759,2.28579 0.21568,3.09393 -0.22502,1.13501 -0.98374,2.01741 -2.09587,2.4375 -0.75052,0.28351 -1.98461,0.41777 -2.97633,0.32383 z"
     id="path4"
     transform="translate(560.59998,12.000013)" />
  <path
     style="fill:#ff0000;fill-rule:evenodd;stroke-width:0.435361"
     d="m 392.58216,259.81146 c -1.3679,-0.71127 -2.43496,-1.43728 -3.2196,-2.19057 -1.44802,-1.39015 -1.8473,-2.79851 -1.19235,-4.20574 0.18307,-0.39334 0.39582,-0.71068 0.75126,-1.12057 0.28228,-0.32552 1.02647,-0.95804 1.07274,-0.91177 0.0143,0.0143 -7.7e-4,0.13221 -0.0335,0.26205 -0.20601,0.81814 -0.26024,1.99491 -0.13147,2.85281 0.26709,1.77928 1.10483,3.3008 2.70228,4.90791 0.39724,0.39965 0.70881,0.72605 0.69237,0.72534 -0.0164,-7.1e-4 -0.30523,-0.14447 -0.64177,-0.31946 z"
     id="path5"
     transform="translate(560.59998,12.000013)" />
  <path
     style="fill:#ff0000;fill-rule:evenodd;stroke-width:0.435361"
     d="m 390.54251,260.2024 c -2.33947,-1.17778 -3.67817,-2.48506 -4.19699,-4.0985 -0.33715,-1.04849 -0.26969,-2.21619 0.1952,-3.37868 0.18878,-0.47207 0.59811,-1.2403 0.63904,-1.19937 0.0105,0.0105 -0.0145,0.1442 -0.0554,0.29715 -0.11176,0.41725 -0.22775,1.37316 -0.22741,1.87417 0.002,2.49053 1.39569,4.80108 3.91601,6.49074 0.28896,0.19373 0.49548,0.35133 0.45892,0.35022 -0.0366,-0.001 -0.36476,-0.15219 -0.72935,-0.33573 z"
     id="path6"
     transform="translate(560.59998,12.000013)" />
  <path
     style="fill:#ff0000;fill-rule:evenodd;stroke-width:0.435361"
     d="m 385.06382,253.65554 c -0.36485,-1.35214 -0.33677,-2.26044 0.0971,-3.14072 0.2394,-0.48575 0.71376,-0.97057 1.23441,-1.26164 0.41556,-0.23232 1.2616,-0.51146 1.87808,-0.61965 0.99601,-0.1748 2.93923,-0.1549 4.28327,0.0439 l 0.43343,0.0641 -0.96883,0.0317 c -1.13117,0.037 -1.90116,0.15636 -2.72412,0.42241 -2.1491,0.69475 -3.56995,2.21471 -3.9796,4.25718 -0.059,0.29426 -0.11399,0.55757 -0.12217,0.58513 -0.008,0.0276 -0.0674,-0.14448 -0.13155,-0.38233 z"
     id="path7"
     transform="translate(560.59998,12.000013)" />
  <path
     style="fill:#ff0000;fill-rule:evenodd;stroke-width:0.435361"
     d="m 394.94007,258.01607 c -0.0521,-0.47359 -0.27209,-1.17248 -0.54805,-1.74095 -0.70154,-1.44512 -1.90583,-2.45659 -3.60144,-3.02479 -0.32068,-0.10746 -0.58734,-0.21496 -0.5926,-0.23889 -0.0142,-0.0647 0.22273,-0.16503 0.52491,-0.22234 0.82362,-0.1562 1.93241,0.0542 2.71201,0.51468 1.23209,0.72772 1.84382,2.19851 1.66992,4.01507 -0.0313,0.32738 -0.0737,0.68702 -0.094,0.7992 l -0.0371,0.20397 z"
     id="path8"
     transform="translate(560.59998,12.000013)" />
  <path
     style="fill:#ff0000;fill-rule:evenodd;stroke-width:0.435361"
     d="m 397.02464,256.86332 c -0.0119,-0.0391 -0.0842,-0.34639 -0.16073,-0.68294 -0.18357,-0.80773 -0.42488,-1.49616 -0.78659,-2.24401 -1.1404,-2.35781 -2.99472,-3.72026 -5.29781,-3.89255 l -0.49196,-0.0368 0.33144,-0.0641 c 0.70309,-0.13591 1.56735,-0.18391 2.18825,-0.12155 0.80077,0.0804 1.30678,0.2183 1.93973,0.52853 0.46492,0.22788 0.59219,0.32069 0.99525,0.72576 0.26231,0.26363 0.54487,0.60779 0.65343,0.79592 0.61531,1.06625 0.87233,2.50482 0.75043,4.20025 -0.0579,0.80502 -0.0778,0.93466 -0.12144,0.79145 z"
     id="path9"
     transform="translate(560.59998,12.000013)" />
  <path
     style="fill:#ff0000;fill-rule:evenodd;stroke-width:0.435361"
     d="m 396.89093,249.29206 c -3.70297,-0.44233 -6.23224,-1.82358 -7.08347,-3.86835 -0.26389,-0.63388 -0.32923,-0.99287 -0.32994,-1.81269 -4.4e-4,-0.50378 0.0282,-0.8856 0.0898,-1.19829 0.13057,-0.66261 0.50173,-1.73454 0.86452,-2.49679 l 0.31464,-0.66109 0.0349,0.48697 c 0.0944,1.318 0.67731,3.00647 1.49087,4.31841 1.22338,1.97282 2.9252,3.55709 5.28088,4.91609 l 0.68766,0.39672 -0.38172,-0.005 c -0.20994,-0.003 -0.64559,-0.037 -0.96811,-0.0755 z"
     id="path10"
     transform="translate(560.59998,12.000013)" />
  <path
     style="fill:#ff0000;fill-rule:evenodd;stroke-width:0.435361"
     d="m 397.12039,247.29285 c -1.79312,-0.9298 -3.01706,-1.88921 -3.84573,-3.01457 -1.38838,-1.88545 -1.40401,-4.26196 -0.0422,-6.4182 0.11179,-0.17701 0.2135,-0.3116 0.22602,-0.29908 0.0125,0.0125 -2e-4,0.11112 -0.0282,0.21912 -0.2337,0.89987 -0.30122,2.57457 -0.14053,3.4853 0.43898,2.48795 1.83415,4.50632 4.20323,6.08072 0.24266,0.16126 0.40726,0.29258 0.36578,0.29182 -0.0415,-7.6e-4 -0.37372,-0.15606 -0.73831,-0.34511 z"
     id="path11"
     transform="translate(560.59998,12.000013)" />
  <path
     style="fill:#ff0000;fill-rule:evenodd;stroke-width:0.435361"
     d="m 399.84842,246.89425 c -1.50407,-0.79954 -2.60267,-1.56055 -3.4857,-2.41459 -0.88795,-0.8588 -1.39872,-1.66273 -1.62068,-2.55089 -0.21583,-0.86363 -0.043,-1.804 0.49957,-2.71863 0.17371,-0.29282 0.4287,-0.59991 0.85895,-1.03447 0.63125,-0.63758 0.88138,-0.83401 0.82913,-0.65115 -0.0149,0.0523 -0.0846,0.29007 -0.15484,0.52845 -0.20729,0.70365 -0.29955,1.37349 -0.29823,2.16541 0.002,1.33744 0.26436,2.35983 0.91238,3.55855 0.62256,1.15161 1.72589,2.38341 2.94431,3.28714 0.25913,0.1922 0.0745,0.12753 -0.48489,-0.16982 z"
     id="path12"
     transform="translate(560.59998,12.000013)" />
  <path
     style="fill:#ff0000;fill-rule:evenodd;stroke-width:0.435361"
     d="m 392.00625,240.14361 c -0.15431,-0.66675 -0.21233,-1.11799 -0.21306,-1.65721 -0.003,-2.1708 1.2142,-3.47842 3.65676,-3.92855 0.60878,-0.11219 2.28047,-0.15473 3.10652,-0.079 0.74271,0.068 1.94351,0.24963 2.05382,0.31058 0.0404,0.0223 -0.3328,0.0423 -0.82936,0.0444 -3.21286,0.0136 -5.54703,0.99266 -6.75323,2.83256 -0.45579,0.69525 -0.77473,1.6336 -0.86799,2.55373 l -0.0414,0.40793 z"
     id="path13"
     transform="translate(560.59998,12.000013)" />
  <path
     style="fill:#ff0000;fill-rule:evenodd;stroke-width:0.435361"
     d="m 404.68076,244.12094 c -0.0174,-0.0421 -0.0467,-0.19122 -0.0652,-0.33145 -0.0531,-0.40271 -0.40609,-1.73521 -0.60781,-2.29461 -0.40395,-1.12026 -1.05441,-2.27124 -1.74911,-3.09503 -1.00975,-1.19738 -2.48253,-2.02127 -3.99655,-2.2357 -0.97164,-0.13762 -0.94434,-0.12393 -0.39014,-0.19572 0.60836,-0.0788 1.77526,-0.0826 2.25718,-0.007 1.28146,0.20014 2.17654,0.62819 2.9881,1.42899 0.8918,0.87999 1.39501,1.99856 1.6012,3.55926 0.11044,0.83599 0.0793,3.45538 -0.0377,3.1716 z"
     id="path14"
     transform="translate(560.59998,12.000013)" />
  <path
     style="fill:#ff0000;fill-rule:evenodd;stroke-width:0.435361"
     d="m 400.48581,248.32677 c -0.0561,-0.0106 -0.33144,-0.036 -0.61189,-0.0563 -0.28045,-0.0203 -0.46402,-0.047 -0.40793,-0.0593 0.0561,-0.0123 0.37733,-0.13268 0.71388,-0.26753 0.33654,-0.13486 0.73874,-0.26826 0.89377,-0.29644 0.86947,-0.15809 2.18812,-0.87741 2.94208,-1.60489 1.04087,-1.00433 1.53833,-2.24308 1.54732,-3.85302 0.004,-0.62851 0.005,-0.63872 0.0793,-0.4395 0.0416,0.11218 0.14193,0.47321 0.22286,0.80228 0.79815,3.24564 -0.3776,5.18352 -3.44175,5.67268 -0.45159,0.0721 -1.73823,0.1398 -1.93767,0.10197 z"
     id="path15"
     transform="translate(560.59998,12.000013)" />
  <path
     style="fill:#ff0000;fill-rule:evenodd;stroke-width:0.435361"
     d="m 402.60607,244.78382 c -0.009,-0.26793 -0.18168,-0.99595 -0.33768,-1.42775 -0.5362,-1.48416 -1.56753,-2.6886 -2.94116,-3.43485 -0.51383,-0.27915 -0.82127,-0.40561 -1.51846,-0.6246 l -0.53541,-0.16817 0.38978,-0.002 c 0.92437,-0.006 1.93372,0.166 2.68764,0.45675 1.74838,0.67424 2.60526,2.24415 2.40519,4.40656 -0.0313,0.33876 -0.0765,0.69624 -0.10028,0.79439 l -0.0433,0.17847 z"
     id="path16"
     transform="translate(560.59998,12.000013)" />
  <path
     style="fill:#ff0000;fill-rule:evenodd;stroke-width:0.435361"
     d="m 406.83423,237.25237 c -2.50705,-0.19575 -4.51579,-0.89796 -5.65235,-1.97594 l -0.37897,-0.35943 0.22389,-0.0262 0.22388,-0.0262 -0.30303,-0.0774 c -0.30085,-0.0769 -0.30441,-0.08 -0.49468,-0.43153 -0.21372,-0.39484 -0.37752,-0.95269 -0.42663,-1.45286 -0.0868,-0.88434 0.28827,-2.30474 0.93584,-3.54386 l 0.18652,-0.3569 0.0379,0.53537 c 0.14313,2.02215 0.96779,3.7805 2.48318,5.2947 0.80354,0.80291 1.69472,1.43496 2.93499,2.0816 0.40059,0.20885 0.65794,0.36875 0.5864,0.36435 -0.0701,-0.004 -0.23073,-0.0159 -0.35694,-0.0257 z"
     id="path17"
     transform="translate(560.59998,12.000013)" />
  <path
     style="fill:#ff0000;fill-rule:evenodd;stroke-width:0.435361"
     d="m 406.57928,235.93308 c -1.20987,-0.62842 -1.96296,-1.1591 -2.70254,-1.90442 -0.72125,-0.72684 -1.03226,-1.19153 -1.28862,-1.92537 -0.21612,-0.61865 -0.25307,-1.45439 -0.0938,-2.12231 0.11484,-0.48171 0.36556,-1.0725 0.59109,-1.39284 l 0.13941,-0.19803 -0.0328,0.17847 c -0.38784,2.10888 0.27357,4.11393 1.93059,5.85262 0.58245,0.61115 1.22326,1.16142 1.80127,1.54677 0.7268,0.48454 0.63824,0.47557 -0.34455,-0.0349 z"
     id="path18"
     transform="translate(560.59998,12.000013)" />
  <path
     style="fill:#ff0000;fill-rule:evenodd;stroke-width:0.435361"
     d="m 401.79603,230.59549 c -0.25713,-1.39653 -0.15425,-2.41633 0.32279,-3.19971 0.48258,-0.79249 1.42409,-1.31846 2.65276,-1.48197 0.66553,-0.0886 2.23782,-0.0354 3.00599,0.10156 1.27231,0.22691 1.28015,0.238 0.15298,0.21632 -1.20389,-0.0231 -1.92483,0.0737 -2.75354,0.36988 -1.70631,0.60986 -2.90945,2.08184 -3.1974,3.91185 -0.0347,0.22042 -0.077,0.40077 -0.094,0.40077 -0.017,0 -0.0573,-0.14342 -0.0896,-0.3187 z"
     id="path19"
     transform="translate(560.59998,12.000013)" />
  <path
     style="fill:#ff0000;fill-rule:evenodd;stroke-width:0.435361"
     d="m 408.31963,235.45307 c -2.16328,-1.11306 -3.45765,-2.25945 -3.9626,-3.50957 -0.50293,-1.24514 -0.11107,-2.54687 1.13612,-3.77403 0.26585,-0.26158 0.49191,-0.46706 0.50235,-0.45661 0.0104,0.0104 -0.0312,0.24741 -0.0927,0.52659 -0.0953,0.43323 -0.11135,0.66077 -0.10958,1.55293 0.002,0.96286 0.0125,1.08353 0.13434,1.52974 0.43798,1.60431 1.39957,2.94648 3.15025,4.39709 0.12621,0.10457 0.20652,0.19 0.17847,0.18985 -0.028,-1.5e-4 -0.44955,-0.20535 -0.93669,-0.45599 z"
     id="path20"
     transform="translate(560.59998,12.000013)" />
  <path
     style="fill:#ff0000;fill-rule:evenodd;stroke-width:0.435361"
     d="m 408.91213,236.79451 c -0.27208,-0.0246 -0.31777,-0.0905 -0.0938,-0.13523 0.0816,-0.0163 0.27091,-0.13318 0.42068,-0.25968 0.14977,-0.1265 0.51633,-0.35756 0.81458,-0.51346 0.68715,-0.35919 1.25836,-0.784 1.72259,-1.28109 0.39623,-0.42428 0.81252,-1.05786 0.95453,-1.45277 0.0493,-0.13719 0.10644,-0.24943 0.12691,-0.24943 0.0205,0 0.0651,0.17267 0.0991,0.38373 0.0341,0.21105 0.0759,0.3698 0.0929,0.35279 0.0171,-0.017 0.0425,-0.64288 0.0565,-1.39081 l 0.0255,-1.35987 0.19504,0.53541 c 0.28264,0.77592 0.43396,1.37803 0.50403,2.00557 0.0753,0.67407 -0.0112,1.30883 -0.24442,1.79383 -0.21361,0.44425 -0.71555,0.93224 -1.19402,1.16084 -0.69607,0.33255 -1.06679,0.40244 -2.21813,0.41816 -0.5609,0.008 -1.12882,0.004 -1.26203,-0.008 z"
     id="path21"
     transform="translate(560.59998,12.000013)" />
  <path
     style="fill:#ff0000;fill-rule:evenodd;stroke-width:0.435361"
     d="m 410.9011,233.51141 c -0.36925,-2.08401 -1.57967,-3.47809 -3.46058,-3.98567 l -0.42782,-0.11545 0.35694,-0.0397 c 0.7802,-0.0868 1.7455,0.0707 2.33612,0.38118 0.37518,0.19724 0.89312,0.69255 1.05406,1.00801 0.33484,0.65633 0.45352,1.41699 0.36035,2.30952 -0.10092,0.96685 -0.11946,1.00427 -0.21907,0.44214 z"
     id="path22"
     transform="translate(560.59998,12.000013)" />
  <path
     style="fill:#ff0000;fill-rule:evenodd;stroke-width:0.435361"
     d="m 412.80634,232.34194 c -0.87653,-3.20565 -2.87846,-5.16638 -5.4502,-5.33804 -0.25984,-0.0173 -0.4653,-0.0387 -0.45657,-0.0474 0.009,-0.009 0.24844,-0.0378 0.53272,-0.0645 1.05338,-0.0991 2.07568,0.0815 3.00416,0.53087 0.47323,0.22902 0.6415,0.34435 1.00647,0.68982 0.24103,0.22816 0.54452,0.57471 0.67443,0.77012 0.65874,0.99088 1.03,2.55622 0.81439,3.43362 l -0.0626,0.25495 z"
     id="path23"
     transform="translate(560.59998,12.000013)" />
  <path
     style="fill:#ff0000;fill-rule:evenodd;stroke-width:0.435361"
     d="m 402.87547,224.92641 c -0.44414,-0.10137 -0.96959,-0.33297 -1.40384,-0.61877 -0.34235,-0.22531 -1.45811,-1.27524 -1.40822,-1.32513 0.0118,-0.0117 0.21486,0.0605 0.45135,0.16046 0.97453,0.41211 1.83442,0.55616 3.07507,0.51516 1.33325,-0.0441 2.3263,-0.30502 3.64025,-0.95656 0.38455,-0.19069 0.70711,-0.33878 0.7168,-0.3291 0.0401,0.0401 -0.82974,0.95425 -1.19874,1.25988 -0.7619,0.63104 -1.31584,0.95103 -2.05554,1.18743 -0.53369,0.17056 -1.33183,0.21739 -1.81713,0.10663 z"
     id="path24"
     transform="translate(560.59998,12.000013)" />
  <path
     style="fill:#ff0000;fill-rule:evenodd;stroke-width:0.435361"
     d="m 400.06463,222.52655 c -1.09053,-0.28183 -1.69805,-0.79248 -1.7791,-1.49542 -0.0567,-0.49179 0.24822,-1.3116 0.75544,-2.031 0.24206,-0.34332 0.97196,-1.19618 0.99985,-1.16828 0.01,0.01 -0.0678,0.15071 -0.17205,0.31362 -0.52367,0.81863 -0.75555,1.55407 -0.72419,2.29689 0.0174,0.4132 0.041,0.509 0.20858,0.84808 0.22134,0.44785 0.66131,0.89214 1.16765,1.17911 0.28936,0.164 0.30646,0.18229 0.16897,0.18075 -0.0841,-9.5e-4 -0.36545,-0.0566 -0.62515,-0.12375 z"
     id="path25"
     transform="translate(560.59998,12.000013)" />
  <path
     style="fill:#ff0000;fill-rule:evenodd;stroke-width:0.435361"
     d="m 402.76109,223.21133 c -0.72469,-0.12915 -1.33434,-0.43742 -1.90461,-0.96306 -0.32029,-0.29522 -0.85508,-0.97151 -0.85508,-1.08132 0,-0.0236 0.14341,0.0627 0.31869,0.19187 0.46839,0.34502 1.36109,0.76433 1.93923,0.91087 1.33905,0.33942 2.81363,0.25052 4.20973,-0.25379 0.2058,-0.0743 0.38398,-0.12538 0.39595,-0.11341 0.0655,0.0655 -1.08702,0.71885 -1.68344,0.95427 -0.81157,0.32036 -1.80001,0.46515 -2.42047,0.35457 z"
     id="path26"
     transform="translate(560.59998,12.000013)" />
  <path
     style="fill:#ff0000;fill-rule:evenodd;stroke-width:0.435361"
     d="m 403.40668,221.55458 c -0.7981,-0.19349 -1.45191,-0.74596 -1.83761,-1.5528 -0.2563,-0.53614 -0.33923,-0.79902 -0.23119,-0.73288 0.0964,0.059 0.52043,0.38319 0.5502,0.42062 0.099,0.12449 1.22043,0.6631 1.74942,0.84021 0.75663,0.25332 1.16192,0.31228 2.15141,0.313 0.50482,3.7e-4 1.04405,-0.0155 1.1983,-0.0352 l 0.28045,-0.0359 -0.37739,0.17805 c -0.53423,0.25205 -1.30808,0.51318 -1.79382,0.60533 -0.50434,0.0957 -1.29417,0.0955 -1.68977,-4.4e-4 z"
     id="path27"
     transform="translate(560.59998,12.000013)" />
  <path
     style="fill:#ff0000;fill-rule:evenodd;stroke-width:0.435361"
     d="m 402.18636,219.3519 c 0.30466,-0.42185 0.80411,-0.81323 1.28245,-1.00493 0.37735,-0.15123 1.11581,-0.16538 1.60742,-0.0308 0.38785,0.10617 1.37662,0.55452 1.32866,0.60247 -0.0125,0.0125 -0.17006,-0.0141 -0.35006,-0.0593 -1.32007,-0.33106 -2.84445,-0.11363 -3.7667,0.53725 -0.18862,0.13312 -0.22018,0.11926 -0.10177,-0.0447 z"
     id="path28"
     transform="translate(560.59998,12.000013)" />
  <path
     style="fill:#ff0000;fill-rule:evenodd;stroke-width:0.435361"
     d="m 400.05239,218.70313 c 0,-0.0948 0.33308,-0.64827 0.55577,-0.92349 0.5916,-0.73115 1.37745,-1.12969 2.32732,-1.1803 0.59176,-0.0315 1.09241,0.0519 1.79615,0.29922 0.45891,0.16129 1.66794,0.75062 1.62599,0.79258 -0.013,0.013 -0.28392,-0.0339 -0.6021,-0.10417 -0.88942,-0.19642 -1.4891,-0.25312 -2.35384,-0.22255 -1.35709,0.048 -2.2977,0.39641 -3.10708,1.15099 -0.13322,0.12419 -0.24221,0.20867 -0.24221,0.18772 z"
     id="path29"
     transform="translate(560.59998,12.000013)" />
  <path
     style="fill:#ff0000;fill-rule:evenodd;stroke-width:0.435361"
     d="m 408.21125,220.78335 c -4.2e-4,-1.13337 -0.14647,-1.82311 -0.5193,-2.45259 -0.22196,-0.37476 -0.74913,-0.907 -1.16324,-1.17443 -0.39457,-0.25481 -0.31875,-0.26923 0.28871,-0.0549 0.83797,0.29563 1.56892,0.74076 1.8747,1.14165 0.33482,0.43898 0.48262,1.00755 0.3885,1.49459 -0.0943,0.48809 -0.40757,1.14534 -0.74575,1.56468 l -0.12336,0.15298 z"
     id="path30"
     transform="translate(560.59998,12.000013)" />
  <path
     style="fill:#ff0000;fill-rule:evenodd;stroke-width:0.435361"
     d="m 389.89232,234.76484 c -1.19099,-0.19516 -2.44357,-0.80611 -3.5566,-1.73474 -0.41527,-0.34647 -1.60393,-1.5488 -1.56736,-1.58538 0.0124,-0.0124 0.2064,0.0683 0.43115,0.17928 0.77835,0.38436 1.88763,0.7204 3.06086,0.92724 0.76725,0.13527 2.49806,0.188 3.32588,0.10132 1.89763,-0.19869 3.72798,-0.74381 5.52667,-1.64595 0.22025,-0.11047 0.40994,-0.19136 0.42154,-0.17977 0.0414,0.0414 -0.95764,1.1579 -1.38091,1.5432 -1.37254,1.24944 -2.71436,2.00808 -4.1068,2.32191 -0.5879,0.13251 -1.58481,0.16623 -2.15443,0.0729 z"
     id="path31"
     transform="translate(560.59998,12.000013)" />
  <path
     style="fill:#ff0000;fill-rule:evenodd;stroke-width:0.435361"
     d="m 390.03259,231.8989 c -0.69123,-0.0896 -1.56129,-0.34806 -2.11974,-0.62972 -0.51137,-0.25791 -1.19296,-0.74879 -1.61136,-1.1605 -0.39576,-0.38943 -0.86812,-0.96129 -0.82702,-1.00122 0.0109,-0.0106 0.19199,0.10715 0.40233,0.26172 1.81537,1.33411 4.00508,1.9395 6.36163,1.75879 1.29024,-0.0989 2.64527,-0.41546 3.90441,-0.91202 0.24761,-0.0976 0.46113,-0.16662 0.47449,-0.15326 0.0259,0.0259 -0.55749,0.3512 -1.23065,0.68636 -1.05854,0.52703 -2.41687,0.96327 -3.44658,1.10689 -0.5066,0.0707 -1.51806,0.0934 -1.90751,0.043 z"
     id="path32"
     transform="translate(560.59998,12.000013)" />
  <path
     style="fill:#ff0000;fill-rule:evenodd;stroke-width:0.435361"
     d="m 391.33287,229.83481 c -1.6375,-0.129 -2.84251,-0.98693 -3.5564,-2.53205 -0.14572,-0.31541 -0.42092,-1.22709 -0.42092,-1.39446 0,-0.0257 0.16636,0.0854 0.36969,0.24671 0.20332,0.16134 0.37458,0.29534 0.38056,0.29777 0.006,0.002 -0.0227,0.11599 -0.0637,0.25236 -0.10649,0.35384 -0.0995,0.36095 0.1517,0.15508 l 0.22632,-0.18545 0.5513,0.30758 c 2.3692,1.3218 5.62196,1.69573 8.44868,0.97124 0.22091,-0.0566 0.41268,-0.0919 0.42615,-0.0784 0.0431,0.0431 -1.66891,0.87422 -2.40854,1.16932 -1.57985,0.63034 -2.90271,0.88505 -4.1048,0.79034 z"
     id="path33"
     transform="translate(560.59998,12.000013)" />
  <path
     style="fill:#ff0000;fill-rule:evenodd;stroke-width:0.435361"
     d="m 388.30103,226.4987 c -0.0823,-0.0602 -0.0774,-0.0853 0.0715,-0.36468 0.48534,-0.91058 1.43085,-1.66019 2.42491,-1.92249 0.97611,-0.25755 2.19954,-0.0963 3.50819,0.46228 0.46399,0.19806 1.53248,0.78328 1.49626,0.8195 -0.0127,0.0127 -0.12282,-0.0104 -0.24467,-0.0514 -0.46178,-0.15539 -1.00399,-0.28951 -1.49633,-0.37012 -0.69082,-0.1131 -1.89427,-0.11406 -2.52208,-0.002 -0.98123,0.17514 -1.96176,0.59876 -2.73575,1.18191 -0.35751,0.26937 -0.42565,0.30289 -0.50205,0.24703 z"
     id="path34"
     transform="translate(560.59998,12.000013)" />
  <path
     style="fill:#ff0000;fill-rule:evenodd;stroke-width:0.435361"
     d="m 385.3159,225.54255 c 0,-0.0996 0.25775,-0.76821 0.43553,-1.12976 0.48013,-0.97642 1.20457,-1.74206 2.07783,-2.196 0.69436,-0.36095 1.27786,-0.49404 2.17784,-0.49674 1.1238,-0.003 2.24846,0.25392 3.56162,0.81481 0.8235,0.35174 2.39139,1.16853 2.34059,1.21932 -0.009,0.009 -0.19942,-0.0397 -0.42267,-0.10863 -1.58777,-0.49051 -3.82804,-0.74123 -5.25008,-0.58755 -1.90592,0.20598 -3.24155,0.80524 -4.398,1.97326 -0.28747,0.29033 -0.52266,0.52042 -0.52266,0.51129 z"
     id="path35"
     transform="translate(560.59998,12.000013)" />
  <path
     style="fill:#ff0000;fill-rule:evenodd;stroke-width:0.435361"
     d="m 386.15725,230.93989 c -2.12455,-0.59826 -3.24898,-1.52327 -3.50239,-2.88122 -0.18501,-0.99142 0.37143,-2.45989 1.48712,-3.92463 0.34062,-0.44717 1.17525,-1.39413 1.20369,-1.36569 0.0107,0.0107 -0.15063,0.27693 -0.3585,0.59163 -1.65508,2.50568 -1.65964,4.70431 -0.0132,6.39543 0.40601,0.41704 0.96665,0.83477 1.51477,1.12865 0.23838,0.12781 0.399,0.23143 0.35694,0.23026 -0.0421,-0.001 -0.35184,-0.0797 -0.68839,-0.17443 z"
     id="path36"
     transform="translate(560.59998,12.000013)" />
  <path
     style="fill:#ff0000;fill-rule:evenodd;stroke-width:0.435361"
     d="m 397.78273,228.98949 c 0.0515,-0.48066 0.19653,-0.83156 0.46903,-1.13465 l 0.23354,-0.25976 -0.0359,-0.44384 c -0.0755,-0.9336 -0.26694,-1.63157 -0.64888,-2.36623 -0.60211,-1.15813 -1.64687,-2.13003 -3.00219,-2.79282 -0.28842,-0.14104 -0.48055,-0.25637 -0.42694,-0.25628 0.0536,9e-5 0.39576,0.079 0.76035,0.1753 1.73933,0.45954 2.77835,0.97793 3.56996,1.78114 0.68799,0.69807 0.97423,1.48978 0.84979,2.35046 -0.13894,0.96095 -0.60239,1.90314 -1.42422,2.89546 -0.18001,0.21735 -0.33946,0.39518 -0.35433,0.39518 -0.0149,0 -0.0105,-0.15478 0.01,-0.34396 z"
     id="path37"
     transform="translate(560.59998,12.000013)" />
  <path
     style="fill:#ff0000;fill-rule:evenodd;stroke-width:0.435361"
     d="m 387.80842,244.13295 c -0.58023,-1.04926 -1.81834,-2.25449 -3.07668,-2.99495 -1.39788,-0.82258 -3.39503,-1.38346 -5.01475,-1.40835 -0.21592,-0.003 -0.46141,-0.0225 -0.54555,-0.0427 -0.14963,-0.0359 -0.14549,-0.0402 0.18918,-0.19489 1.19201,-0.55106 2.97457,-0.83937 4.1808,-0.6762 2.28224,0.30872 3.73414,1.81661 4.24398,4.40759 0.11829,0.60116 0.20028,1.15323 0.17105,1.15175 -0.008,-4.1e-4 -0.0746,-0.1094 -0.14803,-0.24221 z"
     id="path38"
     transform="translate(560.59998,12.000013)" />
  <path
     style="fill:#ff0000;fill-rule:evenodd;stroke-width:0.435361"
     d="m 385.78997,245.24809 c -0.42602,-1.35992 -1.3869,-2.61414 -2.64309,-3.44998 -0.99737,-0.66363 -2.6319,-1.26809 -3.73466,-1.38111 -0.17607,-0.018 -0.33452,-0.0561 -0.3521,-0.0845 -0.0369,-0.0597 1.27557,-0.013 1.97251,0.0702 1.64004,0.19579 2.92153,0.72705 3.74846,1.55399 0.37328,0.37327 0.83733,1.06844 0.55907,0.83751 -0.14727,-0.12223 -0.13005,-0.0109 0.0445,0.28785 0.21951,0.37566 0.41989,0.85052 0.51825,1.22814 0.0759,0.29146 0.0921,0.8827 0.0316,1.15281 -0.0287,0.12821 -0.0443,0.10504 -0.14454,-0.21485 z"
     id="path39"
     transform="translate(560.59998,12.000013)" />
  <path
     style="fill:#ff0000;fill-rule:evenodd;stroke-width:0.435361"
     d="m 383.02523,249.04503 c 1.62715,-0.63714 2.6244,-1.55803 2.98558,-2.75696 0.17621,-0.58493 0.0988,-1.62055 -0.21161,-2.83002 -0.0525,-0.20445 0.60066,0.49933 0.92461,0.99632 0.81204,1.24578 0.7576,2.20608 -0.17551,3.09611 -0.67161,0.64061 -1.84137,1.18607 -3.35704,1.56537 -0.60429,0.15123 -0.66594,0.12493 -0.16603,-0.0708 z"
     id="path40"
     transform="translate(560.59998,12.000013)" />
  <path
     style="fill:#ff0000;fill-rule:evenodd;stroke-width:0.435361"
     d="m 383.10611,246.07458 c -0.0174,-0.10739 -0.007,-0.21671 0.0251,-0.25496 0.0415,-0.05 0.0371,-0.067 -0.0171,-0.067 -0.0451,0 -0.11672,-0.1367 -0.18879,-0.36047 -0.0639,-0.19825 -0.23041,-0.5888 -0.37012,-0.86788 -0.78966,-1.57738 -2.24875,-2.746 -4.17407,-3.34313 l -0.53541,-0.16605 0.33297,-0.002 c 0.18313,-0.001 0.6191,0.033 0.96883,0.0762 2.33357,0.28809 3.74365,0.98729 4.32374,2.14395 0.0575,0.11456 0.14248,0.39588 0.18893,0.62515 0.0974,0.48084 0.051,1.02832 -0.13529,1.59585 -0.0996,0.30348 -0.33094,0.80865 -0.37027,0.80865 -0.01,0 -0.0317,-0.0846 -0.0485,-0.18799 z"
     id="path41"
     transform="translate(560.59998,12.000013)" />
  <path
     style="fill:#ff0000;fill-rule:evenodd;stroke-width:0.435361"
     d="m 380.0383,246.29248 c -0.93914,-0.21783 -1.70781,-0.73606 -2.36309,-1.59317 -0.18392,-0.24056 -0.56892,-0.88535 -0.56892,-0.9528 0,-0.0245 0.19427,0.13928 0.4317,0.36403 0.93255,0.88273 2.04818,1.44764 3.31617,1.67917 0.29167,0.0533 0.74512,0.0846 1.24423,0.086 l 0.78531,0.002 -0.19999,0.0872 c -0.11,0.048 -0.40603,0.14783 -0.65784,0.22191 -0.56834,0.16722 -1.50672,0.21702 -1.98757,0.10549 z"
     id="path42"
     transform="translate(560.59998,12.000013)" />
  <path
     style="fill:#ff0000;fill-rule:evenodd;stroke-width:0.435361"
     d="m 380.24226,248.73792 c -1.13207,-0.20619 -2.10191,-0.89125 -2.95582,-2.0879 -0.26981,-0.3781 -0.85905,-1.48669 -0.83252,-1.56628 0.0105,-0.0314 0.15317,0.10693 0.31714,0.30735 0.16397,0.20042 0.52187,0.57714 0.79534,0.83716 1.79608,1.70778 3.81892,2.35446 5.78271,1.84868 0.27845,-0.0717 0.5143,-0.12238 0.52411,-0.11257 0.01,0.01 -0.17213,0.10957 -0.40431,0.2217 -1.10793,0.5351 -2.24806,0.7301 -3.22665,0.55186 z"
     id="path43"
     transform="translate(560.59998,12.000013)" />
  <path
     style="fill:#ff0000;fill-rule:evenodd;stroke-width:0.435361"
     d="m 375.57761,246.38063 c -0.49768,-0.53292 -0.77768,-0.90434 -1.01896,-1.35166 -0.80602,-1.49431 -0.24846,-2.8056 1.63885,-3.85434 0.3191,-0.17731 1.27065,-0.58417 1.29929,-0.55554 0.0486,0.0486 -0.21378,0.21 -0.42871,0.26382 -0.20221,0.0506 -0.28298,0.11042 -0.48879,0.36181 -1.19111,1.45491 -1.47847,3.31194 -0.78122,5.04848 0.0995,0.2479 0.17375,0.45796 0.16491,0.4668 -0.009,0.009 -0.18225,-0.16188 -0.38537,-0.37937 z"
     id="path44"
     transform="translate(560.59998,12.000013)" />
  <path
     style="fill:#ff0000;fill-rule:evenodd;stroke-width:0.188664"
     d="m 375.42951,237.86144 c -1.56596,-0.1323 -3.03755,-0.48645 -4.17402,-1.00451 -1.08303,-0.49369 -1.92542,-1.16446 -2.45379,-1.95384 -0.3601,-0.538 -0.60814,-1.2199 -0.69929,-1.92245 -0.0574,-0.44202 -0.0288,-1.14705 0.0694,-1.71253 0.14443,-0.83195 0.55277,-2.0248 0.9752,-2.84875 l 0.0557,-0.10872 0.0125,0.46227 c 0.0335,1.24525 0.3533,2.47556 0.95642,3.6798 1.06862,2.13366 2.89811,3.86489 5.52307,5.2264 l 0.39775,0.2063 -0.22097,-0.003 c -0.12154,-0.001 -0.32041,-0.011 -0.44194,-0.0213 z"
     id="path45"
     transform="translate(560.59998,12.000013)" />
  <path
     style="fill:#ff0000;fill-rule:evenodd;stroke-width:0.188664"
     d="m 378.19164,236.299 c -0.87712,-0.4476 -1.43644,-0.77184 -2.05503,-1.19134 -0.62907,-0.4266 -1.01875,-0.74221 -1.48877,-1.20578 -0.75758,-0.7472 -1.19898,-1.48758 -1.36601,-2.29126 -0.0571,-0.27465 -0.0523,-0.82284 0.01,-1.10486 0.16697,-0.76013 0.6119,-1.50298 1.29015,-2.15397 0.28938,-0.27776 0.85891,-0.73185 0.85891,-0.68482 0,0.008 -0.049,0.14482 -0.10882,0.30489 -0.30415,0.8134 -0.44151,1.61932 -0.41468,2.43289 0.0154,0.46661 0.053,0.74251 0.16157,1.18377 0.24667,1.00301 0.76651,1.97305 1.56311,2.91681 0.46877,0.55538 0.98071,1.05718 1.75431,1.71953 0.23395,0.20032 0.42537,0.36769 0.42537,0.37195 0,0.0207 -0.0753,-0.0149 -0.62977,-0.29781 z"
     id="path46"
     transform="translate(560.59998,12.000013)" />
  <path
     style="fill:#ff0000;fill-rule:evenodd;stroke-width:0.188664"
     d="m 376.02613,236.94551 c -0.1823,-0.0783 -0.54417,-0.24702 -0.80416,-0.37492 -2.63876,-1.29809 -4.09457,-2.91933 -4.36821,-4.86457 -0.0428,-0.30418 -0.048,-0.89176 -0.0105,-1.18921 0.0925,-0.73429 0.35236,-1.51698 0.73001,-2.19866 0.12595,-0.22735 0.3774,-0.62464 0.38839,-0.61365 0.004,0.004 -0.0223,0.11101 -0.0579,0.2384 -0.0837,0.29968 -0.18372,0.79684 -0.23336,1.1597 -0.0566,0.41384 -0.0573,1.41221 -10e-4,1.81196 0.17207,1.2278 0.61943,2.29727 1.39571,3.33666 0.75521,1.01119 1.87306,1.98084 3.1044,2.69286 0.13945,0.0806 0.23889,0.14598 0.22097,0.14521 -0.0179,-7.7e-4 -0.18172,-0.0655 -0.36402,-0.14378 z"
     id="path47"
     transform="translate(560.59998,12.000013)" />
  <path
     style="fill:#ff0000;fill-rule:evenodd;stroke-width:0.188664"
     d="m 377.93753,237.3302 c -0.15192,-0.0122 -0.28455,-0.0302 -0.29473,-0.04 -0.0261,-0.0251 0.38153,-0.29143 0.6101,-0.39855 0.21084,-0.0988 0.48347,-0.17664 0.61871,-0.17664 0.16594,0 0.98729,-0.36911 1.47562,-0.66314 1.33842,-0.80588 2.22735,-1.93527 2.62609,-3.33643 0.14155,-0.49739 0.20591,-0.96981 0.20722,-1.52096 10e-4,-0.45024 2.1e-4,-0.45094 0.16831,0.13622 0.34525,1.20596 0.43229,2.19923 0.26538,3.02831 -0.33886,1.68317 -1.64235,2.67549 -3.86474,2.94215 -0.36408,0.0437 -1.41892,0.0606 -1.81196,0.029 z"
     id="path48"
     transform="translate(560.59998,12.000013)" />
  <path
     style="fill:#ff0000;fill-rule:evenodd;stroke-width:0.188664"
     d="m 380.37042,234.12529 c -0.001,-0.008 -0.0175,-0.1321 -0.0362,-0.27469 -0.12788,-0.97552 -0.51787,-1.93618 -1.1067,-2.72612 -0.2145,-0.28777 -0.67644,-0.76467 -0.96959,-1.00099 -0.42283,-0.34088 -0.93449,-0.64911 -1.46018,-0.87963 -0.30805,-0.13508 -0.93949,-0.35617 -1.10271,-0.3861 -0.072,-0.0132 -0.08,-0.0192 -0.0442,-0.0333 0.0637,-0.0249 0.43903,-0.0235 0.79512,0.003 1.65969,0.12324 2.89282,0.71926 3.53511,1.70864 0.29999,0.46213 0.47896,0.99702 0.54397,1.6258 0.0351,0.33948 0.0134,1.0089 -0.0453,1.39644 -0.0427,0.28213 -0.10435,0.60172 -0.10935,0.56697 z"
     id="path49"
     transform="translate(560.59998,12.000013)" />
  <path
     style="fill:#ff0000;fill-rule:evenodd;stroke-width:0.188664"
     d="m 381.75437,233.35629 c -0.007,-0.0425 -0.0249,-0.19667 -0.039,-0.34251 -0.10936,-1.13639 -0.48556,-2.39405 -0.99785,-3.33594 -1.10634,-2.0341 -2.9161,-3.1346 -5.39535,-3.28088 -0.1927,-0.0114 -0.3543,-0.0246 -0.3591,-0.0294 -0.005,-0.005 0.128,-0.0354 0.29513,-0.068 1.72204,-0.33595 3.31458,-0.1556 4.4317,0.50186 1.18957,0.70009 1.88492,1.87254 2.12489,3.58283 0.10816,0.77085 0.0953,2.02368 -0.0301,2.92758 -0.0162,0.11683 -0.0174,0.11865 -0.0303,0.0445 z"
     id="path50"
     transform="translate(560.59998,12.000013)" />
  <path
     style="fill:#ff0000;fill-rule:evenodd;stroke-width:0.188664"
     d="m 370.50786,230.22955 c -0.34677,-1.11615 -0.40824,-2.092 -0.17814,-2.82843 0.53318,-1.70648 2.55107,-2.42984 5.85109,-2.09747 0.38254,0.0385 1.00696,0.12412 1.36535,0.18715 0.32821,0.0577 1.12263,0.2252 1.11316,0.23467 -0.004,0.004 -0.1508,-0.007 -0.32597,-0.0255 -0.76376,-0.079 -1.87483,-0.10361 -2.48631,-0.0551 -1.44424,0.11463 -2.57006,0.47294 -3.45536,1.09972 -0.27897,0.1975 -0.69554,0.6037 -0.90508,0.88252 -0.56268,0.74877 -0.8588,1.64645 -0.89126,2.70183 l -0.005,0.16572 z"
     id="path51"
     transform="translate(560.59998,12.000013)" />
  <path
     style="fill:#ff0000;fill-rule:evenodd;stroke-width:0.188664"
     d="m 380.83224,225.1003 c -0.81815,-0.1497 -1.65491,-0.64132 -2.43953,-1.43331 -0.24352,-0.24581 -0.74984,-0.82889 -0.73374,-0.84499 0.004,-0.004 0.12033,0.0372 0.25881,0.0913 0.62123,0.24254 1.3825,0.4123 2.13662,0.47644 0.17506,0.0149 0.34805,0.0456 0.48614,0.0864 0.39786,0.11742 0.59511,0.14415 1.05405,0.14285 0.47542,-0.001 0.73885,-0.0389 1.19459,-0.17028 0.67865,-0.19565 1.44153,-0.57829 2.14949,-1.07814 0.13777,-0.0973 0.25471,-0.17262 0.25988,-0.16745 0.0332,0.0332 -0.15747,0.41589 -0.36041,0.72339 -0.73963,1.12067 -1.79514,1.91596 -2.86016,2.15503 -0.23645,0.0531 -0.89899,0.064 -1.14574,0.0188 z"
     id="path52"
     transform="translate(560.59998,12.000013)" />
  <path
     style="fill:#ff0000;fill-rule:evenodd;stroke-width:0.188664"
     d="m 381.41897,221.99761 c -0.99867,-0.11377 -1.75561,-0.65242 -2.1881,-1.55707 -0.0949,-0.19854 -0.1926,-0.46472 -0.22164,-0.60396 l -0.0154,-0.0736 0.18503,0.15097 c 0.10176,0.083 0.25157,0.19571 0.33291,0.25041 0.0965,0.0649 0.14812,0.11439 0.14858,0.14252 5e-4,0.0312 0.007,0.0364 0.0249,0.0189 0.0175,-0.0175 0.074,0.007 0.2044,0.0877 0.28219,0.17513 0.81444,0.42398 1.14147,0.53367 0.55788,0.18713 1.03694,0.27167 1.65728,0.29246 0.6033,0.0202 1.05323,-0.0251 1.92191,-0.19375 0.24885,-0.0483 0.47204,-0.0849 0.49598,-0.0814 0.0611,0.009 -0.75843,0.40218 -1.20255,0.57693 -0.55368,0.21785 -0.95705,0.33372 -1.43092,0.41103 -0.31967,0.0522 -0.80868,0.0731 -1.05385,0.0452 z"
     id="path53"
     transform="translate(560.59998,12.000013)" />
  <path
     style="fill:#ff0000;fill-rule:evenodd;stroke-width:0.188664"
     d="m 380.08828,223.27204 c -0.63942,-0.31067 -1.19291,-0.80162 -1.61852,-1.43566 -0.0639,-0.0952 -0.11187,-0.17734 -0.10662,-0.18258 0.005,-0.005 0.0484,0.0218 0.0958,0.0601 0.36116,0.29155 1.01539,0.63878 1.50763,0.80016 1.33649,0.43819 3.02552,0.38464 4.69878,-0.14896 0.13327,-0.0425 0.24619,-0.0734 0.25092,-0.0687 0.0138,0.0139 -0.45422,0.24267 -0.79137,0.38689 -1.07746,0.46086 -2.08185,0.67835 -3.22635,0.69863 l -0.56348,0.01 z"
     id="path54"
     transform="translate(560.59998,12.000013)" />
  <path
     style="fill:#ff0000;fill-rule:evenodd;stroke-width:0.188664"
     d="m 378.52357,222.68086 c -1.28618,-0.22362 -1.98786,-0.65303 -2.16703,-1.32619 -0.0402,-0.1509 -0.0404,-0.49601 -5.5e-4,-0.68211 0.10756,-0.50175 0.40824,-1.05311 0.9251,-1.69633 0.21698,-0.27004 0.76399,-0.85513 0.78232,-0.8368 0.005,0.005 -0.055,0.10709 -0.13325,0.22698 -0.37027,0.56733 -0.58348,1.05527 -0.70357,1.61009 -0.0171,0.0791 -0.0283,0.27534 -0.0277,0.48614 7.9e-4,0.2957 0.009,0.38428 0.0511,0.54137 0.10834,0.40552 0.3221,0.75922 0.65045,1.07625 0.24616,0.23768 0.42827,0.36964 0.72727,0.52698 0.12478,0.0657 0.20699,0.11859 0.18268,0.1176 -0.0243,-9.9e-4 -0.15336,-0.0208 -0.28679,-0.044 z"
     id="path55"
     transform="translate(560.59998,12.000013)" />
  <path
     style="fill:#ff0000;fill-rule:evenodd;stroke-width:0.188664"
     d="m 379.72739,220.24317 c 0,-0.0514 0.28804,-0.43346 0.46754,-0.6202 0.86537,-0.90026 1.97018,-1.06636 3.27682,-0.49263 0.22354,0.0982 0.55004,0.27532 0.76345,0.41426 0.15512,0.10101 0.15294,0.10121 -0.14364,0.0135 -0.51654,-0.15271 -0.90103,-0.21158 -1.48176,-0.22689 -0.64167,-0.0169 -1.0407,0.0335 -1.55659,0.19662 -0.39046,0.12348 -0.94255,0.41623 -1.23191,0.65324 -0.0516,0.0423 -0.0939,0.0702 -0.0939,0.0621 z"
     id="path56"
     transform="translate(560.59998,12.000013)" />
  <path
     style="fill:#ff0000;fill-rule:evenodd;stroke-width:0.188664"
     d="m 378.53458,219.20098 c -2.4e-4,-0.0133 0.068,-0.12767 0.15156,-0.25411 0.53714,-0.81249 1.26115,-1.31238 2.13206,-1.47209 0.27214,-0.0499 0.852,-0.0489 1.15109,0.002 0.41145,0.07 0.8586,0.20142 1.27765,0.37546 0.33962,0.14106 1.1533,0.5658 1.08475,0.56625 -0.0138,9e-5 -0.18028,-0.0444 -0.37,-0.0988 -0.4251,-0.12201 -0.98723,-0.23599 -1.48321,-0.30076 -0.44321,-0.0579 -1.27501,-0.0701 -1.62414,-0.0238 -1.0022,0.1328 -1.72782,0.49926 -2.23885,1.13066 -0.0443,0.0547 -0.0807,0.0885 -0.0809,0.0752 z"
     id="path57"
     transform="translate(560.59998,12.000013)" />
  <path
     style="fill:#ff0000;fill-rule:evenodd;stroke-width:0.188664"
     d="m 385.23063,221.25401 c -8e-4,-0.20343 0.0103,-0.31422 0.0454,-0.45299 0.0595,-0.23539 0.082,-0.78403 0.0422,-1.03075 -0.0388,-0.24078 -0.13854,-0.5304 -0.26709,-0.77564 -0.29989,-0.57211 -0.87419,-1.13473 -1.55525,-1.52361 -0.10887,-0.0622 -0.18525,-0.11302 -0.16973,-0.11302 0.11356,0 0.87781,0.23196 1.24647,0.37832 1.16422,0.4622 1.7566,1.12332 1.71028,1.90872 -0.0305,0.51734 -0.34757,1.13743 -0.85446,1.67113 l -0.19672,0.20713 z"
     id="path58"
     transform="translate(560.59998,12.000013)" />
  <path
     style="fill:#ff0000;fill-rule:evenodd;stroke-width:0.188664"
     d="m 380.64442,217.04627 c -1.11626,-0.11737 -2.15642,-0.61586 -3.24827,-1.5567 -0.3571,-0.3077 -1.1414,-1.11468 -1.08337,-1.11468 0.008,0 0.0861,0.0415 0.17302,0.0923 0.61621,0.35989 1.55563,0.6861 2.43541,0.84569 0.93856,0.17026 2.01352,0.18961 2.99379,0.0539 1.41607,-0.19604 2.91092,-0.70365 4.27415,-1.45139 0.1814,-0.0995 0.33423,-0.17649 0.33962,-0.17109 0.0313,0.0313 -0.60257,0.77539 -0.98906,1.16112 -1.01257,1.01057 -2.09059,1.68613 -3.15966,1.98006 -0.59819,0.16447 -1.18428,0.21877 -1.73563,0.1608 z"
     id="path59"
     transform="translate(560.59998,12.000013)" />
  <path
     style="fill:#ff0000;fill-rule:evenodd;stroke-width:0.188664"
     d="m 380.3903,215.04492 c -0.73466,-0.0411 -1.4199,-0.22284 -2.03293,-0.53919 -0.41361,-0.21345 -1.0589,-0.75427 -1.42841,-1.19718 -0.15231,-0.18256 -0.38355,-0.50608 -0.38355,-0.53661 0,-0.008 0.0423,0.0179 0.0939,0.0567 0.0516,0.0389 0.19651,0.139 0.3219,0.22248 0.91424,0.60865 1.94784,0.98538 3.11972,1.13708 0.5903,0.0764 1.58199,0.0658 2.26932,-0.0243 0.97734,-0.12812 2.11277,-0.44188 3.00534,-0.8305 0.1397,-0.0608 0.25812,-0.10645 0.26317,-0.1014 0.0135,0.0135 -0.47751,0.32326 -0.87377,0.55131 -1.30609,0.75167 -2.55501,1.17075 -3.73598,1.25363 -0.31067,0.0218 -0.35979,0.0224 -0.61872,0.008 z"
     id="path60"
     transform="translate(560.59998,12.000013)" />
  <path
     style="fill:#ff0000;fill-rule:evenodd;stroke-width:0.188664"
     d="m 378.46786,214.74093 c -2.03663,-0.53004 -3.19365,-1.31717 -3.51008,-2.38793 -0.30998,-1.04895 0.27094,-2.39346 1.66467,-3.85277 0.24036,-0.25167 0.71745,-0.69654 0.7317,-0.68229 0.006,0.006 -0.0714,0.11847 -0.17118,0.25076 -0.0998,0.1323 -0.24424,0.335 -0.32104,0.45046 -0.20906,0.31432 -0.34877,0.5023 -0.46647,0.62762 -0.15146,0.16127 -0.23168,0.2729 -0.21524,0.2995 0.0282,0.0457 0.0564,0.0199 0.19173,-0.17538 0.0756,-0.10914 0.14086,-0.19508 0.14496,-0.19098 0.004,0.004 -0.0413,0.11577 -0.10083,0.24815 -0.29295,0.65118 -0.42334,1.2592 -0.3945,1.8397 0.022,0.44273 0.10324,0.78932 0.28275,1.20613 0.0468,0.10871 0.0818,0.20102 0.0777,0.20512 -0.004,0.004 -0.0499,-0.028 -0.10176,-0.0713 -0.0519,-0.0433 -0.0986,-0.0744 -0.10395,-0.0691 -0.0274,0.0274 0.29532,0.49473 0.55715,0.80679 0.45359,0.54063 0.91461,0.90076 1.83265,1.43164 0.13303,0.0769 0.2275,0.13896 0.20993,0.13785 -0.0176,-0.001 -0.15625,-0.0343 -0.30816,-0.0739 z"
     id="path61"
     transform="translate(560.59998,12.000013)" />
  <path
     style="fill:#ff0000;fill-rule:evenodd;stroke-width:0.188664"
     d="m 381.01139,213.68672 c -1.41327,-0.14773 -2.53723,-0.9947 -3.17741,-2.39438 -0.0919,-0.201 -0.23472,-0.58612 -0.22202,-0.59882 0.004,-0.004 0.0861,0.0575 0.1828,0.13631 1.16922,0.95179 2.56941,1.5434 4.07605,1.72224 0.16407,0.0195 0.52204,0.0412 0.79549,0.0482 1.12444,0.0289 2.25297,-0.14507 3.34378,-0.51552 0.19389,-0.0659 0.35538,-0.11687 0.35887,-0.11338 0.003,0.003 -0.10554,0.0728 -0.24228,0.15413 -1.97198,1.1722 -3.72333,1.70672 -5.11528,1.56122 z"
     id="path62"
     transform="translate(560.59998,12.000013)" />
  <path
     style="fill:#ff0000;fill-rule:evenodd;stroke-width:0.188664"
     d="m 379.04238,210.51143 c 0,-0.0102 0.0474,-0.0975 0.10541,-0.19396 0.64642,-1.07554 1.75462,-1.60799 3.04982,-1.46531 0.45921,0.0506 1.0712,0.21502 1.56577,0.42072 0.34244,0.14242 1.12833,0.54167 1.10742,0.56259 -0.004,0.004 -0.1364,-0.0375 -0.29393,-0.0924 -1.32928,-0.46362 -2.71068,-0.5063 -3.87721,-0.11978 -0.53968,0.17882 -0.96905,0.40209 -1.40634,0.7313 -0.24139,0.18173 -0.25094,0.1877 -0.25094,0.15684 z"
     id="path63"
     transform="translate(560.59998,12.000013)" />
  <path
     style="fill:#ff0000;fill-rule:evenodd;stroke-width:0.188664"
     d="m 376.74428,208.76706 c 0,-0.0391 0.30858,-0.39943 0.54041,-0.63098 0.40555,-0.40504 0.78986,-0.6863 1.27045,-0.92978 0.49153,-0.24902 0.9667,-0.396 1.51475,-0.46853 0.37293,-0.0494 1.17098,-0.0319 1.55785,0.0342 0.77463,0.13222 1.54997,0.38739 2.36439,0.77815 0.37046,0.17775 1.02143,0.52952 1.00686,0.54409 -0.004,0.004 -0.15567,-0.037 -0.33617,-0.0921 -1.43343,-0.43692 -2.93456,-0.64796 -4.17302,-0.58668 -0.87727,0.0434 -1.55667,0.17832 -2.2383,0.44445 -0.4699,0.18347 -0.98786,0.48714 -1.34701,0.78974 -0.0881,0.0742 -0.16021,0.12707 -0.16021,0.11741 z"
     id="path64"
     transform="translate(560.59998,12.000013)" />
  <path
     style="fill:#ff0000;fill-rule:evenodd;stroke-width:0.188664"
     d="m 386.62296,212.45244 c -3.6e-4,-0.39608 0.009,-0.62255 0.0323,-0.76235 0.24406,-1.48102 -0.34592,-2.80427 -1.68781,-3.78558 -0.36516,-0.26703 -0.99015,-0.61158 -1.39241,-0.76761 -0.0897,-0.0348 -0.15192,-0.0669 -0.13836,-0.0714 0.037,-0.0123 0.56593,0.0966 0.94997,0.19565 1.45401,0.37505 2.44827,0.95121 2.95458,1.71215 0.54901,0.82511 0.53279,1.82362 -0.0486,2.99306 -0.17083,0.3436 -0.45351,0.79989 -0.60233,0.97227 l -0.0668,0.0773 z"
     id="path65"
     transform="translate(560.59998,12.000013)" />
  <path
     style="fill:#ff0000;fill-rule:evenodd;stroke-width:0.188664"
     d="m 392.10357,219.66585 c -1.32887,-0.13157 -2.53417,-0.45876 -3.42686,-0.93026 -1.70782,-0.90204 -2.40626,-2.34096 -2.05387,-4.23138 0.0916,-0.49117 0.27756,-1.07422 0.53262,-1.66962 l 0.13994,-0.32666 0.0164,0.13246 c 0.0932,0.75094 0.27223,1.3873 0.59278,2.1069 0.80081,1.79771 2.32553,3.4176 4.36287,4.63518 0.21876,0.13074 0.42757,0.25557 0.46404,0.27739 l 0.0663,0.0397 -0.19888,-0.002 c -0.10938,-0.001 -0.3323,-0.0154 -0.49537,-0.0315 z"
     id="path66"
     transform="translate(560.59998,12.000013)" />
  <path
     style="fill:#ff0000;fill-rule:evenodd;stroke-width:0.188664"
     d="m 392.9083,218.81981 c -2.93041,-1.3135 -4.25904,-3.01215 -3.8666,-4.94343 0.11041,-0.54338 0.42308,-1.21061 0.79464,-1.69579 0.17311,-0.22604 0.24108,-0.30179 0.22203,-0.24743 -0.0415,0.11838 -0.14651,0.65039 -0.17884,0.90598 -0.0464,0.36712 -0.0474,1.05902 -0.002,1.39287 0.0704,0.51773 0.2215,1.05682 0.4239,1.5129 0.49793,1.12202 1.43801,2.19469 2.61791,2.98715 0.16407,0.1102 0.30245,0.20409 0.30752,0.20864 0.0331,0.0297 -0.0684,-0.009 -0.31857,-0.12089 z"
     id="path67"
     transform="translate(560.59998,12.000013)" />
  <path
     style="fill:#ff0000;fill-rule:evenodd;stroke-width:0.188664"
     d="m 393.79286,217.88663 c -1.65183,-0.94077 -2.64569,-1.89547 -2.99027,-2.87245 -0.36665,-1.03955 0.0473,-2.10502 1.16548,-3.00008 0.0784,-0.0628 0.14985,-0.11409 0.1588,-0.11409 0.009,0 -0.0131,0.087 -0.0491,0.19335 -0.0847,0.2503 -0.18379,0.66005 -0.2339,0.96675 -0.0595,0.36437 -0.0546,1.11844 0.01,1.49156 0.1482,0.85832 0.51791,1.65887 1.10215,2.38648 0.27726,0.34529 0.83864,0.87307 1.17985,1.10922 0.0298,0.0206 0.0441,0.038 0.0317,0.0387 -0.0124,6.4e-4 -0.18093,-0.0891 -0.37462,-0.19941 z"
     id="path68"
     transform="translate(560.59998,12.000013)" />
  <path
     style="fill:#ff0000;fill-rule:evenodd;stroke-width:0.188664"
     d="m 395.64208,216.3807 c -0.0736,-0.61834 -0.34082,-1.33503 -0.70671,-1.89533 -0.39102,-0.59878 -0.95917,-1.138 -1.59889,-1.51746 -0.11853,-0.0703 -0.21212,-0.13122 -0.20798,-0.13536 0.0132,-0.0132 0.64967,0.15008 0.88337,0.22664 1.05955,0.34708 1.65546,0.91372 1.83679,1.74659 0.0524,0.24074 0.0528,0.78428 7.5e-4,1.07171 -0.0378,0.20856 -0.12912,0.5918 -0.16275,0.68271 -0.0124,0.0336 -0.0255,-0.019 -0.0446,-0.1795 z"
     id="path69"
     transform="translate(560.59998,12.000013)" />
  <path
     style="fill:#ff0000;fill-rule:evenodd;stroke-width:0.188664"
     d="m 397.02091,215.84838 c -0.0913,-0.58023 -0.41604,-1.52955 -0.74216,-2.16955 -0.33511,-0.65764 -0.66505,-1.11989 -1.13719,-1.59324 -0.66938,-0.67108 -1.37528,-1.07553 -2.27572,-1.30386 -0.25507,-0.0647 -0.74526,-0.141 -0.90661,-0.14115 -0.0656,-6e-5 -0.10097,-0.008 -0.0884,-0.02 0.0364,-0.0345 0.86085,-0.0759 1.22417,-0.0615 1.27742,0.0507 2.19693,0.39432 2.87451,1.07415 0.60204,0.60404 0.94545,1.40108 1.086,2.52061 0.0339,0.26964 0.0361,1.54367 0.003,1.70147 l -0.0209,0.0994 z"
     id="path70"
     transform="translate(560.59998,12.000013)" />
  <path
     style="fill:#ff0000;fill-rule:evenodd;stroke-width:0.188664"
     d="m 387.9532,213.34737 c -0.0705,-0.35302 -0.0941,-0.5805 -0.094,-0.9054 1.8e-4,-0.58036 0.11764,-1.01009 0.38703,-1.41595 0.69716,-1.05032 2.34574,-1.46973 4.72418,-1.20186 0.3432,0.0386 0.88939,0.11936 0.95435,0.14102 0.0121,0.004 -0.23644,0.002 -0.55243,-0.004 -1.32176,-0.0263 -2.34602,0.15259 -3.18591,0.55645 -0.32046,0.1541 -0.47304,0.24553 -0.73245,0.43893 -0.53069,0.39564 -0.95242,0.94432 -1.19819,1.55885 -0.1087,0.27181 -0.21264,0.66928 -0.23672,0.90517 l -0.0173,0.16993 z"
     id="path71"
     transform="translate(560.59998,12.000013)" />
  <path
     style="fill:#ff0000;fill-rule:evenodd;stroke-width:0.188664"
     d="m 394.36671,219.18867 c -0.1823,-0.01 -0.39112,-0.0264 -0.46404,-0.0374 l -0.13258,-0.0201 0.10194,-0.003 c 0.31351,-0.008 0.4754,-0.0824 0.83981,-0.38473 0.24343,-0.20191 0.29795,-0.23634 0.49456,-0.31228 1.21659,-0.46991 2.06615,-1.29569 2.41694,-2.34931 0.12813,-0.38483 0.1604,-0.59162 0.17335,-1.11063 l 0.0118,-0.47509 0.0633,0.20992 c 0.0777,0.25739 0.20438,0.82531 0.24406,1.09381 0.0175,0.11854 0.0288,0.38185 0.028,0.65186 -0.002,0.51078 -0.034,0.7156 -0.17115,1.08078 -0.43879,1.16819 -1.71581,1.75458 -3.60608,1.65588 z"
     id="path72"
     transform="translate(560.59998,12.000013)" />
  <path
     style="fill:#ff0000;fill-rule:evenodd;stroke-width:0.533622"
     d="m 370.40955,222.72611 c -0.13867,-0.0387 -0.12699,-0.0503 0.125,-0.12419 0.15287,-0.0448 0.54392,-0.2066 0.869,-0.3595 1.74262,-0.81961 3.13683,-2.1604 3.95933,-3.80762 0.26127,-0.52324 0.66837,-1.66411 0.66837,-1.87305 0,-0.0511 0.0281,-0.093 0.0625,-0.093 0.0344,0 0.0634,0.0773 0.0646,0.17187 0.001,0.0945 0.0291,0.46719 0.0621,0.82813 0.20485,2.2396 -0.54807,3.87893 -2.13546,4.64948 -0.70452,0.34199 -1.40469,0.51666 -2.40236,0.59931 -0.83362,0.0691 -1.05111,0.0705 -1.27312,0.009 z"
     id="path73"
     transform="translate(560.59998,12.000013)" />
  <path
     style="fill:#ff0000;fill-rule:evenodd;stroke-width:0.188664"
     d="m 369.06555,221.09001 c -0.29999,-0.0153 -0.82981,-0.0811 -1.02752,-0.12763 -0.0729,-0.0171 -0.0741,-0.0189 -0.0221,-0.0311 0.0304,-0.007 0.17457,-0.0288 0.32041,-0.0483 1.40585,-0.18744 2.72322,-0.71365 3.75308,-1.49914 1.26445,-0.96439 2.18959,-2.38088 2.61483,-4.00357 l 0.0753,-0.28727 -0.0119,0.35356 c -0.0243,0.7223 -0.14231,1.47118 -0.33343,2.11646 -0.71649,2.41906 -2.61638,3.66719 -5.36865,3.52695 z"
     id="path74"
     transform="translate(560.59998,12.000013)" />
  <path
     style="fill:#ff0000;fill-rule:evenodd;stroke-width:0.188664"
     d="m 369.60644,219.25827 c -0.43698,-0.0393 -0.95836,-0.15376 -1.42478,-0.31284 -0.27355,-0.0933 -0.78543,-0.31089 -0.91083,-0.38718 l -0.0711,-0.0433 0.25783,-0.0386 c 0.1418,-0.0212 0.28568,-0.0441 0.31973,-0.0509 0.0557,-0.0111 0.0619,-0.006 0.0619,0.048 0,0.046 0.008,0.0572 0.0349,0.047 0.0192,-0.007 0.0389,-0.0134 0.0436,-0.0134 0.005,0 0.0241,-0.0298 0.043,-0.0663 0.0189,-0.0365 0.0522,-0.0663 0.074,-0.0663 0.0577,0 0.72834,-0.16722 0.98664,-0.24603 1.13344,-0.34581 2.1841,-0.94261 2.97078,-1.68746 0.84553,-0.80058 1.45726,-1.73242 1.96922,-2.99968 0.0528,-0.13065 0.10232,-0.23755 0.11009,-0.23755 0.0186,0 0.24253,0.41064 0.33141,0.60767 0.0898,0.19913 0.2438,0.59135 0.23543,0.59972 -0.004,0.004 -0.0971,-0.0802 -0.20793,-0.18615 -0.21299,-0.20359 -0.28566,-0.31692 -0.30807,-0.48039 -0.008,-0.055 -0.0168,-0.097 -0.0206,-0.0932 -0.004,0.004 -0.0277,0.1905 -0.0531,0.41492 -0.0992,0.87433 -0.23145,1.52897 -0.43515,2.15372 -0.6419,1.96872 -1.80897,2.98504 -3.49822,3.04635 -0.16407,0.006 -0.393,0.002 -0.50872,-0.008 z"
     id="path75"
     transform="translate(560.59998,12.000013)" />
  <path
     style="fill:#ff0000;fill-rule:evenodd;stroke-width:0.188664"
     d="m 367.83231,217.52933 c -0.10059,-0.56897 -0.0949,-1.02995 0.018,-1.44986 0.2765,-1.02876 1.2295,-1.78259 2.83937,-2.24596 0.14779,-0.0425 0.28532,-0.0772 0.30561,-0.077 0.0203,2e-4 -0.0747,0.0594 -0.21118,0.13146 -0.83768,0.44265 -1.51634,1.01431 -2.02083,1.70223 -0.41212,0.56195 -0.6855,1.17894 -0.82329,1.85807 -0.03,0.14765 -0.0583,0.27229 -0.063,0.27698 -0.005,0.005 -0.0248,-0.0835 -0.0447,-0.19595 z"
     id="path76"
     transform="translate(560.59998,12.000013)" />
  <path
     style="fill:#ff0000;fill-rule:evenodd;stroke-width:0.188664"
     d="m 366.18742,219.39514 c -0.51143,-0.63582 -0.87857,-1.3811 -0.98719,-2.004 -0.0447,-0.25617 -0.0449,-0.70452 -4.1e-4,-0.93889 0.0982,-0.51743 0.3487,-0.96074 0.79315,-1.4034 0.79307,-0.78986 2.08182,-1.38616 3.96751,-1.83573 0.22483,-0.0536 0.42371,-0.0975 0.44194,-0.0975 0.0182,-3e-5 -0.1011,0.0628 -0.26517,0.13963 -0.48431,0.22678 -0.99966,0.51754 -1.44333,0.81433 -1.27754,0.85459 -2.11313,1.80134 -2.47697,2.80651 -0.28757,0.79442 -0.25602,1.72801 0.0858,2.53842 0.0425,0.10086 0.0737,0.18707 0.0692,0.19158 -0.005,0.004 -0.0875,-0.0904 -0.18444,-0.21092 z"
     id="path77"
     transform="translate(560.59998,12.000013)" />
  <path
     style="fill:#ff0000;fill-rule:evenodd;stroke-width:0.188664"
     d="m 367.77755,222.77016 c -0.38045,-0.0368 -0.68688,-0.12659 -1.02115,-0.29934 -0.58773,-0.30376 -1.06176,-0.8003 -1.47489,-1.54493 -0.33181,-0.59803 -0.64013,-1.49897 -0.79983,-2.3371 -0.0617,-0.32389 -0.0548,-0.35371 0.024,-0.10384 0.45724,1.44947 1.12878,2.39686 2.10709,2.97259 0.65398,0.38487 1.36213,0.56159 2.25404,0.56251 0.649,6.7e-4 1.3072,-0.0954 1.90122,-0.27744 0.34763,-0.10655 0.35734,-0.10891 0.33045,-0.0802 -0.0398,0.0424 -0.49721,0.31436 -0.77077,0.45819 -0.71426,0.37556 -1.3857,0.59106 -2.02451,0.64979 -0.27638,0.0254 -0.2605,0.0254 -0.52565,-2.1e-4 z"
     id="path78"
     transform="translate(560.59998,12.000013)" />
  <path
     style="fill:#ff0000;fill-rule:evenodd;stroke-width:0.188664"
     d="m 373.5623,212.62695 c -0.42483,-0.29661 -1.15125,-0.60496 -1.70821,-0.72509 -1.03842,-0.22398 -2.36643,-0.10883 -3.45899,0.29993 -0.11352,0.0425 -0.21097,0.0727 -0.21655,0.0671 -0.0149,-0.0149 0.31331,-0.20069 0.65498,-0.37071 0.3752,-0.18672 0.73136,-0.3282 1.0717,-0.42574 0.45682,-0.13092 0.65253,-0.15739 1.1601,-0.15687 0.4122,4.3e-4 0.47533,0.006 0.70103,0.0591 0.61302,0.14494 1.13819,0.44442 1.60887,0.91748 0.19957,0.20059 0.42696,0.47131 0.39294,0.46781 -0.01,-0.001 -0.10256,-0.0609 -0.20587,-0.133 z"
     id="path79"
     transform="translate(560.59998,12.000013)" />
</svg>
